<?xml version="1.0" standalone="no"?>
<!DOCTYPE svg PUBLIC "-//W3C//DTD SVG 1.1//EN" "http://www.w3.org/Graphics/SVG/1.1/DTD/svg11.dtd" >
<svg xmlns="http://www.w3.org/2000/svg">
<metadata></metadata>
<defs>
<font id="arial-bpg-regular" horiz-adv-x="1139" >
<font-face units-per-em="2048" ascent="1638" descent="-410" />
<missing-glyph horiz-adv-x="569" />
<glyph horiz-adv-x="569" />
<glyph unicode=" "  horiz-adv-x="569" />
<glyph unicode="&#x09;" horiz-adv-x="569" />
<glyph unicode="&#xa0;" horiz-adv-x="569" />
<glyph unicode="!" horiz-adv-x="569" d="M231 364l-55 777v325h223v-325l-52 -777h-116zM184 0v205h207v-205h-207z" />
<glyph unicode="&#x22;" horiz-adv-x="727" d="M144 947l-50 279v240h205v-240l-45 -279h-110zM475 947l-49 279v240h205v-240l-48 -279h-108z" />
<glyph unicode="#" d="M103 -25l87 426h-169v149h199l74 363h-273v149h303l87 429h150l-87 -429h315l87 429h151l-87 -429h173v-149h-203l-75 -363h278v-149h-308l-87 -426h-150l86 426h-314l-87 -426h-150zM370 550h314l75 363h-315z" />
<glyph unicode="$" d="M510 -211v180q-135 17 -219.5 60.5t-146 140.5t-71.5 237l181 34q21 -145 74 -213q76 -96 182 -107v573q-111 21 -227 86q-86 48 -132.5 133t-46.5 193q0 192 136 311q91 80 270 98v86h106v-86q157 -15 249 -92q118 -98 142 -269l-186 -28q-16 106 -66.5 162.5 t-138.5 74.5v-519q136 -34 180 -53q84 -37 137 -90t81.5 -126t28.5 -158q0 -187 -119 -312t-308 -134v-182h-106zM510 1365q-105 -16 -165.5 -84t-60.5 -161q0 -92 51.5 -154t174.5 -99v498zM616 121q105 13 173.5 91t68.5 193q0 98 -48.5 157.5t-193.5 106.5v-548z" />
<glyph unicode="%" horiz-adv-x="1821" d="M119 1114q0 157 79 267t229 110q138 0 228.5 -98.5t90.5 -289.5q0 -186 -91.5 -286.5t-225.5 -100.5q-133 0 -221.5 99t-88.5 299zM432 1367q-67 0 -111.5 -58t-44.5 -213q0 -141 45 -198.5t111 -57.5q68 0 112.5 58t44.5 212q0 142 -45 199.5t-112 57.5zM433 -54 l802 1545h146l-799 -1545h-149zM1067 344q0 158 79 267.5t230 109.5q138 0 228.5 -98.5t90.5 -289.5q0 -186 -91.5 -286.5t-226.5 -100.5q-133 0 -221.5 99.5t-88.5 298.5zM1381 597q-68 0 -112.5 -58t-44.5 -213q0 -140 45 -198t111 -58q69 0 113.5 58t44.5 212 q0 142 -45 199.5t-112 57.5z" />
<glyph unicode="&#x26;" horiz-adv-x="1366" d="M973 173q-89 -99 -194 -148.5t-227 -49.5q-225 0 -357 152q-107 124 -107 277q0 136 87.5 245.5t261.5 192.5q-99 114 -132 185t-33 137q0 132 103.5 229.5t260.5 97.5q150 0 245.5 -92t95.5 -221q0 -209 -277 -357l263 -335q45 88 70 204l187 -40q-48 -192 -130 -316 q101 -134 229 -225l-121 -143q-109 70 -225 207zM607 937q117 69 151.5 121t34.5 115q0 75 -47.5 122.5t-118.5 47.5q-73 0 -121.5 -47t-48.5 -115q0 -34 17.5 -71.5t52.5 -79.5zM860 315l-330 409q-146 -87 -197 -161.5t-51 -147.5q0 -89 71 -185t201 -96q81 0 167.5 50.5 t138.5 130.5z" />
<glyph unicode="'" horiz-adv-x="391" d="M136 947l-46 274v245h205v-245l-48 -274h-111z" />
<glyph unicode="(" horiz-adv-x="682" d="M479 -431q-149 188 -252 440t-103 522q0 238 77 456q90 253 278 504h129q-121 -208 -160 -297q-61 -138 -96 -288q-43 -187 -43 -376q0 -481 299 -961h-129z" />
<glyph unicode=")" horiz-adv-x="682" d="M253 -431h-129q299 480 299 961q0 188 -43 373q-34 150 -95 288q-39 90 -161 300h129q188 -251 278 -504q77 -218 77 -456q0 -270 -103.5 -522t-251.5 -440z" />
<glyph unicode="*" horiz-adv-x="797" d="M64 1197l46 142q159 -56 231 -97q-19 181 -20 249h145q-3 -99 -23 -248q103 52 236 96l46 -142q-127 -42 -249 -56q61 -53 172 -189l-120 -85q-58 79 -137 215q-74 -141 -130 -215l-118 85q116 143 166 189q-129 25 -245 56z" />
<glyph unicode="+" horiz-adv-x="1196" d="M513 237v402h-399v168h399v399h170v-399h399v-168h-399v-402h-170z" />
<glyph unicode="," horiz-adv-x="569" d="M182 0v205h205v-205q0 -113 -40 -182.5t-127 -107.5l-50 77q57 25 84 73.5t30 139.5h-102z" />
<glyph unicode="-" horiz-adv-x="682" d="M65 440v181h553v-181h-553z" />
<glyph unicode="." horiz-adv-x="569" d="M186 0v205h205v-205h-205z" />
<glyph unicode="/" horiz-adv-x="569" d="M0 -25l425 1516h144l-424 -1516h-145z" />
<glyph unicode="0" d="M85 723q0 260 53.5 418.5t159 244.5t265.5 86q118 0 207 -47.5t147 -137t91 -218t33 -346.5q0 -258 -53 -416.5t-158.5 -245t-266.5 -86.5q-212 0 -333 152q-145 183 -145 596zM270 723q0 -361 84.5 -480.5t208.5 -119.5t208.5 120t84.5 480q0 362 -84.5 481t-210.5 119 q-124 0 -198 -105q-93 -134 -93 -495z" />
<glyph unicode="1" d="M763 0h-180v1147q-65 -62 -170.5 -124t-189.5 -93v174q151 71 264 172t160 196h116v-1472z" />
<glyph unicode="2" d="M1031 173v-173h-969q-2 65 21 125q37 99 118.5 195t235.5 222q239 196 323 310.5t84 216.5q0 107 -76.5 180.5t-199.5 73.5q-130 0 -208 -78t-79 -216l-185 19q19 207 143 315.5t333 108.5q211 0 334 -117t123 -290q0 -88 -36 -173t-119.5 -179t-277.5 -258 q-162 -136 -208 -184.5t-76 -97.5h719z" />
<glyph unicode="3" d="M86 387l180 24q31 -153 105.5 -220.5t181.5 -67.5q127 0 214.5 88t87.5 218q0 124 -81 204.5t-206 80.5q-51 0 -127 -20l20 158q18 -2 29 -2q115 0 207 60t92 185q0 99 -67 164t-173 65q-105 0 -175 -66t-90 -198l-180 32q33 181 150 280.5t291 99.5q120 0 221 -51.5 t154.5 -140.5t53.5 -189q0 -95 -51 -173t-151 -124q130 -30 202 -124.5t72 -236.5q0 -192 -140 -325.5t-354 -133.5q-193 0 -320.5 115t-145.5 298z" />
<glyph unicode="4" d="M662 0v351h-636v165l669 950h147v-950h198v-165h-198v-351h-180zM662 516v661l-459 -661h459z" />
<glyph unicode="5" d="M85 384l189 16q21 -138 97.5 -207.5t184.5 -69.5q130 0 220 98t90 260q0 154 -86.5 243t-226.5 89q-87 0 -157 -39.5t-110 -102.5l-169 22l142 753h729v-172h-585l-79 -394q132 92 277 92q192 0 324 -133t132 -342q0 -199 -116 -344q-141 -178 -385 -178 q-200 0 -326.5 112t-144.5 297z" />
<glyph unicode="6" d="M1019 1107l-179 -14q-24 106 -68 154q-73 77 -180 77q-86 0 -151 -48q-85 -62 -134 -181t-51 -339q65 99 159 147t197 48q180 0 306.5 -132.5t126.5 -342.5q0 -138 -59.5 -256.5t-163.5 -181.5t-236 -63q-225 0 -367 165.5t-142 545.5q0 425 157 618q137 168 369 168 q173 0 283.5 -97t132.5 -268zM284 475q0 -93 39.5 -178t110.5 -129.5t149 -44.5q114 0 196 92t82 250q0 152 -81 239.5t-204 87.5q-122 0 -207 -87.5t-85 -229.5z" />
<glyph unicode="7" d="M97 1274v173h949v-140q-140 -149 -277.5 -396t-212.5 -508q-54 -184 -69 -403h-185q3 173 68 418t186.5 472.5t258.5 383.5h-718z" />
<glyph unicode="8" d="M362 795q-112 41 -166 117t-54 182q0 160 115 269t306 109q192 0 309 -111.5t117 -271.5q0 -102 -53.5 -177.5t-162.5 -116.5q135 -44 205.5 -142t70.5 -234q0 -188 -133 -316t-350 -128t-350 128.5t-133 320.5q0 143 72.5 239.5t206.5 131.5zM326 1100q0 -104 67 -170 t174 -66q104 0 170.5 65.5t66.5 160.5q0 99 -68.5 166.5t-170.5 67.5q-103 0 -171 -66t-68 -158zM268 423q0 -77 36.5 -149t108.5 -111.5t155 -39.5q129 0 213 83t84 211q0 130 -86.5 215t-216.5 85q-127 0 -210.5 -84t-83.5 -210z" />
<glyph unicode="9" d="M112 339l173 16q22 -122 84 -177t159 -55q83 0 145.5 38t102.5 101.5t67 171.5t27 220q0 12 -1 36q-54 -86 -147.5 -139.5t-202.5 -53.5q-182 0 -308 132t-126 348q0 223 131.5 359t329.5 136q143 0 261.5 -77t180 -219.5t61.5 -412.5q0 -281 -61 -447.5t-181.5 -253.5 t-282.5 -87q-172 0 -281 95.5t-131 268.5zM849 986q0 155 -82.5 246t-198.5 91q-120 0 -209 -98t-89 -254q0 -140 84.5 -227.5t208.5 -87.5q125 0 205.5 87.5t80.5 242.5z" />
<glyph unicode=":" horiz-adv-x="569" d="M185 857v205h205v-205h-205zM185 0v205h205v-205h-205z" />
<glyph unicode=";" horiz-adv-x="569" d="M182 857v205h205v-205h-205zM182 0v205h205v-205q0 -113 -40 -182.5t-127 -107.5l-50 77q57 25 84 73.5t30 139.5h-102z" />
<glyph unicode="&#x3c;" horiz-adv-x="1196" d="M112 641v168l971 410v-179l-770 -316l770 -319v-179z" />
<glyph unicode="=" horiz-adv-x="1196" d="M1082 862h-968v168h968v-168zM1082 417h-968v168h968v-168z" />
<glyph unicode="&#x3e;" horiz-adv-x="1196" d="M1083 641l-971 -415v179l769 319l-769 316v179l971 -410v-168z" />
<glyph unicode="?" d="M472 361q-1 36 -1 54q0 106 30 183q22 58 71 117q36 43 129.5 125.5t121.5 131.5t28 107q0 105 -82 184.5t-201 79.5q-115 0 -192 -72t-101 -225l-185 22q25 205 148.5 314t326.5 109q215 0 343 -117t128 -283q0 -96 -45 -177t-176 -197q-88 -78 -115 -115t-40 -85 t-15 -156h-173zM461 0v205h205v-205h-205z" />
<glyph unicode="@" horiz-adv-x="2079" d="M1161 163q-65 -75 -145.5 -120.5t-161.5 -45.5q-89 0 -173 52t-136.5 160t-52.5 237q0 159 81.5 318.5t202.5 239.5t235 80q87 0 166 -45.5t136 -138.5l34 155h179l-144 -671q-30 -140 -30 -155q0 -27 20.5 -46.5t49.5 -19.5q53 0 139 61q114 80 180.5 214.5t66.5 277.5 q0 167 -85.5 312t-255 232t-374.5 87q-234 0 -427.5 -109.5t-300 -314t-106.5 -438.5q0 -245 106.5 -422t308 -261.5t446.5 -84.5q262 0 439 88t265 214h181q-51 -105 -175 -214t-295 -172.5t-412 -63.5q-222 0 -409.5 57t-319.5 171.5t-199 263.5q-84 189 -84 408 q0 244 100 465q122 271 346.5 415t544.5 144q248 0 445.5 -101.5t311.5 -302.5q97 -173 97 -376q0 -290 -204 -515q-182 -202 -398 -202q-69 0 -111.5 21t-62.5 60q-13 25 -19 86zM677 434q0 -137 65 -213t149 -76q56 0 118 33.5t118.5 99.5t92.5 167.5t36 203.5 q0 136 -67.5 211t-164.5 75q-64 0 -120.5 -32.5t-109.5 -104.5t-85 -175t-32 -189z" />
<glyph unicode="A" horiz-adv-x="1366" d="M-3 0l563 1466h209l600 -1466h-221l-171 444h-613l-161 -444h-206zM420 602h497l-153 406q-70 185 -104 304q-28 -141 -79 -280z" />
<glyph unicode="B" horiz-adv-x="1366" d="M150 0v1466h550q168 0 269.5 -44.5t159 -137t57.5 -193.5q0 -94 -51 -177t-154 -134q133 -39 204.5 -133t71.5 -222q0 -103 -43.5 -191.5t-107.5 -136.5t-160.5 -72.5t-236.5 -24.5h-559zM344 850h317q129 0 185 17q74 22 111.5 73t37.5 128q0 73 -35 128.5t-100 76 t-223 20.5h-293v-443zM344 173h365q94 0 132 7q67 12 112 40t74 81.5t29 123.5q0 82 -42 142.5t-116.5 85t-214.5 24.5h-339v-504z" />
<glyph unicode="C" horiz-adv-x="1479" d="M1204 514l194 -49q-61 -239 -219.5 -364.5t-387.5 -125.5q-237 0 -385.5 96.5t-226 279.5t-77.5 393q0 229 87.5 399.5t249 259t355.5 88.5q220 0 370 -112t209 -315l-191 -45q-51 160 -148 233t-244 73q-169 0 -282.5 -81t-159.5 -217.5t-46 -281.5q0 -187 54.5 -326.5 t169.5 -208.5t249 -69q163 0 276 94t153 279z" />
<glyph unicode="D" horiz-adv-x="1479" d="M158 0v1466h505q171 0 261 -21q126 -29 215 -105q116 -98 173.5 -250.5t57.5 -348.5q0 -167 -39 -296t-100 -213.5t-133.5 -133t-175 -73.5t-235.5 -25h-529zM352 173h313q145 0 227.5 27t131.5 76q69 69 107.5 185.5t38.5 282.5q0 230 -75.5 353.5t-183.5 165.5 q-78 30 -251 30h-308v-1120z" />
<glyph unicode="E" horiz-adv-x="1366" d="M162 0v1466h1060v-173h-866v-449h811v-172h-811v-499h900v-173h-1094z" />
<glyph unicode="F" horiz-adv-x="1251" d="M168 0v1466h989v-173h-795v-454h688v-173h-688v-666h-194z" />
<glyph unicode="G" horiz-adv-x="1593" d="M844 575v172l621 1v-544q-143 -114 -295 -171.5t-312 -57.5q-216 0 -392.5 92.5t-266.5 267.5t-90 391q0 214 89.5 399.5t257.5 275.5t387 90q159 0 287.5 -51.5t201.5 -143.5t111 -240l-175 -48q-33 112 -82 176t-140 102.5t-202 38.5q-133 0 -230 -40.5t-156.5 -106.5 t-92.5 -145q-56 -136 -56 -295q0 -196 67.5 -328t196.5 -196t274 -64q126 0 246 48.5t182 103.5v273h-431z" />
<glyph unicode="H" horiz-adv-x="1479" d="M164 0v1466h194v-602h762v602h194v-1466h-194v691h-762v-691h-194z" />
<glyph unicode="I" horiz-adv-x="569" d="M191 0v1466h194v-1466h-194z" />
<glyph unicode="J" horiz-adv-x="1024" d="M59 416l175 24q7 -168 63 -230t155 -62q73 0 126 33.5t73 91t20 183.5v1010h194v-999q0 -184 -44.5 -285t-141 -154t-226.5 -53q-193 0 -295.5 111t-98.5 330z" />
<glyph unicode="K" horiz-adv-x="1366" d="M150 0v1466h194v-727l728 727h263l-615 -594l642 -872h-256l-522 742l-240 -234v-508h-194z" />
<glyph unicode="L" d="M150 0v1466h194v-1293h722v-173h-916z" />
<glyph unicode="M" horiz-adv-x="1706" d="M152 0v1466h292l347 -1038q48 -145 70 -217q25 80 78 235l351 1020h261v-1466h-187v1227l-426 -1227h-175l-424 1248v-1248h-187z" />
<glyph unicode="N" horiz-adv-x="1479" d="M156 0v1466h199l770 -1151v1151h186v-1466h-199l-770 1152v-1152h-186z" />
<glyph unicode="O" horiz-adv-x="1593" d="M99 714q0 365 196 571.5t506 206.5q203 0 366 -97t248.5 -270.5t85.5 -393.5q0 -223 -90 -399t-255 -266.5t-356 -90.5q-207 0 -370 100t-247 273t-84 366zM299 711q0 -265 142.5 -417.5t357.5 -152.5q219 0 360.5 154t141.5 437q0 179 -60.5 312.5t-177 207t-261.5 73.5 q-206 0 -354.5 -141.5t-148.5 -472.5z" />
<glyph unicode="P" horiz-adv-x="1366" d="M158 0v1466h553q146 0 223 -14q108 -18 181 -68.5t117.5 -141.5t44.5 -200q0 -187 -119 -316.5t-430 -129.5h-376v-596h-194zM352 769h379q188 0 267 70t79 197q0 92 -46.5 157.5t-122.5 86.5q-49 13 -181 13h-375v-524z" />
<glyph unicode="Q" horiz-adv-x="1593" d="M1269 157q135 -93 249 -136l-57 -135q-158 57 -315 180q-163 -91 -360 -91q-199 0 -361 96t-249.5 270t-87.5 392q0 217 88 395t250.5 271t363.5 93q203 0 366 -96.5t248.5 -270t85.5 -391.5q0 -181 -55 -325.5t-166 -251.5zM842 405q168 -47 277 -140q171 156 171 469 q0 178 -60.5 311t-177 206.5t-261.5 73.5q-217 0 -360 -148.5t-143 -443.5q0 -286 141.5 -439t361.5 -153q104 0 196 39q-91 59 -192 84z" />
<glyph unicode="R" horiz-adv-x="1479" d="M161 0v1466h650q196 0 298 -39.5t163 -139.5t61 -221q0 -156 -101 -263t-312 -136q77 -37 117 -73q85 -78 161 -195l255 -399h-244l-194 305q-85 132 -140 202t-98.5 98t-88.5 39q-33 7 -108 7h-225v-651h-194zM355 819h417q133 0 208 27.5t114 88t39 131.5 q0 104 -75.5 171t-238.5 67h-464v-485z" />
<glyph unicode="S" horiz-adv-x="1366" d="M92 471l183 16q13 -110 60.5 -180.5t147.5 -114t225 -43.5q111 0 196 33t126.5 90.5t41.5 125.5q0 69 -40 120.5t-132 86.5q-59 23 -261 71.5t-283 91.5q-105 55 -156.5 136.5t-51.5 182.5q0 111 63 207.5t184 146.5t269 50q163 0 287.5 -52.5t191.5 -154.5t72 -231 l-186 -14q-15 139 -101.5 210t-255.5 71q-176 0 -256.5 -64.5t-80.5 -155.5q0 -79 57 -130q56 -51 292.5 -104.5t324.5 -93.5q128 -59 189 -149.5t61 -208.5q0 -117 -67 -220.5t-192.5 -161t-282.5 -57.5q-199 0 -333.5 58t-211 174.5t-80.5 263.5z" />
<glyph unicode="T" horiz-adv-x="1251" d="M531 0v1293h-483v173h1162v-173h-485v-1293h-194z" />
<glyph unicode="U" horiz-adv-x="1479" d="M1120 1466h194v-847q0 -221 -50 -351t-180.5 -211.5t-342.5 -81.5q-206 0 -337 71t-187 205.5t-56 367.5v847h194v-846q0 -191 35.5 -281.5t122 -139.5t211.5 -49q214 0 305 97t91 373v846z" />
<glyph unicode="V" horiz-adv-x="1366" d="M577 0l-568 1466h210l381 -1065q46 -128 77 -240q34 120 79 240l396 1065h198l-574 -1466h-199z" />
<glyph unicode="W" horiz-adv-x="1933" d="M414 0l-389 1466h199l223 -961q36 -151 62 -300q56 235 66 271l279 990h234l210 -742q79 -276 114 -519q28 139 73 319l230 942h195l-402 -1466h-187l-309 1117q-39 140 -46 172q-23 -101 -43 -172l-311 -1117h-198z" />
<glyph unicode="X" horiz-adv-x="1366" d="M9 0l567 764l-500 702h231l266 -376q83 -117 118 -180q49 80 116 167l295 389h211l-515 -691l555 -775h-240l-369 523q-31 45 -64 98q-49 -80 -70 -110l-368 -511h-233z" />
<glyph unicode="Y" horiz-adv-x="1366" d="M571 0v621l-565 845h236l289 -442q80 -124 149 -248q66 115 160 259l284 431h226l-585 -845v-621h-194z" />
<glyph unicode="Z" horiz-adv-x="1251" d="M41 0v180l751 939q80 100 152 174h-818v173h1050v-173l-823 -1017l-89 -103h936v-173h-1159z" />
<glyph unicode="[" horiz-adv-x="569" d="M139 -407v1873h397v-149h-217v-1575h217v-149h-397z" />
<glyph unicode="\" horiz-adv-x="569" d="M425 -25l-425 1516h145l424 -1516h-144z" />
<glyph unicode="]" horiz-adv-x="569" d="M436 -407h-397v149h217v1575h-217v149h397v-1873z" />
<glyph unicode="^" horiz-adv-x="961" d="M239 690h-185l353 801h145l355 -801h-181l-247 597z" />
<glyph unicode="_" d="M-31 -407v130h1193v-130h-1193z" />
<glyph unicode="`" horiz-adv-x="682" d="M465 1194h-145l-231 280h241z" />
<glyph unicode="a" d="M828 131q-100 -85 -192.5 -120t-198.5 -35q-175 0 -269 85.5t-94 218.5q0 78 35.5 142.5t93 103.5t129.5 59q53 14 160 27q218 26 321 62q1 37 1 47q0 110 -51 155q-69 61 -205 61q-127 0 -187.5 -44.5t-89.5 -157.5l-176 24q24 113 79 182.5t159 107t241 37.5 q136 0 221 -32t125 -80.5t56 -122.5q9 -46 9 -166v-240q0 -251 11.5 -317.5t45.5 -127.5h-188q-28 56 -36 131zM813 533q-98 -40 -294 -68q-111 -16 -157 -36t-71 -58.5t-25 -85.5q0 -72 54.5 -120t159.5 -48q104 0 185 45.5t119 124.5q29 61 29 180v66z" />
<glyph unicode="b" d="M301 0h-167v1466h180v-523q114 143 291 143q98 0 185.5 -39.5t144 -111t88.5 -172.5t32 -216q0 -273 -135 -422t-324 -149q-188 0 -295 157v-133zM299 539q0 -191 52 -276q85 -139 230 -139q118 0 204 102.5t86 305.5q0 208 -82.5 307t-199.5 99q-118 0 -204 -102.5 t-86 -296.5z" />
<glyph unicode="c" horiz-adv-x="1024" d="M828 389l177 -23q-29 -183 -148.5 -286.5t-293.5 -103.5q-218 0 -350.5 142.5t-132.5 408.5q0 172 57 301t173.5 193.5t253.5 64.5q173 0 283 -87.5t141 -248.5l-175 -27q-25 107 -88.5 161t-153.5 54q-136 0 -221 -97.5t-85 -308.5q0 -214 82 -311t214 -97q106 0 177 65 t90 200z" />
<glyph unicode="d" d="M824 0v134q-101 -158 -297 -158q-127 0 -233.5 70t-165 195.5t-58.5 288.5q0 159 53 288.5t159 198.5t237 69q96 0 171 -40.5t122 -105.5v526h179v-1466h-167zM255 530q0 -204 86 -305t203 -101q118 0 200.5 96.5t82.5 294.5q0 218 -84 320t-207 102q-120 0 -200.5 -98 t-80.5 -309z" />
<glyph unicode="e" d="M862 342l186 -23q-44 -163 -163 -253t-304 -90q-233 0 -369.5 143.5t-136.5 402.5q0 268 138 416t358 148q213 0 348 -145t135 -408q0 -16 -1 -48h-792q10 -175 99 -268t222 -93q99 0 169 52t111 166zM271 633h593q-12 134 -68 201q-86 104 -223 104q-124 0 -208.5 -83 t-93.5 -222z" />
<glyph unicode="f" horiz-adv-x="569" d="M178 0v922h-159v140h159v113q0 107 19 159q26 70 91.5 113.5t183.5 43.5q76 0 168 -18l-27 -157q-56 10 -106 10q-82 0 -116 -35t-34 -131v-98h207v-140h-207v-922h-179z" />
<glyph unicode="g" d="M102 -88l175 -26q11 -81 61 -118q67 -50 183 -50q125 0 193 50t92 140q14 55 13 231q-118 -139 -294 -139q-219 0 -339 158t-120 379q0 152 55 280.5t159.5 198.5t245.5 70q188 0 310 -152v128h166v-918q0 -248 -50.5 -351.5t-160 -163.5t-269.5 -60q-190 0 -307 85.5 t-113 257.5zM251 550q0 -209 83 -305t208 -96q124 0 208 95.5t84 299.5q0 195 -86.5 294t-208.5 99q-120 0 -204 -97.5t-84 -289.5z" />
<glyph unicode="h" d="M135 0v1466h180v-526q126 146 318 146q118 0 205 -46.5t124.5 -128.5t37.5 -238v-673h-180v673q0 135 -58.5 196.5t-165.5 61.5q-80 0 -150.5 -41.5t-100.5 -112.5t-30 -196v-581h-180z" />
<glyph unicode="i" horiz-adv-x="455" d="M136 1259v207h180v-207h-180zM136 0v1062h180v-1062h-180z" />
<glyph unicode="j" horiz-adv-x="455" d="M134 1257v209h180v-209h-180zM-94 -412l34 153q54 -14 85 -14q55 0 82 36.5t27 182.5v1116h180v-1120q0 -196 -51 -273q-65 -100 -216 -100q-73 0 -141 19z" />
<glyph unicode="k" horiz-adv-x="1024" d="M136 0v1466h180v-836l426 432h233l-406 -394l447 -668h-222l-351 543l-127 -122v-421h-180z" />
<glyph unicode="l" horiz-adv-x="455" d="M131 0v1466h180v-1466h-180z" />
<glyph unicode="m" horiz-adv-x="1706" d="M135 0v1062h161v-149q50 78 133 125.5t189 47.5q118 0 193.5 -49t106.5 -137q126 186 328 186q158 0 243 -87.5t85 -269.5v-729h-179v669q0 108 -17.5 155.5t-63.5 76.5t-108 29q-112 0 -186 -74.5t-74 -238.5v-617h-180v690q0 120 -44 180t-144 60q-76 0 -140.5 -40 t-93.5 -117t-29 -222v-551h-180z" />
<glyph unicode="n" d="M135 0v1062h162v-151q117 175 338 175q96 0 176.5 -34.5t120.5 -90.5t56 -133q10 -50 10 -175v-653h-180v646q0 110 -21 164.5t-74.5 87t-125.5 32.5q-115 0 -198.5 -73t-83.5 -277v-580h-180z" />
<glyph unicode="o" d="M68 531q0 295 164 437q137 118 334 118q219 0 358 -143.5t139 -396.5q0 -205 -61.5 -322.5t-179 -182.5t-256.5 -65q-223 0 -360.5 143t-137.5 412zM253 531q0 -204 89 -305.5t224 -101.5q134 0 223 102t89 311q0 197 -89.5 298.5t-222.5 101.5q-135 0 -224 -101 t-89 -305z" />
<glyph unicode="p" d="M135 -407v1469h164v-138q58 81 131 121.5t177 40.5q136 0 240 -70t157 -197.5t53 -279.5q0 -163 -58.5 -293.5t-170 -200t-234.5 -69.5q-90 0 -161.5 38t-117.5 96v-517h-180zM298 525q0 -205 83 -303t201 -98q120 0 205.5 101.5t85.5 314.5q0 203 -83.5 304t-199.5 101 q-115 0 -203.5 -107.5t-88.5 -312.5z" />
<glyph unicode="q" d="M812 -407v520q-42 -59 -117.5 -98t-160.5 -39q-189 0 -325.5 151t-136.5 414q0 160 55.5 287t161 192.5t231.5 65.5q197 0 310 -166v142h162v-1469h-180zM257 534q0 -205 86 -307.5t206 -102.5q115 0 198 97.5t83 296.5q0 212 -87.5 319t-205.5 107q-117 0 -198.5 -99.5 t-81.5 -310.5z" />
<glyph unicode="r" horiz-adv-x="682" d="M133 0v1062h162v-161q62 113 114.5 149t115.5 36q91 0 185 -58l-62 -167q-66 39 -132 39q-59 0 -106 -35.5t-67 -98.5q-30 -96 -30 -210v-556h-180z" />
<glyph unicode="s" horiz-adv-x="1024" d="M63 317l178 28q15 -107 83.5 -164t191.5 -57q124 0 184 50.5t60 118.5q0 61 -53 96q-37 24 -184 61q-198 50 -274.5 86.5t-116 101t-39.5 142.5q0 71 32.5 131.5t88.5 100.5q42 31 114.5 52.5t155.5 21.5q125 0 219.5 -36t139.5 -97.5t62 -164.5l-176 -24 q-12 82 -69.5 128t-162.5 46q-124 0 -177 -41t-53 -96q0 -35 22 -63q22 -29 69 -48q27 -10 159 -46q191 -51 266.5 -83.5t118.5 -94.5t43 -154q0 -90 -52.5 -169.5t-151.5 -123t-224 -43.5q-207 0 -315.5 86t-138.5 255z" />
<glyph unicode="t" horiz-adv-x="569" d="M528 161l26 -159q-76 -16 -136 -16q-98 0 -152 31t-76 81.5t-22 212.5v611h-132v140h132v263l179 108v-371h181v-140h-181v-621q0 -77 9.5 -99t31 -35t61.5 -13q30 0 79 7z" />
<glyph unicode="u" d="M831 0v156q-124 -180 -337 -180q-94 0 -175.5 36t-121 90.5t-55.5 133.5q-11 53 -11 168v658h180v-589q0 -141 11 -190q17 -71 72 -111.5t136 -40.5t152 41.5t100.5 113t29.5 207.5v569h180v-1062h-161z" />
<glyph unicode="v" horiz-adv-x="1024" d="M430 0l-404 1062h190l228 -636q37 -103 68 -214q24 84 67 202l236 648h185l-402 -1062h-168z" />
<glyph unicode="w" horiz-adv-x="1479" d="M331 0l-325 1062h186l169 -613l63 -228q4 17 55 219l169 622h185l159 -616l53 -203l61 205l182 614h175l-332 -1062h-187l-169 636l-41 181l-215 -817h-188z" />
<glyph unicode="x" horiz-adv-x="1024" d="M15 0l388 552l-359 510h225l163 -249q46 -71 74 -119q44 66 81 117l179 251h215l-367 -500l395 -562h-221l-218 330l-58 89l-279 -419h-218z" />
<glyph unicode="y" horiz-adv-x="1024" d="M127 -409l-20 169q59 -16 103 -16q60 0 96 20t59 56q17 27 55 134q5 15 16 44l-403 1064h194l221 -615q43 -117 77 -246q31 124 74 242l227 619h180l-404 -1080q-65 -175 -101 -241q-48 -89 -110 -130.5t-148 -41.5q-52 0 -116 22z" />
<glyph unicode="z" horiz-adv-x="1024" d="M40 0v146l676 776q-115 -6 -203 -6h-433v146h868v-119l-575 -674l-111 -123q121 9 227 9h491v-155h-940z" />
<glyph unicode="{" horiz-adv-x="684" d="M57 612q77 2 125.5 41.5t64.5 108.5t17 236t6 220q9 84 33.5 135t60.5 81.5t92 46.5q38 10 124 10h56v-157h-31q-104 0 -138 -37.5t-34 -167.5q0 -262 -11 -331q-18 -107 -61.5 -165t-136.5 -103q110 -46 159.5 -140.5t49.5 -309.5q0 -195 4 -232q8 -68 40.5 -95 t127.5 -27h31v-157h-56q-98 0 -142 16q-64 23 -106 74.5t-54.5 130.5t-13.5 259t-17 249t-64.5 109t-125.5 42v163z" />
<glyph unicode="|" horiz-adv-x="532" d="M188 -431v1922h157v-1922h-157z" />
<glyph unicode="}" horiz-adv-x="684" d="M626 612v-163q-77 -2 -125.5 -42t-64.5 -108.5t-17 -235.5t-6 -220q-9 -85 -33.5 -135.5t-60.5 -81t-92 -46.5q-38 -11 -124 -11h-56v157h31q104 0 138 37.5t34 168.5q0 250 9 317q16 111 64 177.5t136 103.5q-115 55 -162 145.5t-47 305.5q0 195 -5 233 q-7 67 -39.5 93.5t-127.5 26.5h-31v157h56q98 0 142 -16q64 -22 106 -74t54.5 -131t13.5 -259t17 -248.5t64.5 -108.5t125.5 -42z" />
<glyph unicode="~" horiz-adv-x="1196" d="M87 557v205q106 120 278 120q60 0 126 -17.5t188 -69.5q69 -29 103.5 -38t69.5 -9q65 0 134.5 39t123.5 98v-212q-64 -60 -129.5 -87t-147.5 -27q-60 0 -114.5 14t-173 67t-197.5 53q-64 0 -120.5 -27.5t-140.5 -108.5z" />
<glyph unicode="&#xa1;" horiz-adv-x="682" d="M447 1062v-205h-207v205h207zM400 697l55 -776v-325h-223v325l52 776h116z" />
<glyph unicode="&#xa2;" d="M744 894l-222 -766q33 -9 61 -9q104 0 179.5 71t92.5 199l179 -20q-33 -185 -156.5 -291t-291.5 -106q-49 0 -103 14l-118 -395l-112 32l115 398q-115 55 -188 183.5t-73 321.5q0 178 58.5 305.5t175 191.5t237.5 64q36 0 100 -8l113 387l110 -32l-112 -387 q99 -43 152 -115.5t74 -181.5l-175 -27q-26 112 -96 171zM638 940q-32 3 -50 3q-82 0 -153.5 -45.5t-107 -141t-35.5 -221.5q0 -132 32 -223t91 -135z" />
<glyph unicode="&#xa3;" d="M396 809h315v-148h-284q19 -44 19 -88q0 -87 -41.5 -184t-136.5 -198q79 22 144 22q83 0 187 -25q172 -41 233 -41q74 0 192 56l58 -165q-92 -39 -142.5 -51t-100.5 -12q-42 0 -85 8q-27 5 -129.5 36.5t-132.5 37.5q-47 8 -94 8q-72 0 -153.5 -25t-148.5 -68l-69 173 q96 53 163 151.5t67 240.5q0 61 -17 124h-196v148h154q-33 112 -42 163.5t-9 100.5q0 208 154 325q124 93 300 93q181 0 298.5 -99.5t144.5 -279.5l-179 -27q-15 120 -89.5 189t-178.5 69q-111 0 -184.5 -71.5t-73.5 -172.5q0 -111 57 -290z" />
<glyph unicode="&#xa4;" d="M213 961l-139 136l115 119l139 -139q106 72 237 72q132 0 237 -72l139 139l116 -119l-139 -136q71 -110 71 -235q0 -126 -71 -236l139 -136l-116 -119l-139 140q-105 -73 -237 -73q-131 0 -237 73l-139 -140l-115 119l139 136q-71 110 -71 236q0 125 71 235zM305 726 q0 -108 76 -184t183 -76t183 76t76 184q0 107 -75.5 183t-183.5 76q-107 0 -183 -76t-76 -183z" />
<glyph unicode="&#xa5;" d="M477 0v325h-415v139h415v143h-415v148h341l-406 711h200l290 -516q49 -88 76 -154q23 53 82 163l274 507h214l-405 -711h341v-148h-412v-143h412v-139h-412v-325h-180z" />
<glyph unicode="&#xa6;" horiz-adv-x="532" d="M345 1491v-790h-157v790h157zM345 360v-791h-157v791h157z" />
<glyph unicode="&#xa7;" d="M143 -70l181 26q28 -130 89 -182.5t166 -52.5q102 0 159.5 52t57.5 122q0 51 -36 94q-62 75 -340 245q-148 91 -206.5 142.5t-95.5 121.5t-37 146q0 96 60 174t165 109q-71 68 -100 125.5t-29 122.5q0 128 100 222t265 94q187 0 292 -89t126 -258l-187 -19 q-21 122 -73.5 170t-141.5 48q-92 0 -148.5 -49.5t-56.5 -109.5q0 -52 36 -96q56 -68 306 -220q157 -96 212 -141q71 -60 104.5 -124t33.5 -139q0 -113 -73 -193q-42 -46 -154 -93q80 -61 119.5 -131t39.5 -150q0 -88 -50 -166.5t-144 -120t-203 -41.5q-191 0 -303 95.5 t-134 265.5zM728 244q74 38 110.5 88.5t36.5 98.5q0 57 -52 120q-53 63 -225 169q-137 84 -204 138q-81 -46 -115.5 -92t-34.5 -102q0 -63 46 -120t207 -152q134 -79 231 -148z" />
<glyph unicode="&#xa8;" horiz-adv-x="682" d="M61 1270v205h188v-205h-188zM434 1270v205h188v-205h-188z" />
<glyph unicode="&#xa9;" horiz-adv-x="1509" d="M758 1491q190 0 371 -97.5t282 -279t101 -378.5q0 -195 -99.5 -375t-279 -279.5t-375.5 -99.5t-375.5 99.5t-279.5 279.5t-100 375q0 197 101.5 378.5t282.5 279t371 97.5zM758 1366q-159 0 -309.5 -81.5t-235.5 -233t-85 -315.5q0 -163 83.5 -312.5t233.5 -233 t313 -83.5t313 83.5t233 233t83 312.5q0 164 -84.5 315.5t-235.5 233t-309 81.5zM1000 614l123 -36q-30 -125 -127.5 -199.5t-236.5 -74.5q-176 0 -286 114t-110 316q0 132 50 229.5t142.5 147t211.5 49.5q133 0 221 -63.5t120 -172.5l-119 -29q-30 74 -88.5 113.5 t-137.5 39.5q-115 0 -189.5 -82t-74.5 -235t70.5 -231.5t182.5 -78.5q90 0 158 52t90 141z" />
<glyph unicode="&#xaa;" horiz-adv-x="758" d="M548 853q-122 -107 -256 -107q-113 0 -179 61.5t-66 157.5q0 48 16 84t47.5 64t81.5 45q35 11 99 21l147 22q72 14 96 20q-1 70 -14 94t-48.5 41.5t-94.5 17.5q-79 0 -118 -32.5t-48 -92.5l-137 34q12 89 88 148.5t217 59.5q164 0 232 -61q67 -62 67 -181v-240l-1 -61 q0 -134 41 -184h-148q-20 40 -22 89zM533 1104q-53 -14 -192 -36q-90 -14 -117 -39q-28 -26 -28 -64q0 -41 34 -70t96 -29q73 0 127 39t72 96q7 20 8 103z" />
<glyph unicode="&#xab;" d="M340 528l259 -456h-146l-319 456l319 456h148zM727 528l264 -456h-152l-313 456l313 456h152z" />
<glyph unicode="&#xac;" horiz-adv-x="1196" d="M1082 424h-170v438h-798v168h968v-606z" />
<glyph unicode="&#xae;" horiz-adv-x="1509" d="M758 1491q190 0 371 -97.5t282 -279t101 -378.5q0 -195 -99.5 -375t-279 -279.5t-375.5 -99.5t-375.5 99.5t-279.5 279.5t-100 375q0 197 101.5 378.5t282.5 279t371 97.5zM758 1366q-159 0 -309.5 -81.5t-235.5 -233t-85 -315.5q0 -163 83.5 -312.5t233.5 -233 t313 -83.5t313 83.5t233 233t83 312.5q0 164 -84.5 315.5t-235.5 233t-309 81.5zM427 319v812h279q143 0 207 -22.5t102 -78.5t38 -119q0 -89 -63.5 -155t-168.5 -74q43 -18 69 -43q49 -48 120 -161l99 -159h-160l-72 128q-85 151 -137 189q-36 28 -105 28h-77v-345h-131z M558 776h159q114 0 155.5 34t41.5 90q0 36 -20 64.5t-55.5 42.5t-131.5 14h-149v-245z" />
<glyph unicode="&#xaf;" horiz-adv-x="1131" d="M-31 1566v129h1193v-129h-1193z" />
<glyph unicode="&#xb0;" horiz-adv-x="819" d="M128 1214q0 115 81.5 196t195.5 81q116 0 197 -81t81 -196t-81.5 -196.5t-196.5 -81.5q-114 0 -195.5 81t-81.5 197zM237 1214q0 -70 49.5 -119.5t119.5 -49.5q69 0 118.5 49.5t49.5 119.5t-49.5 119.5t-118.5 49.5q-70 0 -119.5 -49.5t-49.5 -119.5z" />
<glyph unicode="&#xb1;" horiz-adv-x="1124" d="M477 260v403h-399v167h399v399h170v-399h399v-167h-399v-403h-170zM1046 0h-968v168h968v-168z" />
<glyph unicode="&#xb2;" horiz-adv-x="682" d="M25 733q6 57 47 114q63 86 207 190.5t171 134.5q37 41 37 84q0 48 -35 79t-103 31q-66 0 -98.5 -23.5t-53.5 -90.5l-151 16q29 111 100.5 163.5t205.5 52.5q151 0 221.5 -59t70.5 -144q0 -84 -59 -159q-45 -56 -205 -171q-83 -61 -118 -97h386v-121h-623z" />
<glyph unicode="&#xb3;" horiz-adv-x="682" d="M33 929l146 15q20 -60 52 -82q43 -30 102 -30q71 0 114 39t43 94q0 50 -36 80t-123 30q-12 0 -33 -2q-14 -1 -22 -1l22 110q81 -1 118.5 29t37.5 73q0 37 -30 63t-89 26q-56 0 -87.5 -22t-54.5 -80l-143 23q41 106 103.5 148t182.5 42q144 0 209.5 -53.5t65.5 -133.5 q0 -55 -35.5 -98t-102.5 -62q89 -22 131 -72.5t42 -118.5q0 -93 -79 -162t-225 -69q-140 0 -214 55.5t-95 158.5z" />
<glyph unicode="&#xb4;" horiz-adv-x="682" d="M222 1194l133 280h236l-220 -280h-149z" />
<glyph unicode="&#xb5;" horiz-adv-x="1180" d="M1018 1062v-1062h-161v126q-52 -80 -103 -110q-70 -41 -163 -41q-83 0 -147 33q-48 25 -106 99v-514h-178v1469h178v-450q0 -245 26 -317.5t84.5 -114.5t134.5 -42q80 0 143 44t89 113.5t26 313.5v453h177z" />
<glyph unicode="&#xb6;" horiz-adv-x="1100" d="M405 -407v1045q-187 10 -295.5 121.5t-108.5 284.5q0 193 120.5 307.5t352.5 114.5h633v-173h-144v-1700h-170v1700h-223v-1700h-165z" />
<glyph unicode="&#xb7;" horiz-adv-x="682" d="M238 637v205h205v-205h-205z" />
<glyph unicode="&#xb8;" horiz-adv-x="682" d="M216 -154l52 177h134l-33 -107q85 -10 128 -52.5t43 -94.5q0 -75 -72 -132.5t-217 -57.5q-82 0 -144 12l11 117q64 -4 94 -4q94 0 132 26q29 20 29 49q0 18 -11.5 32t-42.5 24t-103 11z" />
<glyph unicode="&#xb9;" horiz-adv-x="682" d="M331 733v554q-102 -81 -224 -113v123q62 20 138 73t123 114h108v-751h-145z" />
<glyph unicode="&#xba;" horiz-adv-x="748" d="M373 1491q145 0 236.5 -100t91.5 -276q0 -175 -92 -275t-235 -100q-145 0 -237 98t-92 273q0 180 91.5 280t236.5 100zM373 1358q-81 0 -130.5 -57t-49.5 -186q0 -126 50.5 -184.5t129.5 -58.5q80 0 130 58.5t50 189.5q0 122 -50.5 180t-129.5 58z" />
<glyph unicode="&#xbb;" d="M791 528l-261 456h148l319 -456l-319 -456h-147zM404 528l-264 456h151l314 -456l-314 -456h-151z" />
<glyph unicode="&#xbc;" horiz-adv-x="1708" d="M252 -57l1102 1548h156l-1101 -1548h-157zM331 733v554q-102 -81 -224 -113v123q62 20 138 73t123 114h108v-751h-145zM1430 -31v154h-383v123l405 474h122v-489h104v-108h-104v-154h-144zM1430 231v263l-230 -263h230z" />
<glyph unicode="&#xbd;" horiz-adv-x="1708" d="M228 -57l1101 1548h157l-1101 -1548h-157zM331 733v554q-102 -81 -224 -113v123q62 20 138 73t123 114h108v-751h-145zM1049 -31q6 56 48 113q62 87 206 191t171 135q37 41 37 84q0 48 -34.5 78.5t-103.5 30.5q-66 0 -98.5 -23.5t-53.5 -89.5l-151 15q29 112 101 164.5 t205 52.5q151 0 221.5 -59t70.5 -144q0 -84 -59 -159q-45 -56 -204 -172q-84 -61 -119 -96h386v-121h-623z" />
<glyph unicode="&#xbe;" horiz-adv-x="1708" d="M252 -57l1101 1548h157l-1101 -1548h-157zM33 929l146 15q20 -60 52 -82q43 -30 102 -30q71 0 114 39t43 94q0 50 -36 80t-120 30q-50 -3 -58 -3l22 110q81 -1 118.5 29t37.5 73q0 37 -30 63t-89 26q-56 0 -87.5 -22t-54.5 -80l-143 23q41 106 103.5 148t182.5 42 q144 0 209.5 -53.5t65.5 -133.5q0 -55 -35.5 -98t-102.5 -62q89 -22 131 -72.5t42 -118.5q0 -93 -79 -162t-225 -69q-140 0 -214 55.5t-95 158.5zM1429 -31v154h-382v123l404 474h123v-489h104v-108h-104v-154h-145zM1429 231v263l-229 -263h229z" />
<glyph unicode="&#xbf;" horiz-adv-x="1251" d="M733 1062v-205h-205v205h205zM721 701q1 -34 1 -51q0 -110 -30 -187q-22 -58 -71 -117q-36 -43 -129.5 -125t-121 -131t-27.5 -107q0 -106 82 -185t201 -79q114 0 191.5 72t101.5 224l184 -21q-25 -203 -148.5 -313t-325.5 -110q-216 0 -343.5 117t-127.5 283 q0 97 44.5 177t175.5 196q89 79 116 116t39.5 85t14.5 156h173z" />
<glyph unicode="&#xc0;" horiz-adv-x="1366" d="M-3 0l563 1466h209l600 -1466h-221l-171 444h-613l-161 -444h-206zM420 602h497l-153 406q-70 185 -104 304q-28 -141 -79 -280zM824 1556h-145l-231 280h241z" />
<glyph unicode="&#xc1;" horiz-adv-x="1366" d="M-3 0l563 1466h209l600 -1466h-221l-171 444h-613l-161 -444h-206zM420 602h497l-153 406q-70 185 -104 304q-28 -141 -79 -280zM541 1556l133 280h236l-220 -280h-149z" />
<glyph unicode="&#xc2;" horiz-adv-x="1366" d="M-3 0l563 1466h209l600 -1466h-221l-171 444h-613l-161 -444h-206zM420 602h497l-153 406q-70 185 -104 304q-28 -141 -79 -280zM664 1726l-113 -170h-206l216 280h192l225 -280h-204z" />
<glyph unicode="&#xc3;" horiz-adv-x="1366" d="M-3 0l563 1466h209l600 -1466h-221l-171 444h-613l-161 -444h-206zM420 602h497l-153 406q-70 185 -104 304q-28 -141 -79 -280zM349 1556q-1 104 57 166q57 62 146 62q62 0 169 -54q59 -30 94 -30q32 0 49 17.5t24 69.5h130q-3 -114 -57.5 -171t-138.5 -57 q-63 0 -166 56q-67 36 -98 36q-34 0 -55 -24q-22 -24 -21 -71h-133z" />
<glyph unicode="&#xc4;" horiz-adv-x="1366" d="M-3 0l563 1466h209l600 -1466h-221l-171 444h-613l-161 -444h-206zM420 602h497l-153 406q-70 185 -104 304q-28 -141 -79 -280zM379 1556v205h188v-205h-188zM752 1556v205h188v-205h-188z" />
<glyph unicode="&#xc5;" horiz-adv-x="1366" d="M-3 0l563 1466h209l600 -1466h-221l-171 444h-613l-161 -444h-206zM420 602h497l-153 406q-70 185 -104 304q-28 -141 -79 -280zM481 1601q0 73 53.5 126t126.5 53q74 0 127 -53.5t53 -129.5q0 -77 -53 -130t-126 -53q-75 0 -128 53.5t-53 133.5zM557 1600 q0 -47 31.5 -79t74.5 -32t74.5 32t31.5 77t-31 77t-75 32q-43 0 -74.5 -31.5t-31.5 -75.5z" />
<glyph unicode="&#xc6;" horiz-adv-x="2048" d="M1 0l705 1466h1203v-173h-737v-451h685v-172h-685v-497h764v-173h-959v423h-566l-200 -423h-210zM493 595h484v698h-145z" />
<glyph unicode="&#xc7;" horiz-adv-x="1479" d="M1204 514l194 -49q-61 -239 -219.5 -364.5t-387.5 -125.5q-237 0 -385.5 96.5t-226 279.5t-77.5 393q0 229 87.5 399.5t249 259t355.5 88.5q220 0 370 -112t209 -315l-191 -45q-51 160 -148 233t-244 73q-169 0 -282.5 -81t-159.5 -217.5t-46 -281.5q0 -187 54.5 -326.5 t169.5 -208.5t249 -69q163 0 276 94t153 279zM620 -154l52 177h134l-33 -107q85 -10 128 -52.5t43 -94.5q0 -75 -72 -132.5t-217 -57.5q-82 0 -144 12l11 117q64 -4 94 -4q94 0 132 26q29 20 29 49q0 18 -11.5 32t-42.5 24t-103 11z" />
<glyph unicode="&#xc8;" horiz-adv-x="1366" d="M162 0v1466h1060v-173h-866v-449h811v-172h-811v-499h900v-173h-1094zM850 1556h-145l-231 280h241z" />
<glyph unicode="&#xc9;" horiz-adv-x="1366" d="M162 0v1466h1060v-173h-866v-449h811v-172h-811v-499h900v-173h-1094zM562 1556l133 280h236l-220 -280h-149z" />
<glyph unicode="&#xca;" horiz-adv-x="1366" d="M162 0v1466h1060v-173h-866v-449h811v-172h-811v-499h900v-173h-1094zM707 1726l-113 -170h-206l216 280h192l225 -280h-204z" />
<glyph unicode="&#xcb;" horiz-adv-x="1366" d="M162 0v1466h1060v-173h-866v-449h811v-172h-811v-499h900v-173h-1094zM425 1556v205h188v-205h-188zM798 1556v205h188v-205h-188z" />
<glyph unicode="&#xcc;" horiz-adv-x="569" d="M191 0v1466h194v-1466h-194zM430 1556h-145l-231 280h241z" />
<glyph unicode="&#xcd;" horiz-adv-x="569" d="M191 0v1466h194v-1466h-194zM141 1556l133 280h236l-220 -280h-149z" />
<glyph unicode="&#xce;" horiz-adv-x="569" d="M191 0v1466h194v-1466h-194zM287 1726l-113 -170h-206l216 280h192l225 -280h-204z" />
<glyph unicode="&#xcf;" horiz-adv-x="569" d="M191 0v1466h194v-1466h-194zM4 1556v205h188v-205h-188zM377 1556v205h188v-205h-188z" />
<glyph unicode="&#xd0;" horiz-adv-x="1479" d="M158 0v667h-161v132h161v667h506q170 0 260 -21q126 -29 215 -105q116 -98 173.5 -250.5t57.5 -348.5q0 -224 -71 -385.5t-170 -234.5t-228 -104q-71 -17 -214 -17h-529zM352 173h313q146 0 228 27t130 75q69 69 108 185t39 283q0 172 -38.5 275t-100.5 165t-138 86 t-233 24h-308v-494h404v-132h-404v-494z" />
<glyph unicode="&#xd1;" horiz-adv-x="1479" d="M156 0v1466h199l770 -1151v1151h186v-1466h-199l-770 1152v-1152h-186zM430 1556q-1 104 57 166q57 62 146 62q62 0 169 -54q59 -30 94 -30q32 0 49 17.5t24 69.5h130q-3 -114 -57.5 -171t-138.5 -57q-63 0 -166 56q-67 36 -98 36q-34 0 -55 -24q-22 -24 -21 -71h-133z " />
<glyph unicode="&#xd2;" horiz-adv-x="1593" d="M99 714q0 365 196 571.5t506 206.5q203 0 366 -97t248.5 -270.5t85.5 -393.5q0 -223 -90 -399t-255 -266.5t-356 -90.5q-207 0 -370 100t-247 273t-84 366zM299 711q0 -265 142.5 -417.5t357.5 -152.5q219 0 360.5 154t141.5 437q0 179 -60.5 312.5t-177 207t-261.5 73.5 q-206 0 -354.5 -141.5t-148.5 -472.5zM916 1556h-145l-231 280h241z" />
<glyph unicode="&#xd3;" horiz-adv-x="1593" d="M99 714q0 365 196 571.5t506 206.5q203 0 366 -97t248.5 -270.5t85.5 -393.5q0 -223 -90 -399t-255 -266.5t-356 -90.5q-207 0 -370 100t-247 273t-84 366zM299 711q0 -265 142.5 -417.5t357.5 -152.5q219 0 360.5 154t141.5 437q0 179 -60.5 312.5t-177 207t-261.5 73.5 q-206 0 -354.5 -141.5t-148.5 -472.5zM677 1556l133 280h236l-220 -280h-149z" />
<glyph unicode="&#xd4;" horiz-adv-x="1593" d="M99 714q0 365 196 571.5t506 206.5q203 0 366 -97t248.5 -270.5t85.5 -393.5q0 -223 -90 -399t-255 -266.5t-356 -90.5q-207 0 -370 100t-247 273t-84 366zM299 711q0 -265 142.5 -417.5t357.5 -152.5q219 0 360.5 154t141.5 437q0 179 -60.5 312.5t-177 207t-261.5 73.5 q-206 0 -354.5 -141.5t-148.5 -472.5zM798 1726l-113 -170h-206l216 280h192l225 -280h-204z" />
<glyph unicode="&#xd5;" horiz-adv-x="1593" d="M99 714q0 365 196 571.5t506 206.5q203 0 366 -97t248.5 -270.5t85.5 -393.5q0 -223 -90 -399t-255 -266.5t-356 -90.5q-207 0 -370 100t-247 273t-84 366zM299 711q0 -265 142.5 -417.5t357.5 -152.5q219 0 360.5 154t141.5 437q0 179 -60.5 312.5t-177 207t-261.5 73.5 q-206 0 -354.5 -141.5t-148.5 -472.5zM466 1556q-1 104 57 166q57 62 146 62q62 0 169 -54q59 -30 94 -30q32 0 49 17.5t24 69.5h130q-3 -114 -57.5 -171t-138.5 -57q-63 0 -166 56q-67 36 -98 36q-34 0 -55 -24q-22 -24 -21 -71h-133z" />
<glyph unicode="&#xd6;" horiz-adv-x="1593" d="M99 714q0 365 196 571.5t506 206.5q203 0 366 -97t248.5 -270.5t85.5 -393.5q0 -223 -90 -399t-255 -266.5t-356 -90.5q-207 0 -370 100t-247 273t-84 366zM299 711q0 -265 142.5 -417.5t357.5 -152.5q219 0 360.5 154t141.5 437q0 179 -60.5 312.5t-177 207t-261.5 73.5 q-206 0 -354.5 -141.5t-148.5 -472.5zM516 1556v205h188v-205h-188zM889 1556v205h188v-205h-188z" />
<glyph unicode="&#xd7;" horiz-adv-x="1196" d="M161 409l315 315l-314 314l122 122l314 -314l313 313l120 -121l-312 -313l314 -314l-122 -122l-314 314l-315 -315z" />
<glyph unicode="&#xd8;" horiz-adv-x="1593" d="M1250 1332l168 188l99 -84l-176 -198q86 -128 116 -224q40 -126 40 -282q0 -225 -91 -401t-255.5 -266t-349.5 -90q-138 0 -250 39q-86 30 -201 115l-168 -188l-99 84l176 197q-98 149 -131 254.5t-33 253.5q0 226 90 402.5t252.5 267.5t361.5 91q134 0 234.5 -35.5 t216.5 -123.5zM1130 1197q-94 74 -164.5 101t-165.5 27q-219 0 -362 -148.5t-143 -443.5q0 -116 22 -206q16 -67 67 -165zM1212 1094l-743 -832q77 -63 142 -88q85 -33 184 -33q218 0 360 154t142 432q0 208 -85 367z" />
<glyph unicode="&#xd9;" horiz-adv-x="1479" d="M1120 1466h194v-847q0 -221 -50 -351t-180.5 -211.5t-342.5 -81.5q-206 0 -337 71t-187 205.5t-56 367.5v847h194v-846q0 -191 35.5 -281.5t122 -139.5t211.5 -49q214 0 305 97t91 373v846zM854 1556h-145l-231 280h241z" />
<glyph unicode="&#xda;" horiz-adv-x="1479" d="M1120 1466h194v-847q0 -221 -50 -351t-180.5 -211.5t-342.5 -81.5q-206 0 -337 71t-187 205.5t-56 367.5v847h194v-846q0 -191 35.5 -281.5t122 -139.5t211.5 -49q214 0 305 97t91 373v846zM614 1556l133 280h236l-220 -280h-149z" />
<glyph unicode="&#xdb;" horiz-adv-x="1479" d="M1120 1466h194v-847q0 -221 -50 -351t-180.5 -211.5t-342.5 -81.5q-206 0 -337 71t-187 205.5t-56 367.5v847h194v-846q0 -191 35.5 -281.5t122 -139.5t211.5 -49q214 0 305 97t91 373v846zM736 1726l-113 -170h-206l216 280h192l225 -280h-204z" />
<glyph unicode="&#xdc;" horiz-adv-x="1479" d="M1120 1466h194v-847q0 -221 -50 -351t-180.5 -211.5t-342.5 -81.5q-206 0 -337 71t-187 205.5t-56 367.5v847h194v-846q0 -191 35.5 -281.5t122 -139.5t211.5 -49q214 0 305 97t91 373v846zM454 1556v205h188v-205h-188zM827 1556v205h188v-205h-188z" />
<glyph unicode="&#xdd;" horiz-adv-x="1366" d="M571 0v621l-565 845h236l289 -442q80 -124 149 -248q66 115 160 259l284 431h226l-585 -845v-621h-194zM555 1556l133 280h236l-220 -280h-149z" />
<glyph unicode="&#xde;" horiz-adv-x="1366" d="M158 0v1466h194v-298h359q146 0 224 -14q108 -19 181 -69.5t117 -141.5t44 -200q0 -186 -119 -315.5t-430 -129.5h-376v-298h-194zM352 471h379q188 0 267 70t79 196q0 91 -46 157t-122 87q-49 14 -182 14h-375v-524z" />
<glyph unicode="&#xdf;" horiz-adv-x="1251" d="M153 0v999q0 183 44.5 281.5t148.5 154.5t234 56q173 0 272 -86.5t99 -200.5q0 -51 -18 -105t-64 -134.5t-58 -112t-12 -55.5q0 -32 22 -63q21 -32 121 -97q136 -89 181 -143q64 -77 64 -182q0 -139 -102.5 -238t-262.5 -99q-126 0 -221 67.5t-142 173.5l155 72 q50 -93 100 -129t105 -36q76 0 130 52t54 122q0 56 -32 96q-21 26 -112 88q-166 114 -205 171q-40 57 -40 117q0 39 13.5 79t65 128t67.5 132t16 78q0 62 -54.5 109.5t-145.5 47.5q-107 0 -175 -66t-68 -286v-991h-180z" />
<glyph unicode="&#xe0;" d="M828 131q-100 -85 -192.5 -120t-198.5 -35q-175 0 -269 85.5t-94 218.5q0 78 35.5 142.5t93 103.5t129.5 59q53 14 160 27q218 26 321 62q1 37 1 47q0 110 -51 155q-69 61 -205 61q-127 0 -187.5 -44.5t-89.5 -157.5l-176 24q24 113 79 182.5t159 107t241 37.5 q136 0 221 -32t125 -80.5t56 -122.5q9 -46 9 -166v-240q0 -251 11.5 -317.5t45.5 -127.5h-188q-28 56 -36 131zM813 533q-98 -40 -294 -68q-111 -16 -157 -36t-71 -58.5t-25 -85.5q0 -72 54.5 -120t159.5 -48q104 0 185 45.5t119 124.5q29 61 29 180v66zM715 1194h-145 l-231 280h241z" />
<glyph unicode="&#xe1;" d="M828 131q-100 -85 -192.5 -120t-198.5 -35q-175 0 -269 85.5t-94 218.5q0 78 35.5 142.5t93 103.5t129.5 59q53 14 160 27q218 26 321 62q1 37 1 47q0 110 -51 155q-69 61 -205 61q-127 0 -187.5 -44.5t-89.5 -157.5l-176 24q24 113 79 182.5t159 107t241 37.5 q136 0 221 -32t125 -80.5t56 -122.5q9 -46 9 -166v-240q0 -251 11.5 -317.5t45.5 -127.5h-188q-28 56 -36 131zM813 533q-98 -40 -294 -68q-111 -16 -157 -36t-71 -58.5t-25 -85.5q0 -72 54.5 -120t159.5 -48q104 0 185 45.5t119 124.5q29 61 29 180v66zM463 1194l133 280 h236l-220 -280h-149z" />
<glyph unicode="&#xe2;" d="M828 131q-100 -85 -192.5 -120t-198.5 -35q-175 0 -269 85.5t-94 218.5q0 78 35.5 142.5t93 103.5t129.5 59q53 14 160 27q218 26 321 62q1 37 1 47q0 110 -51 155q-69 61 -205 61q-127 0 -187.5 -44.5t-89.5 -157.5l-176 24q24 113 79 182.5t159 107t241 37.5 q136 0 221 -32t125 -80.5t56 -122.5q9 -46 9 -166v-240q0 -251 11.5 -317.5t45.5 -127.5h-188q-28 56 -36 131zM813 533q-98 -40 -294 -68q-111 -16 -157 -36t-71 -58.5t-25 -85.5q0 -72 54.5 -120t159.5 -48q104 0 185 45.5t119 124.5q29 61 29 180v66zM566 1364l-113 -170 h-206l216 280h192l225 -280h-204z" />
<glyph unicode="&#xe3;" d="M828 131q-100 -85 -192.5 -120t-198.5 -35q-175 0 -269 85.5t-94 218.5q0 78 35.5 142.5t93 103.5t129.5 59q53 14 160 27q218 26 321 62q1 37 1 47q0 110 -51 155q-69 61 -205 61q-127 0 -187.5 -44.5t-89.5 -157.5l-176 24q24 113 79 182.5t159 107t241 37.5 q136 0 221 -32t125 -80.5t56 -122.5q9 -46 9 -166v-240q0 -251 11.5 -317.5t45.5 -127.5h-188q-28 56 -36 131zM813 533q-98 -40 -294 -68q-111 -16 -157 -36t-71 -58.5t-25 -85.5q0 -72 54.5 -120t159.5 -48q104 0 185 45.5t119 124.5q29 61 29 180v66zM229 1219 q-1 104 57 166q57 62 146 62q62 0 169 -54q59 -30 94 -30q32 0 49 17.5t24 69.5h130q-3 -114 -57.5 -171t-138.5 -57q-63 0 -166 56q-67 36 -98 36q-34 0 -55 -24q-22 -24 -21 -71h-133z" />
<glyph unicode="&#xe4;" d="M828 131q-100 -85 -192.5 -120t-198.5 -35q-175 0 -269 85.5t-94 218.5q0 78 35.5 142.5t93 103.5t129.5 59q53 14 160 27q218 26 321 62q1 37 1 47q0 110 -51 155q-69 61 -205 61q-127 0 -187.5 -44.5t-89.5 -157.5l-176 24q24 113 79 182.5t159 107t241 37.5 q136 0 221 -32t125 -80.5t56 -122.5q9 -46 9 -166v-240q0 -251 11.5 -317.5t45.5 -127.5h-188q-28 56 -36 131zM813 533q-98 -40 -294 -68q-111 -16 -157 -36t-71 -58.5t-25 -85.5q0 -72 54.5 -120t159.5 -48q104 0 185 45.5t119 124.5q29 61 29 180v66zM283 1270v205h188 v-205h-188zM656 1270v205h188v-205h-188z" />
<glyph unicode="&#xe5;" d="M828 131q-100 -85 -192.5 -120t-198.5 -35q-175 0 -269 85.5t-94 218.5q0 78 35.5 142.5t93 103.5t129.5 59q53 14 160 27q218 26 321 62q1 37 1 47q0 110 -51 155q-69 61 -205 61q-127 0 -187.5 -44.5t-89.5 -157.5l-176 24q24 113 79 182.5t159 107t241 37.5 q136 0 221 -32t125 -80.5t56 -122.5q9 -46 9 -166v-240q0 -251 11.5 -317.5t45.5 -127.5h-188q-28 56 -36 131zM813 533q-98 -40 -294 -68q-111 -16 -157 -36t-71 -58.5t-25 -85.5q0 -72 54.5 -120t159.5 -48q104 0 185 45.5t119 124.5q29 61 29 180v66zM383 1338 q0 73 53.5 126t126.5 53q74 0 127 -53.5t53 -129.5q0 -77 -53 -130t-126 -53q-75 0 -128 53.5t-53 133.5zM459 1337q0 -47 31.5 -79t74.5 -32t74.5 32t31.5 77t-31 77t-75 32q-43 0 -74.5 -31.5t-31.5 -75.5z" />
<glyph unicode="&#xe6;" horiz-adv-x="1821" d="M1734 325q-50 -167 -170 -258t-298 -91q-127 0 -222.5 48t-172.5 150q-104 -102 -210.5 -150t-229.5 -48q-172 0 -267.5 88.5t-95.5 215.5q0 86 49.5 161.5t138 114.5t282.5 64q150 20 252 49q1 25 1 41q0 126 -52.5 176.5t-183.5 50.5q-87 0 -147 -21t-88.5 -59.5 t-47.5 -123.5l-175 21q28 117 80.5 185.5t150.5 107.5t229 39q167 0 269 -50q59 -29 99 -93q64 70 145 106.5t196 36.5q162 0 268 -78.5t155 -207.5t49 -254q0 -19 -2 -61h-767q2 -144 35.5 -209t107 -108.5t161.5 -43.5q103 0 174.5 59t98.5 166zM969 633h584 q-14 158 -90 231t-198 73q-126 0 -206.5 -80t-89.5 -224zM793 533q-79 -34 -322 -73q-109 -17 -153 -51q-59 -47 -59 -123q0 -71 53 -119.5t154 -48.5q115 0 200.5 57t111.5 142q15 52 15 216z" />
<glyph unicode="&#xe7;" horiz-adv-x="1024" d="M828 389l177 -23q-29 -183 -148.5 -286.5t-293.5 -103.5q-218 0 -350.5 142.5t-132.5 408.5q0 172 57 301t173.5 193.5t253.5 64.5q173 0 283 -87.5t141 -248.5l-175 -27q-25 107 -88.5 161t-153.5 54q-136 0 -221 -97.5t-85 -308.5q0 -214 82 -311t214 -97q106 0 177 65 t90 200zM411 -134l52 177h134l-33 -107q85 -10 128 -52.5t43 -94.5q0 -75 -72 -132.5t-217 -57.5q-82 0 -144 12l11 117q64 -4 94 -4q94 0 132 26q29 20 29 49q0 18 -11.5 32t-42.5 24t-103 11z" />
<glyph unicode="&#xe8;" d="M862 342l186 -23q-44 -163 -163 -253t-304 -90q-233 0 -369.5 143.5t-136.5 402.5q0 268 138 416t358 148q213 0 348 -145t135 -408q0 -16 -1 -48h-792q10 -175 99 -268t222 -93q99 0 169 52t111 166zM271 633h593q-12 134 -68 201q-86 104 -223 104q-124 0 -208.5 -83 t-93.5 -222zM686 1194h-145l-231 280h241z" />
<glyph unicode="&#xe9;" d="M862 342l186 -23q-44 -163 -163 -253t-304 -90q-233 0 -369.5 143.5t-136.5 402.5q0 268 138 416t358 148q213 0 348 -145t135 -408q0 -16 -1 -48h-792q10 -175 99 -268t222 -93q99 0 169 52t111 166zM271 633h593q-12 134 -68 201q-86 104 -223 104q-124 0 -208.5 -83 t-93.5 -222zM465 1194l133 280h236l-220 -280h-149z" />
<glyph unicode="&#xea;" d="M862 342l186 -23q-44 -163 -163 -253t-304 -90q-233 0 -369.5 143.5t-136.5 402.5q0 268 138 416t358 148q213 0 348 -145t135 -408q0 -16 -1 -48h-792q10 -175 99 -268t222 -93q99 0 169 52t111 166zM271 633h593q-12 134 -68 201q-86 104 -223 104q-124 0 -208.5 -83 t-93.5 -222zM567 1364l-113 -170h-206l216 280h192l225 -280h-204z" />
<glyph unicode="&#xeb;" d="M862 342l186 -23q-44 -163 -163 -253t-304 -90q-233 0 -369.5 143.5t-136.5 402.5q0 268 138 416t358 148q213 0 348 -145t135 -408q0 -16 -1 -48h-792q10 -175 99 -268t222 -93q99 0 169 52t111 166zM271 633h593q-12 134 -68 201q-86 104 -223 104q-124 0 -208.5 -83 t-93.5 -222zM284 1270v205h188v-205h-188zM657 1270v205h188v-205h-188z" />
<glyph unicode="&#xec;" horiz-adv-x="569" d="M198 0v1062h180v-1062h-180zM411 1194h-145l-231 280h241z" />
<glyph unicode="&#xed;" horiz-adv-x="569" d="M198 0v1062h180v-1062h-180zM189 1194l133 280h236l-220 -280h-149z" />
<glyph unicode="&#xee;" horiz-adv-x="569" d="M198 0v1062h180v-1062h-180zM302 1364l-113 -170h-206l216 280h192l225 -280h-204z" />
<glyph unicode="&#xef;" horiz-adv-x="569" d="M198 0v1062h180v-1062h-180zM9 1270v205h188v-205h-188zM382 1270v205h188v-205h-188z" />
<glyph unicode="&#xf0;" d="M308 1466h217q72 -54 125 -102l214 102l45 -102l-172 -83q320 -368 320 -760q0 -253 -139 -399.5t-354 -146.5q-255 0 -398 194q-93 127 -93 348q0 261 129 403t323 142q58 0 102 -12t110 -47q-36 73 -63 113.5t-79 99.5l-275 -127l-44 103l239 109q-97 90 -207 165z M870 529q0 192 -90.5 293.5t-222.5 101.5q-130 0 -215 -101.5t-85 -310.5q0 -194 87.5 -292t218.5 -98q128 0 217.5 103.5t89.5 303.5z" />
<glyph unicode="&#xf1;" d="M135 0v1062h162v-151q117 175 338 175q96 0 176.5 -34.5t120.5 -90.5t56 -133q10 -50 10 -175v-653h-180v646q0 110 -21 164.5t-74.5 87t-125.5 32.5q-115 0 -198.5 -73t-83.5 -277v-580h-180zM262 1219q-1 104 57 166q57 62 146 62q62 0 169 -54q59 -30 94 -30 q32 0 49 17.5t24 69.5h130q-3 -114 -57.5 -171t-138.5 -57q-63 0 -166 56q-67 36 -98 36q-34 0 -55 -24q-22 -24 -21 -71h-133z" />
<glyph unicode="&#xf2;" d="M68 531q0 295 164 437q137 118 334 118q219 0 358 -143.5t139 -396.5q0 -205 -61.5 -322.5t-179 -182.5t-256.5 -65q-223 0 -360.5 143t-137.5 412zM253 531q0 -204 89 -305.5t224 -101.5q134 0 223 102t89 311q0 197 -89.5 298.5t-222.5 101.5q-135 0 -224 -101 t-89 -305zM687 1194h-145l-231 280h241z" />
<glyph unicode="&#xf3;" d="M68 531q0 295 164 437q137 118 334 118q219 0 358 -143.5t139 -396.5q0 -205 -61.5 -322.5t-179 -182.5t-256.5 -65q-223 0 -360.5 143t-137.5 412zM253 531q0 -204 89 -305.5t224 -101.5q134 0 223 102t89 311q0 197 -89.5 298.5t-222.5 101.5q-135 0 -224 -101 t-89 -305zM466 1194l133 280h236l-220 -280h-149z" />
<glyph unicode="&#xf4;" d="M68 531q0 295 164 437q137 118 334 118q219 0 358 -143.5t139 -396.5q0 -205 -61.5 -322.5t-179 -182.5t-256.5 -65q-223 0 -360.5 143t-137.5 412zM253 531q0 -204 89 -305.5t224 -101.5q134 0 223 102t89 311q0 197 -89.5 298.5t-222.5 101.5q-135 0 -224 -101 t-89 -305zM568 1364l-113 -170h-206l216 280h192l225 -280h-204z" />
<glyph unicode="&#xf5;" d="M68 531q0 295 164 437q137 118 334 118q219 0 358 -143.5t139 -396.5q0 -205 -61.5 -322.5t-179 -182.5t-256.5 -65q-223 0 -360.5 143t-137.5 412zM253 531q0 -204 89 -305.5t224 -101.5q134 0 223 102t89 311q0 197 -89.5 298.5t-222.5 101.5q-135 0 -224 -101 t-89 -305zM231 1219q-1 104 57 166q57 62 146 62q62 0 169 -54q59 -30 94 -30q32 0 49 17.5t24 69.5h130q-3 -114 -57.5 -171t-138.5 -57q-63 0 -166 56q-67 36 -98 36q-34 0 -55 -24q-22 -24 -21 -71h-133z" />
<glyph unicode="&#xf6;" d="M68 531q0 295 164 437q137 118 334 118q219 0 358 -143.5t139 -396.5q0 -205 -61.5 -322.5t-179 -182.5t-256.5 -65q-223 0 -360.5 143t-137.5 412zM253 531q0 -204 89 -305.5t224 -101.5q134 0 223 102t89 311q0 197 -89.5 298.5t-222.5 101.5q-135 0 -224 -101 t-89 -305zM285 1270v205h188v-205h-188zM658 1270v205h188v-205h-188z" />
<glyph unicode="&#xf7;" horiz-adv-x="1124" d="M459 922v205h205v-205h-205zM1046 639h-968v168h968v-168zM459 319v205h205v-205h-205z" />
<glyph unicode="&#xf8;" horiz-adv-x="1251" d="M919 999l99 128l96 -70l-107 -138q63 -86 86 -156q31 -100 31 -233q0 -300 -169 -441q-137 -113 -330 -113q-159 0 -281 80l-105 -135l-94 71l108 141q-59 68 -84 136q-40 109 -40 247q0 301 147 435.5t345 134.5q82 0 151 -21t147 -66zM818 867q-91 70 -191 70 q-133 0 -223 -102t-90 -304q0 -150 52 -251zM893 770l-449 -583q78 -63 176 -63q139 0 229.5 102t90.5 306q0 76 -12 133q-8 42 -35 105z" />
<glyph unicode="&#xf9;" d="M831 0v156q-124 -180 -337 -180q-94 0 -175.5 36t-121 90.5t-55.5 133.5q-11 53 -11 168v658h180v-589q0 -141 11 -190q17 -71 72 -111.5t136 -40.5t152 41.5t100.5 113t29.5 207.5v569h180v-1062h-161zM728 1194h-145l-231 280h241z" />
<glyph unicode="&#xfa;" d="M831 0v156q-124 -180 -337 -180q-94 0 -175.5 36t-121 90.5t-55.5 133.5q-11 53 -11 168v658h180v-589q0 -141 11 -190q17 -71 72 -111.5t136 -40.5t152 41.5t100.5 113t29.5 207.5v569h180v-1062h-161zM453 1194l133 280h236l-220 -280h-149z" />
<glyph unicode="&#xfb;" d="M831 0v156q-124 -180 -337 -180q-94 0 -175.5 36t-121 90.5t-55.5 133.5q-11 53 -11 168v658h180v-589q0 -141 11 -190q17 -71 72 -111.5t136 -40.5t152 41.5t100.5 113t29.5 207.5v569h180v-1062h-161zM564 1364l-113 -170h-206l216 280h192l225 -280h-204z" />
<glyph unicode="&#xfc;" d="M831 0v156q-124 -180 -337 -180q-94 0 -175.5 36t-121 90.5t-55.5 133.5q-11 53 -11 168v658h180v-589q0 -141 11 -190q17 -71 72 -111.5t136 -40.5t152 41.5t100.5 113t29.5 207.5v569h180v-1062h-161zM281 1270v205h188v-205h-188zM654 1270v205h188v-205h-188z" />
<glyph unicode="&#xfd;" horiz-adv-x="1024" d="M127 -409l-20 169q59 -16 103 -16q60 0 96 20t59 56q17 27 55 134q5 15 16 44l-403 1064h194l221 -615q43 -117 77 -246q31 124 74 242l227 619h180l-404 -1080q-65 -175 -101 -241q-48 -89 -110 -130.5t-148 -41.5q-52 0 -116 22zM420 1194l133 280h236l-220 -280h-149z " />
<glyph unicode="&#xfe;" d="M135 -407v1873h180v-516q73 77 128 102q72 34 164 34q136 0 240 -70t157 -197.5t53 -279.5q0 -164 -58.5 -294t-170 -199.5t-233.5 -69.5q-83 0 -154 33q-54 26 -126 101v-517h-180zM298 525q0 -205 83 -303t201 -98q120 0 205.5 101.5t85.5 314.5q0 203 -83.5 304 t-199.5 101q-115 0 -203.5 -107.5t-88.5 -312.5z" />
<glyph unicode="&#xff;" horiz-adv-x="1024" d="M127 -409l-20 169q59 -16 103 -16q60 0 96 20t59 56q17 27 55 134q5 15 16 44l-403 1064h194l221 -615q43 -117 77 -246q31 124 74 242l227 619h180l-404 -1080q-65 -175 -101 -241q-48 -89 -110 -130.5t-148 -41.5q-52 0 -116 22zM243 1270v205h188v-205h-188zM616 1270 v205h188v-205h-188z" />
<glyph unicode="&#x100;" horiz-adv-x="1366" d="M-3 0l563 1466h209l600 -1466h-221l-171 444h-613l-161 -444h-206zM420 602h497l-153 406q-70 185 -104 304q-28 -141 -79 -280zM359 1578v148h624v-148h-624z" />
<glyph unicode="&#x101;" d="M828 131q-100 -85 -192.5 -120t-198.5 -35q-175 0 -269 85.5t-94 218.5q0 78 35.5 142.5t93 103.5t129.5 59q53 14 160 27q218 26 321 62q1 37 1 47q0 110 -51 155q-69 61 -205 61q-127 0 -187.5 -44.5t-89.5 -157.5l-176 24q24 113 79 182.5t159 107t241 37.5 q136 0 221 -32t125 -80.5t56 -122.5q9 -46 9 -166v-240q0 -251 11.5 -317.5t45.5 -127.5h-188q-28 56 -36 131zM813 533q-98 -40 -294 -68q-111 -16 -157 -36t-71 -58.5t-25 -85.5q0 -72 54.5 -120t159.5 -48q104 0 185 45.5t119 124.5q29 61 29 180v66zM274 1227v148h624 v-148h-624z" />
<glyph unicode="&#x102;" horiz-adv-x="1366" d="M-3 0l563 1466h209l600 -1466h-221l-171 444h-613l-161 -444h-206zM420 602h497l-153 406q-70 185 -104 304q-28 -141 -79 -280zM852 1815h123q-15 -125 -91.5 -192t-203.5 -67q-128 0 -204.5 66.5t-91.5 192.5h123q14 -68 55.5 -101.5t111.5 -33.5q81 0 122.5 32.5 t55.5 102.5z" />
<glyph unicode="&#x103;" d="M828 131q-100 -85 -192.5 -120t-198.5 -35q-175 0 -269 85.5t-94 218.5q0 78 35.5 142.5t93 103.5t129.5 59q53 14 160 27q218 26 321 62q1 37 1 47q0 110 -51 155q-69 61 -205 61q-127 0 -187.5 -44.5t-89.5 -157.5l-176 24q24 113 79 182.5t159 107t241 37.5 q136 0 221 -32t125 -80.5t56 -122.5q9 -46 9 -166v-240q0 -251 11.5 -317.5t45.5 -127.5h-188q-28 56 -36 131zM813 533q-98 -40 -294 -68q-111 -16 -157 -36t-71 -58.5t-25 -85.5q0 -72 54.5 -120t159.5 -48q104 0 185 45.5t119 124.5q29 61 29 180v66zM759 1464h123 q-15 -125 -91.5 -192t-203.5 -67q-128 0 -204.5 66.5t-91.5 192.5h123q14 -68 55.5 -101.5t111.5 -33.5q81 0 122.5 32.5t55.5 102.5z" />
<glyph unicode="&#x104;" horiz-adv-x="1366" d="M-3 0l563 1466h209l600 -1466h-221l-171 444h-613l-161 -444h-206zM420 602h497l-153 406q-70 185 -104 304q-28 -141 -79 -280zM1305 0q-57 -35 -88.5 -86.5t-31.5 -104.5q0 -42 23 -71t75 -29q23 0 47 6.5t44 17.5v-128q-73 -35 -136 -35q-51 0 -89 14.5t-63.5 40 t-38 58.5t-12.5 71q0 64 36 128.5t102 117.5h132z" />
<glyph unicode="&#x105;" d="M828 131q-100 -85 -192.5 -120t-198.5 -35q-175 0 -269 85.5t-94 218.5q0 78 35.5 142.5t93 103.5t129.5 59q53 14 160 27q218 26 321 62q1 37 1 47q0 110 -51 155q-69 61 -205 61q-127 0 -187.5 -44.5t-89.5 -157.5l-176 24q24 113 79 182.5t159 107t241 37.5 q136 0 221 -32t125 -80.5t56 -122.5q9 -46 9 -166v-240q0 -251 11.5 -317.5t45.5 -127.5h-188q-28 56 -36 131zM813 533q-98 -40 -294 -68q-111 -16 -157 -36t-71 -58.5t-25 -85.5q0 -72 54.5 -120t159.5 -48q104 0 185 45.5t119 124.5q29 61 29 180v66zM1015 0 q-57 -35 -88.5 -86.5t-31.5 -104.5q0 -42 23 -71t75 -29q23 0 47 6.5t44 17.5v-128q-73 -35 -136 -35q-51 0 -89 14.5t-63.5 40t-38 58.5t-12.5 71q0 64 36 128.5t102 117.5h132z" />
<glyph unicode="&#x106;" horiz-adv-x="1479" d="M1204 514l194 -49q-61 -239 -219.5 -364.5t-387.5 -125.5q-237 0 -385.5 96.5t-226 279.5t-77.5 393q0 229 87.5 399.5t249 259t355.5 88.5q220 0 370 -112t209 -315l-191 -45q-51 160 -148 233t-244 73q-169 0 -282.5 -81t-159.5 -217.5t-46 -281.5q0 -187 54.5 -326.5 t169.5 -208.5t249 -69q163 0 276 94t153 279zM663 1556l133 280h236l-220 -280h-149z" />
<glyph unicode="&#x107;" horiz-adv-x="1024" d="M828 389l177 -23q-29 -183 -148.5 -286.5t-293.5 -103.5q-218 0 -350.5 142.5t-132.5 408.5q0 172 57 301t173.5 193.5t253.5 64.5q173 0 283 -87.5t141 -248.5l-175 -27q-25 107 -88.5 161t-153.5 54q-136 0 -221 -97.5t-85 -308.5q0 -214 82 -311t214 -97q106 0 177 65 t90 200zM424 1194l133 280h236l-220 -280h-149z" />
<glyph unicode="&#x108;" horiz-adv-x="1479" d="M1204 514l194 -49q-61 -239 -219.5 -364.5t-387.5 -125.5q-237 0 -385.5 96.5t-226 279.5t-77.5 393q0 229 87.5 399.5t249 259t355.5 88.5q220 0 370 -112t209 -315l-191 -45q-51 160 -148 233t-244 73q-169 0 -282.5 -81t-159.5 -217.5t-46 -281.5q0 -187 54.5 -326.5 t169.5 -208.5t249 -69q163 0 276 94t153 279zM776 1720l-113 -170h-206l216 280h192l225 -280h-204z" />
<glyph unicode="&#x109;" horiz-adv-x="1024" d="M828 389l177 -23q-29 -183 -148.5 -286.5t-293.5 -103.5q-218 0 -350.5 142.5t-132.5 408.5q0 172 57 301t173.5 193.5t253.5 64.5q173 0 283 -87.5t141 -248.5l-175 -27q-25 107 -88.5 161t-153.5 54q-136 0 -221 -97.5t-85 -308.5q0 -214 82 -311t214 -97q106 0 177 65 t90 200zM594 1364l-113 -170h-206l216 280h192l225 -280h-204z" />
<glyph unicode="&#x10a;" horiz-adv-x="1479" d="M1204 514l194 -49q-61 -239 -219.5 -364.5t-387.5 -125.5q-237 0 -385.5 96.5t-226 279.5t-77.5 393q0 229 87.5 399.5t249 259t355.5 88.5q220 0 370 -112t209 -315l-191 -45q-51 160 -148 233t-244 73q-169 0 -282.5 -81t-159.5 -217.5t-46 -281.5q0 -187 54.5 -326.5 t169.5 -208.5t249 -69q163 0 276 94t153 279zM661 1594v224h223v-224h-223z" />
<glyph unicode="&#x10b;" horiz-adv-x="1024" d="M828 389l177 -23q-29 -183 -148.5 -286.5t-293.5 -103.5q-218 0 -350.5 142.5t-132.5 408.5q0 172 57 301t173.5 193.5t253.5 64.5q173 0 283 -87.5t141 -248.5l-175 -27q-25 107 -88.5 161t-153.5 54q-136 0 -221 -97.5t-85 -308.5q0 -214 82 -311t214 -97q106 0 177 65 t90 200zM469 1194v224h223v-224h-223z" />
<glyph unicode="&#x10c;" horiz-adv-x="1479" d="M1204 514l194 -49q-61 -239 -219.5 -364.5t-387.5 -125.5q-237 0 -385.5 96.5t-226 279.5t-77.5 393q0 229 87.5 399.5t249 259t355.5 88.5q220 0 370 -112t209 -315l-191 -45q-51 160 -148 233t-244 73q-169 0 -282.5 -81t-159.5 -217.5t-46 -281.5q0 -187 54.5 -326.5 t169.5 -208.5t249 -69q163 0 276 94t153 279zM791 1660l110 170h204l-225 -280h-192l-216 280h206z" />
<glyph unicode="&#x10d;" horiz-adv-x="1024" d="M828 389l177 -23q-29 -183 -148.5 -286.5t-293.5 -103.5q-218 0 -350.5 142.5t-132.5 408.5q0 172 57 301t173.5 193.5t253.5 64.5q173 0 283 -87.5t141 -248.5l-175 -27q-25 107 -88.5 161t-153.5 54q-136 0 -221 -97.5t-85 -308.5q0 -214 82 -311t214 -97q106 0 177 65 t90 200zM561 1304l110 170h204l-225 -280h-192l-216 280h206z" />
<glyph unicode="&#x10e;" horiz-adv-x="1479" d="M158 0v1466h505q171 0 261 -21q126 -29 215 -105q116 -98 173.5 -250.5t57.5 -348.5q0 -167 -39 -296t-100 -213.5t-133.5 -133t-175 -73.5t-235.5 -25h-529zM352 173h313q145 0 227.5 27t131.5 76q69 69 107.5 185.5t38.5 282.5q0 230 -75.5 353.5t-183.5 165.5 q-78 30 -251 30h-308v-1120zM600 1660l110 170h204l-225 -280h-192l-216 280h206z" />
<glyph unicode="&#x10f;" horiz-adv-x="1259" d="M1078 1281v185h184v-185q0 -101 -36 -163.5t-114 -96.5l-45 68q51 23 75.5 66.5t26.5 125.5h-91zM825 0v134q-101 -158 -297 -158q-127 0 -233.5 70t-165 195.5t-58.5 288.5q0 159 53 288.5t159 198.5t237 69q96 0 171 -40.5t122 -105.5v526h179v-1466h-167zM256 530 q0 -204 86 -305t203 -101q118 0 200.5 96.5t82.5 294.5q0 218 -84 320t-207 102q-120 0 -200.5 -98t-80.5 -309z" />
<glyph unicode="&#x110;" horiz-adv-x="1479" d="M158 0v667h-161v132h161v667h506q170 0 260 -21q126 -29 215 -105q116 -98 173.5 -250.5t57.5 -348.5q0 -224 -71 -385.5t-170 -234.5t-228 -104q-71 -17 -214 -17h-529zM352 173h313q146 0 228 27t130 75q69 69 108 185t39 283q0 172 -38.5 275t-100.5 165t-138 86 t-233 24h-308v-494h404v-132h-404v-494z" />
<glyph unicode="&#x111;" d="M812 1219h-346v132h346v115h179v-115h145v-132h-145v-1219h-167v134q-101 -158 -297 -158q-127 0 -233.5 70t-165 195.5t-58.5 288.5q0 159 53 288.5t159 198.5t237 69q96 0 171 -40.5t122 -105.5v279zM255 530q0 -204 86 -305t203 -101q118 0 200.5 96.5t82.5 294.5 q0 218 -84 320t-207 102q-120 0 -200.5 -98t-80.5 -309z" />
<glyph unicode="&#x112;" horiz-adv-x="1366" d="M162 0v1466h1060v-173h-866v-449h811v-172h-811v-499h900v-173h-1094zM414 1589v148h624v-148h-624z" />
<glyph unicode="&#x113;" d="M862 342l186 -23q-44 -163 -163 -253t-304 -90q-233 0 -369.5 143.5t-136.5 402.5q0 268 138 416t358 148q213 0 348 -145t135 -408q0 -16 -1 -48h-792q10 -175 99 -268t222 -93q99 0 169 52t111 166zM271 633h593q-12 134 -68 201q-86 104 -223 104q-124 0 -208.5 -83 t-93.5 -222zM253 1227v148h624v-148h-624z" />
<glyph unicode="&#x114;" horiz-adv-x="1366" d="M162 0v1466h1060v-173h-866v-449h811v-172h-811v-499h900v-173h-1094zM877 1826h123q-15 -125 -91.5 -192t-203.5 -67q-128 0 -204.5 66.5t-91.5 192.5h123q14 -68 55.5 -101.5t111.5 -33.5q81 0 122.5 32.5t55.5 102.5z" />
<glyph unicode="&#x115;" d="M862 342l186 -23q-44 -163 -163 -253t-304 -90q-233 0 -369.5 143.5t-136.5 402.5q0 268 138 416t358 148q213 0 348 -145t135 -408q0 -16 -1 -48h-792q10 -175 99 -268t222 -93q99 0 169 52t111 166zM271 633h593q-12 134 -68 201q-86 104 -223 104q-124 0 -208.5 -83 t-93.5 -222zM758 1464h123q-15 -125 -91.5 -192t-203.5 -67q-128 0 -204.5 66.5t-91.5 192.5h123q14 -68 55.5 -101.5t111.5 -33.5q81 0 122.5 32.5t55.5 102.5z" />
<glyph unicode="&#x116;" horiz-adv-x="1366" d="M162 0v1466h1060v-173h-866v-449h811v-172h-811v-499h900v-173h-1094zM614 1556v224h223v-224h-223z" />
<glyph unicode="&#x117;" d="M862 342l186 -23q-44 -163 -163 -253t-304 -90q-233 0 -369.5 143.5t-136.5 402.5q0 268 138 416t358 148q213 0 348 -145t135 -408q0 -16 -1 -48h-792q10 -175 99 -268t222 -93q99 0 169 52t111 166zM271 633h593q-12 134 -68 201q-86 104 -223 104q-124 0 -208.5 -83 t-93.5 -222zM479 1194v224h223v-224h-223z" />
<glyph unicode="&#x118;" horiz-adv-x="1366" d="M162 0v1466h1060v-173h-866v-449h811v-172h-811v-499h900v-173h-1094zM1187 0q-57 -35 -88.5 -86.5t-31.5 -104.5q0 -42 23 -71t75 -29q23 0 47 6.5t44 17.5v-128q-73 -35 -136 -35q-51 0 -89 14.5t-63.5 40t-38 58.5t-12.5 71q0 64 36 128.5t102 117.5h132z" />
<glyph unicode="&#x119;" d="M862 342l186 -23q-44 -163 -163 -253t-304 -90q-233 0 -369.5 143.5t-136.5 402.5q0 268 138 416t358 148q213 0 348 -145t135 -408q0 -16 -1 -48h-792q10 -175 99 -268t222 -93q99 0 169 52t111 166zM271 633h593q-12 134 -68 201q-86 104 -223 104q-124 0 -208.5 -83 t-93.5 -222zM735 0q-57 -35 -88.5 -86.5t-31.5 -104.5q0 -42 23 -71t75 -29q23 0 47 6.5t44 17.5v-128q-73 -35 -136 -35q-51 0 -89 14.5t-63.5 40t-38 58.5t-12.5 71q0 64 36 128.5t102 117.5h132z" />
<glyph unicode="&#x11a;" horiz-adv-x="1366" d="M162 0v1466h1060v-173h-866v-449h811v-172h-811v-499h900v-173h-1094zM666 1660l110 170h204l-225 -280h-192l-216 280h206z" />
<glyph unicode="&#x11b;" d="M862 342l186 -23q-44 -163 -163 -253t-304 -90q-233 0 -369.5 143.5t-136.5 402.5q0 268 138 416t358 148q213 0 348 -145t135 -408q0 -16 -1 -48h-792q10 -175 99 -268t222 -93q99 0 169 52t111 166zM271 633h593q-12 134 -68 201q-86 104 -223 104q-124 0 -208.5 -83 t-93.5 -222zM583 1304l110 170h204l-225 -280h-192l-216 280h206z" />
<glyph unicode="&#x11c;" horiz-adv-x="1593" d="M844 575v172l621 1v-544q-143 -114 -295 -171.5t-312 -57.5q-216 0 -392.5 92.5t-266.5 267.5t-90 391q0 214 89.5 399.5t257.5 275.5t387 90q159 0 287.5 -51.5t201.5 -143.5t111 -240l-175 -48q-33 112 -82 176t-140 102.5t-202 38.5q-133 0 -230 -40.5t-156.5 -106.5 t-92.5 -145q-56 -136 -56 -295q0 -196 67.5 -328t196.5 -196t274 -64q126 0 246 48.5t182 103.5v273h-431zM870 1715l-113 -170h-206l216 280h192l225 -280h-204z" />
<glyph unicode="&#x11d;" d="M102 -88l175 -26q11 -81 61 -118q67 -50 183 -50q125 0 193 50t92 140q14 55 13 231q-118 -139 -294 -139q-219 0 -339 158t-120 379q0 152 55 280.5t159.5 198.5t245.5 70q188 0 310 -152v128h166v-918q0 -248 -50.5 -351.5t-160 -163.5t-269.5 -60q-190 0 -307 85.5 t-113 257.5zM251 550q0 -209 83 -305t208 -96q124 0 208 95.5t84 299.5q0 195 -86.5 294t-208.5 99q-120 0 -204 -97.5t-84 -289.5zM544 1364l-113 -170h-206l216 280h192l225 -280h-204z" />
<glyph unicode="&#x11e;" horiz-adv-x="1593" d="M844 575v172l621 1v-544q-143 -114 -295 -171.5t-312 -57.5q-216 0 -392.5 92.5t-266.5 267.5t-90 391q0 214 89.5 399.5t257.5 275.5t387 90q159 0 287.5 -51.5t201.5 -143.5t111 -240l-175 -48q-33 112 -82 176t-140 102.5t-202 38.5q-133 0 -230 -40.5t-156.5 -106.5 t-92.5 -145q-56 -136 -56 -295q0 -196 67.5 -328t196.5 -196t274 -64q126 0 246 48.5t182 103.5v273h-431zM1040 1815h123q-15 -125 -91.5 -192t-203.5 -67q-128 0 -204.5 66.5t-91.5 192.5h123q14 -68 55.5 -101.5t111.5 -33.5q81 0 122.5 32.5t55.5 102.5z" />
<glyph unicode="&#x11f;" d="M102 -88l175 -26q11 -81 61 -118q67 -50 183 -50q125 0 193 50t92 140q14 55 13 231q-118 -139 -294 -139q-219 0 -339 158t-120 379q0 152 55 280.5t159.5 198.5t245.5 70q188 0 310 -152v128h166v-918q0 -248 -50.5 -351.5t-160 -163.5t-269.5 -60q-190 0 -307 85.5 t-113 257.5zM251 550q0 -209 83 -305t208 -96q124 0 208 95.5t84 299.5q0 195 -86.5 294t-208.5 99q-120 0 -204 -97.5t-84 -289.5zM742 1464h123q-15 -125 -91.5 -192t-203.5 -67q-128 0 -204.5 66.5t-91.5 192.5h123q14 -68 55.5 -101.5t111.5 -33.5q81 0 122.5 32.5 t55.5 102.5z" />
<glyph unicode="&#x120;" horiz-adv-x="1593" d="M844 575v172l621 1v-544q-143 -114 -295 -171.5t-312 -57.5q-216 0 -392.5 92.5t-266.5 267.5t-90 391q0 214 89.5 399.5t257.5 275.5t387 90q159 0 287.5 -51.5t201.5 -143.5t111 -240l-175 -48q-33 112 -82 176t-140 102.5t-202 38.5q-133 0 -230 -40.5t-156.5 -106.5 t-92.5 -145q-56 -136 -56 -295q0 -196 67.5 -328t196.5 -196t274 -64q126 0 246 48.5t182 103.5v273h-431zM755 1545v224h223v-224h-223z" />
<glyph unicode="&#x121;" d="M102 -88l175 -26q11 -81 61 -118q67 -50 183 -50q125 0 193 50t92 140q14 55 13 231q-118 -139 -294 -139q-219 0 -339 158t-120 379q0 152 55 280.5t159.5 198.5t245.5 70q188 0 310 -152v128h166v-918q0 -248 -50.5 -351.5t-160 -163.5t-269.5 -60q-190 0 -307 85.5 t-113 257.5zM251 550q0 -209 83 -305t208 -96q124 0 208 95.5t84 299.5q0 195 -86.5 294t-208.5 99q-120 0 -204 -97.5t-84 -289.5zM457 1194v224h223v-224h-223z" />
<glyph unicode="&#x122;" horiz-adv-x="1593" d="M844 575v172l621 1v-544q-143 -114 -295 -171.5t-312 -57.5q-216 0 -392.5 92.5t-266.5 267.5t-90 391q0 214 89.5 399.5t257.5 275.5t387 90q159 0 287.5 -51.5t201.5 -143.5t111 -240l-175 -48q-33 112 -82 176t-140 102.5t-202 38.5q-133 0 -230 -40.5t-156.5 -106.5 t-92.5 -145q-56 -136 -56 -295q0 -196 67.5 -328t196.5 -196t274 -64q126 0 246 48.5t182 103.5v273h-431zM733 -50q35 4 66 4q137 0 199 -55t62 -127q0 -77 -70.5 -135t-222.5 -58q-63 0 -140 12l11 117q44 -4 87 -4q167 0 167 76q0 67 -127 67q-14 0 -32 -2v105z" />
<glyph unicode="&#x123;" d="M632 1345v-175h-209v117q0 112 37 182t131 107l54 -83q-93 -39 -109 -148h96zM102 -88l175 -26q17 -168 244 -168q121 0 190.5 48t88.5 120t19 253q-117 -139 -291 -139q-220 0 -341 157.5t-121 377.5q0 241 121 396t341 155q186 0 308 -152v128h166v-918 q0 -231 -46 -340t-160.5 -172t-269.5 -63q-214 0 -321 93.5t-103 249.5zM251 550q0 -213 85 -307t206 -94q129 0 210.5 98.5t81.5 300.5q0 170 -77.5 279.5t-217.5 109.5q-130 0 -209 -103.5t-79 -283.5z" />
<glyph unicode="&#x124;" horiz-adv-x="1479" d="M164 0v1466h194v-602h762v602h194v-1466h-194v691h-762v-691h-194zM774 1726l-113 -170h-206l216 280h192l225 -280h-204z" />
<glyph unicode="&#x125;" d="M135 0v1466h180v-526q126 146 318 146q118 0 205 -46.5t124.5 -128.5t37.5 -238v-673h-180v673q0 135 -58.5 196.5t-165.5 61.5q-80 0 -150.5 -41.5t-100.5 -112.5t-30 -196v-581h-180zM644 1726l-113 -170h-206l216 280h192l225 -280h-204z" />
<glyph unicode="&#x126;" horiz-adv-x="1479" d="M164 1099h-133v148h133v219h194v-219h762v219h194v-219h133v-148h-133v-1099h-194v691h-762v-691h-194v1099zM358 1099v-235h762v235h-762z" />
<glyph unicode="&#x127;" d="M135 1199h-129v134h129v133h180v-133h367v-134h-367v-259q122 146 320 146q137 0 251 -76t114 -337v-673h-180v673q0 258 -225 258q-123 0 -201.5 -80.5t-78.5 -269.5v-581h-180v1199z" />
<glyph unicode="&#x128;" horiz-adv-x="569" d="M191 0v1466h194v-1466h-194zM-63 1581q-1 104 57 166q57 62 146 62q62 0 169 -54q59 -30 94 -30q32 0 49 17.5t24 69.5h130q-3 -114 -57.5 -171t-138.5 -57q-63 0 -166 56q-67 36 -98 36q-34 0 -55 -24q-22 -24 -21 -71h-133z" />
<glyph unicode="&#x129;" horiz-adv-x="569" d="M198 0v1062h180v-1062h-180zM-45 1219q-1 104 57 166q57 62 146 62q62 0 169 -54q59 -30 94 -30q32 0 49 17.5t24 69.5h130q-3 -114 -57.5 -171t-138.5 -57q-63 0 -166 56q-67 36 -98 36q-34 0 -55 -24q-22 -24 -21 -71h-133z" />
<glyph unicode="&#x12a;" horiz-adv-x="569" d="M191 0v1466h194v-1466h-194zM-28 1563v148h624v-148h-624z" />
<glyph unicode="&#x12b;" horiz-adv-x="569" d="M198 0v1062h180v-1062h-180zM-23 1227v148h624v-148h-624z" />
<glyph unicode="&#x12c;" horiz-adv-x="569" d="M191 0v1466h194v-1466h-194zM467 1800h123q-15 -125 -91.5 -192t-203.5 -67q-128 0 -204.5 66.5t-91.5 192.5h123q14 -68 55.5 -101.5t111.5 -33.5q81 0 122.5 32.5t55.5 102.5z" />
<glyph unicode="&#x12d;" horiz-adv-x="569" d="M198 0v1062h180v-1062h-180zM462 1464h123q-15 -125 -91.5 -192t-203.5 -67q-128 0 -204.5 66.5t-91.5 192.5h123q14 -68 55.5 -101.5t111.5 -33.5q81 0 122.5 32.5t55.5 102.5z" />
<glyph unicode="&#x12e;" horiz-adv-x="569" d="M191 0v1466h194v-1466h-194zM345 0q-57 -35 -88.5 -86.5t-31.5 -104.5q0 -42 23 -71t75 -29q23 0 47 6.5t44 17.5v-128q-73 -35 -136 -35q-51 0 -89 14.5t-63.5 40t-38 58.5t-12.5 71q0 64 36 128.5t102 117.5h132z" />
<glyph unicode="&#x12f;" horiz-adv-x="455" d="M136 1259v207h180v-207h-180zM136 0v1062h180v-1062h-180zM295 0q-57 -35 -88.5 -86.5t-31.5 -104.5q0 -42 23 -71t75 -29q23 0 47 6.5t44 17.5v-128q-73 -35 -136 -35q-51 0 -89 14.5t-63.5 40t-38 58.5t-12.5 71q0 64 36 128.5t102 117.5h132z" />
<glyph unicode="&#x130;" horiz-adv-x="569" d="M191 0v1466h194v-1466h-194zM177 1556v224h223v-224h-223z" />
<glyph unicode="&#x131;" horiz-adv-x="569" d="M198 0v1062h180v-1062h-180z" />
<glyph unicode="&#x132;" horiz-adv-x="1505" d="M191 0v1466h194v-1466h-194zM594 416l175 24q7 -168 63 -230t155 -62q73 0 126 33.5t73 91t20 183.5v1010h194v-999q0 -184 -44.5 -285t-141 -154t-226.5 -53q-193 0 -295.5 111t-98.5 330z" />
<glyph unicode="&#x133;" horiz-adv-x="909" d="M136 1259v207h180v-207h-180zM136 0v1062h180v-1062h-180zM612 1257v209h180v-209h-180zM384 -412l34 153q54 -14 85 -14q55 0 82 36.5t27 182.5v1116h180v-1120q0 -196 -51 -273q-65 -100 -216 -100q-73 0 -141 19z" />
<glyph unicode="&#x134;" horiz-adv-x="1024" d="M59 416l175 24q7 -168 63 -230t155 -62q73 0 126 33.5t73 91t20 183.5v1010h194v-999q0 -184 -44.5 -285t-141 -154t-226.5 -53q-193 0 -295.5 111t-98.5 330zM794 1726l-113 -170h-206l216 280h192l225 -280h-204z" />
<glyph unicode="&#x135;" horiz-adv-x="455" d="M230 1364l-113 -170h-205l216 280h192l224 -280h-203zM-94 -412l34 153q52 -14 85 -14q63 0 86 41.5t23 177.5v1116h180v-1120q0 -197 -58.5 -285t-208.5 -88q-73 0 -141 19z" />
<glyph unicode="&#x136;" horiz-adv-x="1366" d="M150 0v1466h194v-727l728 727h263l-615 -594l642 -872h-256l-522 742l-240 -234v-508h-194zM673 -50q35 4 66 4q137 0 199 -55t62 -127q0 -77 -70.5 -135t-222.5 -58q-63 0 -140 12l11 117q44 -4 87 -4q167 0 167 76q0 67 -127 67q-14 0 -32 -2v105z" />
<glyph unicode="&#x137;" horiz-adv-x="1024" d="M136 0v1466h180v-836l426 432h233l-406 -394l447 -668h-222l-351 543l-127 -122v-421h-180zM502 -50q35 4 66 4q137 0 199 -55t62 -127q0 -77 -70.5 -135t-222.5 -58q-63 0 -140 12l11 117q44 -4 87 -4q167 0 167 76q0 67 -127 67q-14 0 -32 -2v105z" />
<glyph unicode="&#x138;" horiz-adv-x="1024" d="M134 0v1062h180v-432l426 432h233l-406 -394l447 -668h-222l-351 543l-127 -122v-421h-180z" />
<glyph unicode="&#x139;" d="M150 0v1466h194v-1293h722v-173h-916zM304 1556l133 280h236l-220 -280h-149z" />
<glyph unicode="&#x13a;" horiz-adv-x="455" d="M131 0v1466h180v-1466h-180zM66 1541l133 280h236l-220 -280h-149z" />
<glyph unicode="&#x13b;" d="M150 0v1466h194v-1293h722v-173h-916zM553 -50q35 4 66 4q137 0 199 -55t62 -127q0 -77 -70.5 -135t-222.5 -58q-63 0 -140 12l11 117q44 -4 87 -4q167 0 167 76q0 67 -127 67q-14 0 -32 -2v105z" />
<glyph unicode="&#x13c;" horiz-adv-x="455" d="M128 0v1466h180v-1466h-180zM100 -50q35 4 66 4q137 0 199 -55t62 -127q0 -77 -70.5 -135t-222.5 -58q-63 0 -140 12l11 117q44 -4 87 -4q167 0 167 76q0 67 -127 67q-14 0 -32 -2v105z" />
<glyph unicode="&#x13d;" d="M712 1261v205h205v-205q0 -113 -40 -182.5t-127 -107.5l-50 77q57 25 84.5 73.5t29.5 139.5h-102zM150 0v1466h194v-1293h722v-173h-916z" />
<glyph unicode="&#x13e;" horiz-adv-x="597" d="M412 1281v185h184v-185q0 -101 -36 -163.5t-114 -96.5l-45 68q51 23 75.5 66.5t26.5 125.5h-91zM136 0v1466h180v-1466h-180z" />
<glyph unicode="&#x13f;" d="M150 0v1466h194v-1293h722v-173h-916zM466 637v205h205v-205h-205z" />
<glyph unicode="&#x140;" horiz-adv-x="684" d="M131 0v1466h180v-1466h-180zM460 637v205h205v-205h-205z" />
<glyph unicode="&#x141;" d="M145 565l-145 -123v167l145 124v733h194v-568l332 281v-167l-332 -281v-558h728v-173h-922v565z" />
<glyph unicode="&#x142;" horiz-adv-x="455" d="M133 574l-130 -110v158l130 110v734h179v-582l135 115v-157l-135 -115v-727h-179v574z" />
<glyph unicode="&#x143;" horiz-adv-x="1479" d="M156 0v1466h199l770 -1151v1151h186v-1466h-199l-770 1152v-1152h-186zM570 1556l133 280h236l-220 -280h-149z" />
<glyph unicode="&#x144;" d="M135 0v1062h162v-151q117 175 338 175q96 0 176.5 -34.5t120.5 -90.5t56 -133q10 -50 10 -175v-653h-180v646q0 110 -21 164.5t-74.5 87t-125.5 32.5q-115 0 -198.5 -73t-83.5 -277v-580h-180zM448 1194l133 280h236l-220 -280h-149z" />
<glyph unicode="&#x145;" horiz-adv-x="1479" d="M156 0v1466h199l770 -1151v1151h186v-1466h-199l-770 1152v-1152h-186zM699 -50q35 4 66 4q137 0 199 -55t62 -127q0 -77 -70.5 -135t-222.5 -58q-63 0 -140 12l11 117q44 -4 87 -4q167 0 167 76q0 67 -127 67q-14 0 -32 -2v105z" />
<glyph unicode="&#x146;" d="M135 0v1062h162v-151q117 175 338 175q96 0 176.5 -34.5t120.5 -90.5t56 -133q10 -50 10 -175v-653h-180v646q0 110 -21 164.5t-74.5 87t-125.5 32.5q-115 0 -198.5 -73t-83.5 -277v-580h-180zM463 -50q35 4 66 4q137 0 199 -55t62 -127q0 -77 -70.5 -135t-222.5 -58 q-63 0 -140 12l11 117q44 -4 87 -4q167 0 167 76q0 67 -127 67q-14 0 -32 -2v105z" />
<glyph unicode="&#x147;" horiz-adv-x="1479" d="M156 0v1466h199l770 -1151v1151h186v-1466h-199l-770 1152v-1152h-186zM734 1666l110 170h204l-225 -280h-192l-216 280h206z" />
<glyph unicode="&#x148;" d="M135 0v1062h162v-151q117 175 338 175q96 0 176.5 -34.5t120.5 -90.5t56 -133q10 -50 10 -175v-653h-180v646q0 110 -21 164.5t-74.5 87t-125.5 32.5q-115 0 -198.5 -73t-83.5 -277v-580h-180zM585 1304l110 170h204l-225 -280h-192l-216 280h206z" />
<glyph unicode="&#x149;" horiz-adv-x="1237" d="M375 0v1062h162v-151q117 175 338 175q96 0 176.5 -34.5t120.5 -90.5t56 -133q10 -50 10 -175v-653h-180v646q0 110 -21 164.5t-74.5 87t-125.5 32.5q-115 0 -198.5 -73t-83.5 -277v-580h-180zM124 1272v209h193v-165q0 -134 -31 -193q-43 -81 -134 -122l-44 71 q54 22 80.5 69.5t29.5 130.5h-94z" />
<glyph unicode="&#x14a;" horiz-adv-x="1481" d="M165 1466h196v-182q115 132 228 169.5t238 37.5q181 0 295.5 -81t182.5 -233.5t68 -422.5q0 -394 -130 -586.5t-350 -192.5q-127 0 -248 72l87 153q96 -52 161 -52q77 0 142 64.5t103 196t38 340.5q0 579 -405 579q-133 0 -233.5 -62.5t-138.5 -159t-38 -305.5v-801h-196 v1466z" />
<glyph unicode="&#x14b;" d="M1002 653v-711q0 -197 -58.5 -285t-208.5 -88q-73 0 -141 19l34 153q53 -14 85 -14q65 0 87 44t22 175v700q0 148 -52 216t-171 68q-117 0 -198.5 -75t-81.5 -275v-580h-180v1062h162v-151q117 175 338 175q130 0 218 -56t116.5 -138.5t28.5 -238.5z" />
<glyph unicode="&#x14c;" horiz-adv-x="1593" d="M99 714q0 365 196 571.5t506 206.5q203 0 366 -97t248.5 -270.5t85.5 -393.5q0 -223 -90 -399t-255 -266.5t-356 -90.5q-207 0 -370 100t-247 273t-84 366zM299 711q0 -265 142.5 -417.5t357.5 -152.5q219 0 360.5 154t141.5 437q0 179 -60.5 312.5t-177 207t-261.5 73.5 q-206 0 -354.5 -141.5t-148.5 -472.5zM504 1599v148h624v-148h-624z" />
<glyph unicode="&#x14d;" d="M68 531q0 295 164 437q137 118 334 118q219 0 358 -143.5t139 -396.5q0 -205 -61.5 -322.5t-179 -182.5t-256.5 -65q-223 0 -360.5 143t-137.5 412zM253 531q0 -204 89 -305.5t224 -101.5q134 0 223 102t89 311q0 197 -89.5 298.5t-222.5 101.5q-135 0 -224 -101 t-89 -305zM264 1227v148h624v-148h-624z" />
<glyph unicode="&#x14e;" horiz-adv-x="1593" d="M99 714q0 365 196 571.5t506 206.5q203 0 366 -97t248.5 -270.5t85.5 -393.5q0 -223 -90 -399t-255 -266.5t-356 -90.5q-207 0 -370 100t-247 273t-84 366zM299 711q0 -265 142.5 -417.5t357.5 -152.5q219 0 360.5 154t141.5 437q0 179 -60.5 312.5t-177 207t-261.5 73.5 q-206 0 -354.5 -141.5t-148.5 -472.5zM989 1826h123q-15 -125 -91.5 -192t-203.5 -67q-128 0 -204.5 66.5t-91.5 192.5h123q14 -68 55.5 -101.5t111.5 -33.5q81 0 122.5 32.5t55.5 102.5z" />
<glyph unicode="&#x14f;" d="M68 531q0 295 164 437q137 118 334 118q219 0 358 -143.5t139 -396.5q0 -205 -61.5 -322.5t-179 -182.5t-256.5 -65q-223 0 -360.5 143t-137.5 412zM253 531q0 -204 89 -305.5t224 -101.5q134 0 223 102t89 311q0 197 -89.5 298.5t-222.5 101.5q-135 0 -224 -101 t-89 -305zM749 1464h123q-15 -125 -91.5 -192t-203.5 -67q-128 0 -204.5 66.5t-91.5 192.5h123q14 -68 55.5 -101.5t111.5 -33.5q81 0 122.5 32.5t55.5 102.5z" />
<glyph unicode="&#x150;" horiz-adv-x="1593" d="M99 714q0 365 196 571.5t506 206.5q203 0 366 -97t248.5 -270.5t85.5 -393.5q0 -223 -90 -399t-255 -266.5t-356 -90.5q-207 0 -370 100t-247 273t-84 366zM299 711q0 -265 142.5 -417.5t357.5 -152.5q219 0 360.5 154t141.5 437q0 179 -60.5 312.5t-177 207t-261.5 73.5 q-206 0 -354.5 -141.5t-148.5 -472.5zM473 1556l121 280h234l-211 -280h-144zM820 1556l127 280h231l-207 -280h-151z" />
<glyph unicode="&#x151;" d="M68 531q0 295 164 437q137 118 334 118q219 0 358 -143.5t139 -396.5q0 -205 -61.5 -322.5t-179 -182.5t-256.5 -65q-223 0 -360.5 143t-137.5 412zM253 531q0 -204 89 -305.5t224 -101.5q134 0 223 102t89 311q0 197 -89.5 298.5t-222.5 101.5q-135 0 -224 -101 t-89 -305zM283 1194l121 280h234l-211 -280h-144zM630 1194l127 280h231l-207 -280h-151z" />
<glyph unicode="&#x152;" horiz-adv-x="2048" d="M1983 173v-173h-862v212q-135 -237 -400 -237q-301 0 -456 232q-136 205 -136 528q0 322 142 539t450 217q264 0 400 -223v198h831v-173h-650v-448h599v-172h-599v-500h681zM720 1334q-101 0 -197 -65t-145 -197.5t-49 -351.5q0 -303 115.5 -446t275.5 -143 q161 0 275.5 142.5t114.5 471.5q0 306 -115.5 447.5t-274.5 141.5z" />
<glyph unicode="&#x153;" horiz-adv-x="1933" d="M978 175q-76 -99 -175 -149t-221 -50q-225 0 -362.5 143t-137.5 399q0 169 58.5 302.5t178 199.5t265.5 66q138 0 240.5 -57.5t153.5 -145.5q64 93 164.5 148t224.5 55q220 0 356 -151t134 -452h-784q3 -166 92.5 -262.5t223.5 -96.5q99 0 170.5 55.5t103.5 166.5 l180 -26q-43 -165 -160.5 -254.5t-296.5 -89.5q-134 0 -240 52.5t-168 146.5zM267 533q0 -186 71 -283q92 -126 239 -126q129 0 221 106t92 305q0 198 -90.5 300.5t-222.5 102.5q-87 0 -160 -49t-111.5 -145t-38.5 -211zM1080 631h587q-12 151 -91.5 229t-197.5 78 q-120 0 -203.5 -82t-94.5 -225z" />
<glyph unicode="&#x154;" horiz-adv-x="1479" d="M161 0v1466h650q196 0 298 -39.5t163 -139.5t61 -221q0 -156 -101 -263t-312 -136q77 -37 117 -73q85 -78 161 -195l255 -399h-244l-194 305q-85 132 -140 202t-98.5 98t-88.5 39q-33 7 -108 7h-225v-651h-194zM355 819h417q133 0 208 27.5t114 88t39 131.5 q0 104 -75.5 171t-238.5 67h-464v-485zM503 1556l133 280h236l-220 -280h-149z" />
<glyph unicode="&#x155;" horiz-adv-x="682" d="M133 0v1062h162v-161q62 113 114.5 149t115.5 36q91 0 185 -58l-62 -167q-66 39 -132 39q-59 0 -106 -35.5t-67 -98.5q-30 -96 -30 -210v-556h-180zM242 1194l133 280h236l-220 -280h-149z" />
<glyph unicode="&#x156;" horiz-adv-x="1479" d="M161 0v1466h650q196 0 298 -39.5t163 -139.5t61 -221q0 -156 -101 -263t-312 -136q77 -37 117 -73q85 -78 161 -195l255 -399h-244l-194 305q-85 132 -140 202t-98.5 98t-88.5 39q-33 7 -108 7h-225v-651h-194zM355 819h417q133 0 208 27.5t114 88t39 131.5 q0 104 -75.5 171t-238.5 67h-464v-485zM699 -50q35 4 66 4q137 0 199 -55t62 -127q0 -77 -70.5 -135t-222.5 -58q-63 0 -140 12l11 117q44 -4 87 -4q167 0 167 76q0 67 -127 67q-14 0 -32 -2v105z" />
<glyph unicode="&#x157;" horiz-adv-x="682" d="M107 0v1062h162v-161q62 113 114.5 149t115.5 36q91 0 185 -58l-62 -167q-66 39 -132 39q-59 0 -106 -35.5t-67 -98.5q-30 -96 -30 -210v-556h-180zM224 -50q35 4 66 4q137 0 199 -55t62 -127q0 -77 -70.5 -135t-222.5 -58q-63 0 -140 12l11 117q44 -4 87 -4 q167 0 167 76q0 67 -127 67q-14 0 -32 -2v105z" />
<glyph unicode="&#x158;" horiz-adv-x="1479" d="M161 0v1466h650q196 0 298 -39.5t163 -139.5t61 -221q0 -156 -101 -263t-312 -136q77 -37 117 -73q85 -78 161 -195l255 -399h-244l-194 305q-85 132 -140 202t-98.5 98t-88.5 39q-33 7 -108 7h-225v-651h-194zM355 819h417q133 0 208 27.5t114 88t39 131.5 q0 104 -75.5 171t-238.5 67h-464v-485zM649 1660l110 170h204l-225 -280h-192l-216 280h206z" />
<glyph unicode="&#x159;" horiz-adv-x="682" d="M133 0v1062h162v-161q62 113 114.5 149t115.5 36q91 0 185 -58l-62 -167q-66 39 -132 39q-59 0 -106 -35.5t-67 -98.5q-30 -96 -30 -210v-556h-180zM379 1304l110 170h204l-225 -280h-192l-216 280h206z" />
<glyph unicode="&#x15a;" horiz-adv-x="1366" d="M92 471l183 16q13 -110 60.5 -180.5t147.5 -114t225 -43.5q111 0 196 33t126.5 90.5t41.5 125.5q0 69 -40 120.5t-132 86.5q-59 23 -261 71.5t-283 91.5q-105 55 -156.5 136.5t-51.5 182.5q0 111 63 207.5t184 146.5t269 50q163 0 287.5 -52.5t191.5 -154.5t72 -231 l-186 -14q-15 139 -101.5 210t-255.5 71q-176 0 -256.5 -64.5t-80.5 -155.5q0 -79 57 -130q56 -51 292.5 -104.5t324.5 -93.5q128 -59 189 -149.5t61 -208.5q0 -117 -67 -220.5t-192.5 -161t-282.5 -57.5q-199 0 -333.5 58t-211 174.5t-80.5 263.5zM492 1556l133 280h236 l-220 -280h-149z" />
<glyph unicode="&#x15b;" horiz-adv-x="1024" d="M63 317l178 28q15 -107 83.5 -164t191.5 -57q124 0 184 50.5t60 118.5q0 61 -53 96q-37 24 -184 61q-198 50 -274.5 86.5t-116 101t-39.5 142.5q0 71 32.5 131.5t88.5 100.5q42 31 114.5 52.5t155.5 21.5q125 0 219.5 -36t139.5 -97.5t62 -164.5l-176 -24 q-12 82 -69.5 128t-162.5 46q-124 0 -177 -41t-53 -96q0 -35 22 -63q22 -29 69 -48q27 -10 159 -46q191 -51 266.5 -83.5t118.5 -94.5t43 -154q0 -90 -52.5 -169.5t-151.5 -123t-224 -43.5q-207 0 -315.5 86t-138.5 255zM394 1194l133 280h236l-220 -280h-149z" />
<glyph unicode="&#x15c;" horiz-adv-x="1366" d="M92 471l183 16q13 -110 60.5 -180.5t147.5 -114t225 -43.5q111 0 196 33t126.5 90.5t41.5 125.5q0 69 -40 120.5t-132 86.5q-59 23 -261 71.5t-283 91.5q-105 55 -156.5 136.5t-51.5 182.5q0 111 63 207.5t184 146.5t269 50q163 0 287.5 -52.5t191.5 -154.5t72 -231 l-186 -14q-15 139 -101.5 210t-255.5 71q-176 0 -256.5 -64.5t-80.5 -155.5q0 -79 57 -130q56 -51 292.5 -104.5t324.5 -93.5q128 -59 189 -149.5t61 -208.5q0 -117 -67 -220.5t-192.5 -161t-282.5 -57.5q-199 0 -333.5 58t-211 174.5t-80.5 263.5zM676 1720l-113 -170h-206 l216 280h192l225 -280h-204z" />
<glyph unicode="&#x15d;" horiz-adv-x="1024" d="M63 317l178 28q15 -107 83.5 -164t191.5 -57q124 0 184 50.5t60 118.5q0 61 -53 96q-37 24 -184 61q-198 50 -274.5 86.5t-116 101t-39.5 142.5q0 71 32.5 131.5t88.5 100.5q42 31 114.5 52.5t155.5 21.5q125 0 219.5 -36t139.5 -97.5t62 -164.5l-176 -24 q-12 82 -69.5 128t-162.5 46q-124 0 -177 -41t-53 -96q0 -35 22 -63q22 -29 69 -48q27 -10 159 -46q191 -51 266.5 -83.5t118.5 -94.5t43 -154q0 -90 -52.5 -169.5t-151.5 -123t-224 -43.5q-207 0 -315.5 86t-138.5 255zM534 1364l-113 -170h-206l216 280h192l225 -280h-204 z" />
<glyph unicode="&#x15e;" horiz-adv-x="1366" d="M92 471l183 16q13 -110 60.5 -180.5t147.5 -114t225 -43.5q111 0 196 33t126.5 90.5t41.5 125.5q0 69 -40 120.5t-132 86.5q-59 23 -261 71.5t-283 91.5q-105 55 -156.5 136.5t-51.5 182.5q0 111 63 207.5t184 146.5t269 50q163 0 287.5 -52.5t191.5 -154.5t72 -231 l-186 -14q-15 139 -101.5 210t-255.5 71q-176 0 -256.5 -64.5t-80.5 -155.5q0 -79 57 -130q56 -51 292.5 -104.5t324.5 -93.5q128 -59 189 -149.5t61 -208.5q0 -117 -67 -220.5t-192.5 -161t-282.5 -57.5q-199 0 -333.5 58t-211 174.5t-80.5 263.5zM555 -144l52 177h134 l-33 -107q85 -10 128 -52.5t43 -94.5q0 -75 -72 -132.5t-217 -57.5q-82 0 -144 12l11 117q64 -4 94 -4q94 0 132 26q29 20 29 49q0 18 -11.5 32t-42.5 24t-103 11z" />
<glyph unicode="&#x15f;" horiz-adv-x="1024" d="M63 317l178 28q15 -107 83.5 -164t191.5 -57q124 0 184 50.5t60 118.5q0 61 -53 96q-37 24 -184 61q-198 50 -274.5 86.5t-116 101t-39.5 142.5q0 71 32.5 131.5t88.5 100.5q42 31 114.5 52.5t155.5 21.5q125 0 219.5 -36t139.5 -97.5t62 -164.5l-176 -24 q-12 82 -69.5 128t-162.5 46q-124 0 -177 -41t-53 -96q0 -35 22 -63q22 -29 69 -48q27 -10 159 -46q191 -51 266.5 -83.5t118.5 -94.5t43 -154q0 -90 -52.5 -169.5t-151.5 -123t-224 -43.5q-207 0 -315.5 86t-138.5 255zM375 -134l52 177h134l-33 -107q85 -10 128 -52.5 t43 -94.5q0 -75 -72 -132.5t-217 -57.5q-82 0 -144 12l11 117q64 -4 94 -4q94 0 132 26q29 20 29 49q0 18 -11.5 32t-42.5 24t-103 11z" />
<glyph unicode="&#x160;" horiz-adv-x="1366" d="M92 471l183 16q13 -110 60.5 -180.5t147.5 -114t225 -43.5q111 0 196 33t126.5 90.5t41.5 125.5q0 69 -40 120.5t-132 86.5q-59 23 -261 71.5t-283 91.5q-105 55 -156.5 136.5t-51.5 182.5q0 111 63 207.5t184 146.5t269 50q163 0 287.5 -52.5t191.5 -154.5t72 -231 l-186 -14q-15 139 -101.5 210t-255.5 71q-176 0 -256.5 -64.5t-80.5 -155.5q0 -79 57 -130q56 -51 292.5 -104.5t324.5 -93.5q128 -59 189 -149.5t61 -208.5q0 -117 -67 -220.5t-192.5 -161t-282.5 -57.5q-199 0 -333.5 58t-211 174.5t-80.5 263.5zM655 1660l110 170h204 l-225 -280h-192l-216 280h206z" />
<glyph unicode="&#x161;" horiz-adv-x="1024" d="M63 317l178 28q15 -107 83.5 -164t191.5 -57q124 0 184 50.5t60 118.5q0 61 -53 96q-37 24 -184 61q-198 50 -274.5 86.5t-116 101t-39.5 142.5q0 71 32.5 131.5t88.5 100.5q42 31 114.5 52.5t155.5 21.5q125 0 219.5 -36t139.5 -97.5t62 -164.5l-176 -24 q-12 82 -69.5 128t-162.5 46q-124 0 -177 -41t-53 -96q0 -35 22 -63q22 -29 69 -48q27 -10 159 -46q191 -51 266.5 -83.5t118.5 -94.5t43 -154q0 -90 -52.5 -169.5t-151.5 -123t-224 -43.5q-207 0 -315.5 86t-138.5 255zM507 1304l110 170h204l-225 -280h-192l-216 280h206z " />
<glyph unicode="&#x162;" horiz-adv-x="1251" d="M531 0v1293h-483v173h1162v-173h-485v-1293h-194zM516 -154l52 177h134l-33 -107q85 -10 128 -52.5t43 -94.5q0 -75 -72 -132.5t-217 -57.5q-82 0 -144 12l11 117q64 -4 94 -4q94 0 132 26q29 20 29 49q0 18 -11.5 32t-42.5 24t-103 11z" />
<glyph unicode="&#x163;" horiz-adv-x="569" d="M528 161l26 -159q-76 -16 -136 -16q-98 0 -152 31t-76 81.5t-22 212.5v611h-132v140h132v263l179 108v-371h181v-140h-181v-621q0 -77 9.5 -99t31 -35t61.5 -13q30 0 79 7zM276 -154l52 177h134l-33 -107q85 -10 128 -52.5t43 -94.5q0 -75 -72 -132.5t-217 -57.5 q-82 0 -144 12l11 117q64 -4 94 -4q94 0 132 26q29 20 29 49q0 18 -11.5 32t-42.5 24t-103 11z" />
<glyph unicode="&#x164;" horiz-adv-x="1251" d="M531 0v1293h-483v173h1162v-173h-485v-1293h-194zM630 1660l110 170h204l-225 -280h-192l-216 280h206z" />
<glyph unicode="&#x165;" horiz-adv-x="768" d="M581 1281v185h184v-185q0 -101 -36 -163.5t-114 -96.5l-45 68q51 23 75.5 66.5t26.5 125.5h-91zM527 161l26 -159q-76 -16 -136 -16q-98 0 -152 31t-76 81.5t-22 212.5v611h-132v140h132v263l179 108v-371h181v-140h-181v-621q0 -77 9.5 -99t31 -35t61.5 -13q30 0 79 7z " />
<glyph unicode="&#x166;" horiz-adv-x="1251" d="M531 629h-330v132h330v532h-483v173h1162v-173h-485v-532h328v-132h-328v-629h-194v629z" />
<glyph unicode="&#x167;" horiz-adv-x="569" d="M145 514h-133v132h133v276h-132v140h132v263l180 108v-371h180v-140h-180v-276h172v-132h-172v-213q0 -85 18.5 -116t82.5 -31q32 0 79 7l26 -159q-73 -16 -134 -16q-106 0 -163.5 36t-73 94.5t-15.5 194.5v203z" />
<glyph unicode="&#x168;" horiz-adv-x="1479" d="M1120 1466h194v-847q0 -221 -50 -351t-180.5 -211.5t-342.5 -81.5q-206 0 -337 71t-187 205.5t-56 367.5v847h194v-846q0 -191 35.5 -281.5t122 -139.5t211.5 -49q214 0 305 97t91 373v846zM427 1575q-1 104 57 166q57 62 146 62q62 0 169 -54q59 -30 94 -30 q32 0 49 17.5t24 69.5h130q-3 -114 -57.5 -171t-138.5 -57q-63 0 -166 56q-67 36 -98 36q-34 0 -55 -24q-22 -24 -21 -71h-133z" />
<glyph unicode="&#x169;" d="M831 0v156q-124 -180 -337 -180q-94 0 -175.5 36t-121 90.5t-55.5 133.5q-11 53 -11 168v658h180v-589q0 -141 11 -190q17 -71 72 -111.5t136 -40.5t152 41.5t100.5 113t29.5 207.5v569h180v-1062h-161zM243 1219q-1 104 57 166q57 62 146 62q62 0 169 -54q59 -30 94 -30 q32 0 49 17.5t24 69.5h130q-3 -114 -57.5 -171t-138.5 -57q-63 0 -166 56q-67 36 -98 36q-34 0 -55 -24q-22 -24 -21 -71h-133z" />
<glyph unicode="&#x16a;" horiz-adv-x="1479" d="M1120 1466h194v-847q0 -221 -50 -351t-180.5 -211.5t-342.5 -81.5q-206 0 -337 71t-187 205.5t-56 367.5v847h194v-846q0 -191 35.5 -281.5t122 -139.5t211.5 -49q214 0 305 97t91 373v846zM449 1583v148h624v-148h-624z" />
<glyph unicode="&#x16b;" d="M831 0v156q-124 -180 -337 -180q-94 0 -175.5 36t-121 90.5t-55.5 133.5q-11 53 -11 168v658h180v-589q0 -141 11 -190q17 -71 72 -111.5t136 -40.5t152 41.5t100.5 113t29.5 207.5v569h180v-1062h-161zM265 1227v148h624v-148h-624z" />
<glyph unicode="&#x16c;" horiz-adv-x="1479" d="M1120 1466h194v-847q0 -221 -50 -351t-180.5 -211.5t-342.5 -81.5q-206 0 -337 71t-187 205.5t-56 367.5v847h194v-846q0 -191 35.5 -281.5t122 -139.5t211.5 -49q214 0 305 97t91 373v846zM914 1820h123q-15 -125 -91.5 -192t-203.5 -67q-128 0 -204.5 66.5t-91.5 192.5 h123q14 -68 55.5 -101.5t111.5 -33.5q81 0 122.5 32.5t55.5 102.5z" />
<glyph unicode="&#x16d;" d="M831 0v156q-124 -180 -337 -180q-94 0 -175.5 36t-121 90.5t-55.5 133.5q-11 53 -11 168v658h180v-589q0 -141 11 -190q17 -71 72 -111.5t136 -40.5t152 41.5t100.5 113t29.5 207.5v569h180v-1062h-161zM750 1464h123q-15 -125 -91.5 -192t-203.5 -67q-128 0 -204.5 66.5 t-91.5 192.5h123q14 -68 55.5 -101.5t111.5 -33.5q81 0 122.5 32.5t55.5 102.5z" />
<glyph unicode="&#x16e;" horiz-adv-x="1479" d="M1120 1466h194v-847q0 -221 -50 -351t-180.5 -211.5t-342.5 -81.5q-206 0 -337 71t-187 205.5t-56 367.5v847h194v-846q0 -191 35.5 -281.5t122 -139.5t211.5 -49q214 0 305 97t91 373v846zM556 1656q0 73 53.5 126t126.5 53q74 0 127 -53.5t53 -129.5q0 -77 -53 -130 t-126 -53q-75 0 -128 53.5t-53 133.5zM632 1655q0 -47 31.5 -79t74.5 -32t74.5 32t31.5 77t-31 77t-75 32q-43 0 -74.5 -31.5t-31.5 -75.5z" />
<glyph unicode="&#x16f;" d="M831 0v156q-124 -180 -337 -180q-94 0 -175.5 36t-121 90.5t-55.5 133.5q-11 53 -11 168v658h180v-589q0 -141 11 -190q17 -71 72 -111.5t136 -40.5t152 41.5t100.5 113t29.5 207.5v569h180v-1062h-161zM382 1338q0 73 53.5 126t126.5 53q74 0 127 -53.5t53 -129.5 q0 -77 -53 -130t-126 -53q-75 0 -128 53.5t-53 133.5zM458 1337q0 -47 31.5 -79t74.5 -32t74.5 32t31.5 77t-31 77t-75 32q-43 0 -74.5 -31.5t-31.5 -75.5z" />
<glyph unicode="&#x170;" horiz-adv-x="1479" d="M1120 1466h194v-847q0 -221 -50 -351t-180.5 -211.5t-342.5 -81.5q-206 0 -337 71t-187 205.5t-56 367.5v847h194v-846q0 -191 35.5 -281.5t122 -139.5t211.5 -49q214 0 305 97t91 373v846zM465 1556l121 280h234l-211 -280h-144zM812 1556l127 280h231l-207 -280h-151z " />
<glyph unicode="&#x171;" d="M831 0v156q-124 -180 -337 -180q-94 0 -175.5 36t-121 90.5t-55.5 133.5q-11 53 -11 168v658h180v-589q0 -141 11 -190q17 -71 72 -111.5t136 -40.5t152 41.5t100.5 113t29.5 207.5v569h180v-1062h-161zM238 1194l121 280h234l-211 -280h-144zM585 1194l127 280h231 l-207 -280h-151z" />
<glyph unicode="&#x172;" horiz-adv-x="1479" d="M1120 1466h194v-847q0 -221 -50 -351t-180.5 -211.5t-342.5 -81.5q-206 0 -337 71t-187 205.5t-56 367.5v847h194v-846q0 -191 35.5 -281.5t122 -139.5t211.5 -49q214 0 305 97t91 373v846zM921 0q-57 -35 -88.5 -86.5t-31.5 -104.5q0 -42 23 -71t75 -29q23 0 47 6.5 t44 17.5v-128q-73 -35 -136 -35q-51 0 -89 14.5t-63.5 40t-38 58.5t-12.5 71q0 64 36 128.5t102 117.5h132z" />
<glyph unicode="&#x173;" d="M831 0v156q-124 -180 -337 -180q-94 0 -175.5 36t-121 90.5t-55.5 133.5q-11 53 -11 168v658h180v-589q0 -141 11 -190q17 -71 72 -111.5t136 -40.5t152 41.5t100.5 113t29.5 207.5v569h180v-1062h-161zM976 0q-57 -35 -88.5 -86.5t-31.5 -104.5q0 -42 23 -71t75 -29 q23 0 47 6.5t44 17.5v-128q-73 -35 -136 -35q-51 0 -89 14.5t-63.5 40t-38 58.5t-12.5 71q0 64 36 128.5t102 117.5h132z" />
<glyph unicode="&#x174;" horiz-adv-x="1933" d="M414 0l-389 1466h199l223 -961q36 -151 62 -300q56 235 66 271l279 990h234l210 -742q79 -276 114 -519q28 139 73 319l230 942h195l-402 -1466h-187l-309 1117q-39 140 -46 172q-23 -101 -43 -172l-311 -1117h-198zM964 1726l-113 -170h-206l216 280h192l225 -280h-204z " />
<glyph unicode="&#x175;" horiz-adv-x="1479" d="M331 0l-325 1062h186l169 -613l63 -228q4 17 55 219l169 622h185l159 -616l53 -203l61 205l182 614h175l-332 -1062h-187l-169 636l-41 181l-215 -817h-188zM754 1364l-113 -170h-206l216 280h192l225 -280h-204z" />
<glyph unicode="&#x176;" horiz-adv-x="1366" d="M571 0v621l-565 845h236l289 -442q80 -124 149 -248q66 115 160 259l284 431h226l-585 -845v-621h-194zM709 1726l-113 -170h-206l216 280h192l225 -280h-204z" />
<glyph unicode="&#x177;" horiz-adv-x="1024" d="M127 -409l-20 169q59 -16 103 -16q60 0 96 20t59 56q17 27 55 134q5 15 16 44l-403 1064h194l221 -615q43 -117 77 -246q31 124 74 242l227 619h180l-404 -1080q-65 -175 -101 -241q-48 -89 -110 -130.5t-148 -41.5q-52 0 -116 22zM559 1364l-113 -170h-206l216 280h192 l225 -280h-204z" />
<glyph unicode="&#x178;" horiz-adv-x="1366" d="M571 0v621l-565 845h236l289 -442q80 -124 149 -248q66 115 160 259l284 431h226l-585 -845v-621h-194zM397 1556v205h188v-205h-188zM770 1556v205h188v-205h-188z" />
<glyph unicode="&#x179;" horiz-adv-x="1251" d="M41 0v180l751 939q80 100 152 174h-818v173h1050v-173l-823 -1017l-89 -103h936v-173h-1159zM473 1556l133 280h236l-220 -280h-149z" />
<glyph unicode="&#x17a;" horiz-adv-x="1024" d="M40 0v146l676 776q-115 -6 -203 -6h-433v146h868v-119l-575 -674l-111 -123q121 9 227 9h491v-155h-940zM391 1194l133 280h236l-220 -280h-149z" />
<glyph unicode="&#x17b;" horiz-adv-x="1251" d="M41 0v180l751 939q80 100 152 174h-818v173h1050v-173l-823 -1017l-89 -103h936v-173h-1159zM533 1556v224h223v-224h-223z" />
<glyph unicode="&#x17c;" horiz-adv-x="1024" d="M40 0v146l676 776q-115 -6 -203 -6h-433v146h868v-119l-575 -674l-111 -123q121 9 227 9h491v-155h-940zM398 1194v224h223v-224h-223z" />
<glyph unicode="&#x17d;" horiz-adv-x="1251" d="M41 0v180l751 939q80 100 152 174h-818v173h1050v-173l-823 -1017l-89 -103h936v-173h-1159zM635 1660l110 170h204l-225 -280h-192l-216 280h206z" />
<glyph unicode="&#x17e;" horiz-adv-x="1024" d="M40 0v146l676 776q-115 -6 -203 -6h-433v146h868v-119l-575 -674l-111 -123q121 9 227 9h491v-155h-940zM543 1304l110 170h204l-225 -280h-192l-216 280h206z" />
<glyph unicode="&#x17f;" horiz-adv-x="455" d="M137 0v1175q0 115 27 178.5t94 100.5t173 37q79 0 167 -18l-26 -157q-54 10 -106 10q-90 0 -119.5 -39.5t-29.5 -126.5v-1160h-180z" />
<glyph unicode="&#x18f;" horiz-adv-x="1541" d="M1449 749q7 -333 -158 -550q-170 -224 -517 -224q-346 0 -516 224q-159 210 -159 550v94h1141q-12 220 -129 346q-124 132 -340 132q-317 0 -400 -307l-190 50q56 208 216 320q153 107 373 107q200 0 359 -98q163 -99 245 -279q71 -154 75 -365zM1248 670h-948 q11 -246 137 -389t337 -143t337 143t137 389z" />
<glyph unicode="&#x190;" horiz-adv-x="1237" d="M1159 414q-125 -439 -541 -439q-217 0 -368 111q-167 124 -167 333q0 125 71.5 223.5t191.5 131.5q-194 113 -194 318q0 184 145 296q132 103 322 103q447 0 516 -467l-186 -42q0 78 -38.5 159.5t-99.5 124.5q-78 55 -190 55t-191 -62q-85 -67 -85 -176q0 -77 52.5 -142 t126.5 -81t206 -16v-169h-93q-144 0 -238 -58q-112 -70 -112 -206q0 -129 105 -204q93 -66 227 -66q132 0 233 96q96 91 122 225z" />
<glyph unicode="&#x191;" horiz-adv-x="1251" d="M1157 1293h-795v-454h688v-173h-688v-724q0 -173 -51 -260q-67 -113 -230 -113q-73 0 -141 19l34 153q54 -14 85 -14q77 0 99 77q10 36 10 142v1520h989v-173z" />
<glyph unicode="&#x192;" d="M46 -405l35 155q101 -22 152 -22q54 0 83 28t45 124l177 1042h-201l24 140h201l24 133q22 120 45 165q31 62 88.5 97t150.5 35q80 0 215 -38l-35 -153q-103 24 -154 24q-56 0 -84 -27.5t-47 -132.5l-19 -103h204l-25 -140h-204l-191 -1092q-26 -148 -87 -204.5 t-173 -56.5q-94 0 -224 26z" />
<glyph unicode="&#x1a0;" horiz-adv-x="1756" d="M299 711q0 -260 143 -418q138 -152 357 -152q224 0 361 154q141 160 141 437q0 370 -237 520q-117 73 -262 73q-223 0 -354 -141q-149 -160 -149 -473zM1515 1273v209h193v-165q0 -124 -38 -190q-52 -91 -195 -167q26 -108 26 -229q0 -224 -90.5 -399.5t-255 -266 t-355.5 -90.5q-206 0 -369.5 99.5t-247.5 273t-84 366.5q0 360 196 572q191 206 506 206q227 0 402.5 -123.5t248.5 -331.5q91 49 128 105q30 45 29 131h-94z" />
<glyph unicode="&#x1a1;" horiz-adv-x="1343" d="M253 531q0 -197 89 -305q84 -102 224 -102t223 102q89 109 89 311q0 191 -90 298q-84 102 -222 102q-141 0 -224 -101q-89 -108 -89 -305zM1087 879v209h193v-165q0 -124 -38 -190q-49 -86 -179 -158v-29q0 -372 -240 -505q-118 -65 -257 -65q-228 0 -361 143 q-137 148 -137 412q0 295 164 437q137 118 334 118q219 0 358 -143q105 -109 131 -281q68 42 97.5 87t28.5 130h-94z" />
<glyph unicode="&#x1af;" horiz-adv-x="1749" d="M1473 1257v209h193v-165q0 -157 -36 -219q-99 -173 -316 -183v-280q0 -225 -50 -351q-52 -131 -180 -211q-131 -82 -343 -82q-409 0 -524 277q-56 134 -56 367v847h194v-846q0 -189 36 -282q34 -89 121 -138.5t212 -49.5q219 0 305 97q91 102 91 373v846h194v-493 q156 16 226 124q27 42 27 160h-94z" />
<glyph unicode="&#x1b0;" horiz-adv-x="1371" d="M1116 853v209h193v-165q0 -157 -36 -219q-92 -160 -281 -180v-498h-161v156q-124 -180 -337 -180q-93 0 -174.5 35.5t-121.5 90.5t-56 134q-11 54 -11 168v658h180v-589q0 -143 11 -190q35 -152 208 -152q83 0 153.5 42t99.5 113t29 207v569h180v-488q127 22 190 119 q28 42 28 160h-94z" />
<glyph unicode="&#x1cd;" horiz-adv-x="1366" d="M-3 0l563 1466h209l600 -1466h-221l-171 444h-613l-161 -444h-206zM420 602h497l-153 406q-70 185 -104 304q-28 -141 -79 -280zM669 1655l110 170h204l-225 -280h-192l-216 280h206z" />
<glyph unicode="&#x1ce;" d="M828 131q-100 -85 -192.5 -120t-198.5 -35q-175 0 -269 85.5t-94 218.5q0 78 35.5 142.5t93 103.5t129.5 59q53 14 160 27q218 26 321 62q1 37 1 47q0 110 -51 155q-69 61 -205 61q-127 0 -187.5 -44.5t-89.5 -157.5l-176 24q24 113 79 182.5t159 107t241 37.5 q136 0 221 -32t125 -80.5t56 -122.5q9 -46 9 -166v-240q0 -251 11.5 -317.5t45.5 -127.5h-188q-28 56 -36 131zM813 533q-98 -40 -294 -68q-111 -16 -157 -36t-71 -58.5t-25 -85.5q0 -72 54.5 -120t159.5 -48q104 0 185 45.5t119 124.5q29 61 29 180v66zM604 1304l110 170 h204l-225 -280h-192l-216 280h206z" />
<glyph unicode="&#x1cf;" horiz-adv-x="569" d="M191 0v1466h194v-1466h-194zM289 1655l110 170h204l-225 -280h-192l-216 280h206z" />
<glyph unicode="&#x1d0;" horiz-adv-x="455" d="M136 0v1062h180v-1062h-180zM239 1304l110 170h204l-225 -280h-192l-216 280h206z" />
<glyph unicode="&#x1d1;" horiz-adv-x="1593" d="M99 714q0 365 196 571.5t506 206.5q203 0 366 -97t248.5 -270.5t85.5 -393.5q0 -223 -90 -399t-255 -266.5t-356 -90.5q-207 0 -370 100t-247 273t-84 366zM299 711q0 -265 142.5 -417.5t357.5 -152.5q219 0 360.5 154t141.5 437q0 179 -60.5 312.5t-177 207t-261.5 73.5 q-206 0 -354.5 -141.5t-148.5 -472.5zM809 1655l110 170h204l-225 -280h-192l-216 280h206z" />
<glyph unicode="&#x1d2;" d="M68 531q0 295 164 437q137 118 334 118q219 0 358 -143.5t139 -396.5q0 -205 -61.5 -322.5t-179 -182.5t-256.5 -65q-223 0 -360.5 143t-137.5 412zM253 531q0 -204 89 -305.5t224 -101.5q134 0 223 102t89 311q0 197 -89.5 298.5t-222.5 101.5q-135 0 -224 -101 t-89 -305zM569 1304l110 170h204l-225 -280h-192l-216 280h206z" />
<glyph unicode="&#x1d3;" horiz-adv-x="1479" d="M1120 1466h194v-847q0 -221 -50 -351t-180.5 -211.5t-342.5 -81.5q-206 0 -337 71t-187 205.5t-56 367.5v847h194v-846q0 -191 35.5 -281.5t122 -139.5t211.5 -49q214 0 305 97t91 373v846zM759 1655l110 170h204l-225 -280h-192l-216 280h206z" />
<glyph unicode="&#x1d4;" d="M831 0v156q-124 -180 -337 -180q-94 0 -175.5 36t-121 90.5t-55.5 133.5q-11 53 -11 168v658h180v-589q0 -141 11 -190q17 -71 72 -111.5t136 -40.5t152 41.5t100.5 113t29.5 207.5v569h180v-1062h-161zM579 1304l110 170h204l-225 -280h-192l-216 280h206z" />
<glyph unicode="&#x1dd;" d="M1064 540q0 -247 -122 -399q-133 -165 -374 -165q-235 0 -365 163q-118 149 -118 390q0 16 1 48h792q-9 156 -85 252q-86 109 -236 109q-202 0 -280 -218l-186 23q93 343 467 343q246 0 380 -152q126 -144 126 -394zM868 429h-593q12 -134 68 -201q86 -104 223 -104 q132 0 214 88q79 83 88 217z" />
<glyph unicode="&#x1fa;" horiz-adv-x="1366" d="M-3 0l563 1466h209l600 -1466h-221l-171 444h-613l-161 -444h-206zM420 602h497l-153 406q-70 185 -104 304q-28 -141 -79 -280zM481 1601q0 73 53.5 126t126.5 53q74 0 127 -53.5t53 -129.5q0 -77 -53 -130t-126 -53q-75 0 -128 53.5t-53 133.5zM557 1600 q0 -47 31.5 -79t74.5 -32t74.5 32t31.5 77t-31 77t-75 32q-43 0 -74.5 -31.5t-31.5 -75.5zM561 1780l133 280h236l-220 -280h-149z" />
<glyph unicode="&#x1fb;" d="M828 131q-100 -85 -192.5 -120t-198.5 -35q-175 0 -269 85.5t-94 218.5q0 78 35.5 142.5t93 103.5t129.5 59q53 14 160 27q218 26 321 62q1 37 1 47q0 110 -51 155q-69 61 -205 61q-127 0 -187.5 -44.5t-89.5 -157.5l-176 24q24 113 79 182.5t159 107t241 37.5 q136 0 221 -32t125 -80.5t56 -122.5q9 -46 9 -166v-240q0 -251 11.5 -317.5t45.5 -127.5h-188q-28 56 -36 131zM813 533q-98 -40 -294 -68q-111 -16 -157 -36t-71 -58.5t-25 -85.5q0 -72 54.5 -120t159.5 -48q104 0 185 45.5t119 124.5q29 61 29 180v66zM383 1338 q0 73 53.5 126t126.5 53q74 0 127 -53.5t53 -129.5q0 -77 -53 -130t-126 -53q-75 0 -128 53.5t-53 133.5zM459 1337q0 -47 31.5 -79t74.5 -32t74.5 32t31.5 77t-31 77t-75 32q-43 0 -74.5 -31.5t-31.5 -75.5zM493 1644l133 280h236l-220 -280h-149z" />
<glyph unicode="&#x1fc;" horiz-adv-x="2048" d="M1 0l705 1466h1203v-173h-737v-451h685v-172h-685v-497h764v-173h-959v423h-566l-200 -423h-210zM493 595h484v698h-145zM881 1556l133 280h236l-220 -280h-149z" />
<glyph unicode="&#x1fd;" horiz-adv-x="1821" d="M1734 325q-50 -167 -170 -258t-298 -91q-127 0 -222.5 48t-172.5 150q-104 -102 -210.5 -150t-229.5 -48q-172 0 -267.5 88.5t-95.5 215.5q0 86 49.5 161.5t138 114.5t282.5 64q150 20 252 49q1 25 1 41q0 126 -52.5 176.5t-183.5 50.5q-87 0 -147 -21t-88.5 -59.5 t-47.5 -123.5l-175 21q28 117 80.5 185.5t150.5 107.5t229 39q167 0 269 -50q59 -29 99 -93q64 70 145 106.5t196 36.5q162 0 268 -78.5t155 -207.5t49 -254q0 -19 -2 -61h-767q2 -144 35.5 -209t107 -108.5t161.5 -43.5q103 0 174.5 59t98.5 166zM969 633h584 q-14 158 -90 231t-198 73q-126 0 -206.5 -80t-89.5 -224zM793 533q-79 -34 -322 -73q-109 -17 -153 -51q-59 -47 -59 -123q0 -71 53 -119.5t154 -48.5q115 0 200.5 57t111.5 142q15 52 15 216zM822 1194l133 280h236l-220 -280h-149z" />
<glyph unicode="&#x1fe;" horiz-adv-x="1593" d="M1250 1332l168 188l99 -84l-176 -198q86 -128 116 -224q40 -126 40 -282q0 -225 -91 -401t-255.5 -266t-349.5 -90q-138 0 -250 39q-86 30 -201 115l-168 -188l-99 84l176 197q-98 149 -131 254.5t-33 253.5q0 226 90 402.5t252.5 267.5t361.5 91q134 0 234.5 -35.5 t216.5 -123.5zM1130 1197q-94 74 -164.5 101t-165.5 27q-219 0 -362 -148.5t-143 -443.5q0 -116 22 -206q16 -67 67 -165zM1212 1094l-743 -832q77 -63 142 -88q85 -33 184 -33q218 0 360 154t142 432q0 208 -85 367zM681 1556l133 280h236l-220 -280h-149z" />
<glyph unicode="&#x1ff;" horiz-adv-x="1251" d="M919 999l99 128l96 -70l-107 -138q63 -86 86 -156q31 -100 31 -233q0 -300 -169 -441q-137 -113 -330 -113q-159 0 -281 80l-105 -135l-94 71l108 141q-59 68 -84 136q-40 109 -40 247q0 301 147 435.5t345 134.5q82 0 151 -21t147 -66zM818 867q-91 70 -191 70 q-133 0 -223 -102t-90 -304q0 -150 52 -251zM893 770l-449 -583q78 -63 176 -63q139 0 229.5 102t90.5 306q0 76 -12 133q-8 42 -35 105zM532 1194l133 280h236l-220 -280h-149z" />
<glyph unicode="&#x218;" horiz-adv-x="1366" d="M92 471l183 16q13 -110 60.5 -180.5t147.5 -114t225 -43.5q111 0 196 33t126.5 90.5t41.5 125.5q0 69 -40 120.5t-132 86.5q-59 23 -261 71.5t-283 91.5q-105 55 -156.5 136.5t-51.5 182.5q0 111 63 207.5t184 146.5t269 50q163 0 287.5 -52.5t191.5 -154.5t72 -231 l-186 -14q-15 139 -101.5 210t-255.5 71q-176 0 -256.5 -64.5t-80.5 -155.5q0 -79 57 -130q56 -51 292.5 -104.5t324.5 -93.5q128 -59 189 -149.5t61 -208.5q0 -117 -67 -220.5t-192.5 -161t-282.5 -57.5q-199 0 -333.5 58t-211 174.5t-80.5 263.5zM579 -320v175h209v-117 q0 -110 -37 -180.5t-131 -108.5l-54 84q93 40 109 147h-96z" />
<glyph unicode="&#x219;" horiz-adv-x="1024" d="M63 317l178 28q15 -107 83.5 -164t191.5 -57q124 0 184 50.5t60 118.5q0 61 -53 96q-37 24 -184 61q-198 50 -274.5 86.5t-116 101t-39.5 142.5q0 71 32.5 131.5t88.5 100.5q42 31 114.5 52.5t155.5 21.5q125 0 219.5 -36t139.5 -97.5t62 -164.5l-176 -24 q-12 82 -69.5 128t-162.5 46q-124 0 -177 -41t-53 -96q0 -35 22 -63q22 -29 69 -48q27 -10 159 -46q191 -51 266.5 -83.5t118.5 -94.5t43 -154q0 -90 -52.5 -169.5t-151.5 -123t-224 -43.5q-207 0 -315.5 86t-138.5 255zM399 -320v175h209v-117q0 -110 -37 -180.5 t-131 -108.5l-54 84q93 40 109 147h-96z" />
<glyph unicode="&#x21a;" horiz-adv-x="1251" d="M531 0v1293h-483v173h1162v-173h-485v-1293h-194zM523 -326v205h205v-205q0 -180 -167 -253l-50 76q60 27 90 78q20 33 24 99h-102z" />
<glyph unicode="&#x21b;" horiz-adv-x="569" d="M528 161l26 -159q-76 -16 -136 -16q-98 0 -152 31t-76 81.5t-22 212.5v611h-132v140h132v263l179 108v-371h181v-140h-181v-621q0 -77 9.5 -99t31 -35t61.5 -13q30 0 79 7zM275 -305v184h185v-184q0 -70 -36.5 -131.5t-114.5 -95.5l-44 69q95 42 102 158h-92z" />
<glyph unicode="&#x237;" horiz-adv-x="455" d="M314 -58q0 -195 -51 -273q-66 -100 -216 -100q-73 0 -141 19l34 153q54 -14 85 -14q77 0 99 78q10 35 10 141v1116h180v-1120z" />
<glyph unicode="&#x2b9;" horiz-adv-x="391" d="M136 947l-46 274v245h205v-245l-48 -274h-111z" />
<glyph unicode="&#x2ba;" horiz-adv-x="727" d="M144 947l-50 279v240h205v-240l-45 -279h-110zM475 947l-49 279v240h205v-240l-48 -279h-108z" />
<glyph unicode="&#x2bb;" horiz-adv-x="455" d="M337 1421q-105 -44 -110 -201h94v-209h-193v165q0 133 32 194q42 80 133 121z" />
<glyph unicode="&#x2bc;" horiz-adv-x="455" d="M317 1316q0 -134 -31 -193q-43 -81 -134 -122l-44 71q104 42 110 200h-94v209h193v-165z" />
<glyph unicode="&#x2bd;" horiz-adv-x="455" d="M347 1072l-44 -71q-91 41 -134 122q-31 59 -31 193v165h193v-209h-94q6 -158 110 -200z" />
<glyph unicode="&#x2c6;" horiz-adv-x="682" d="M344 1364l-113 -170h-206l216 280h192l225 -280h-204z" />
<glyph unicode="&#x2c7;" horiz-adv-x="682" d="M359 1304l110 170h204l-225 -280h-192l-216 280h206z" />
<glyph unicode="&#x2c8;" horiz-adv-x="682" d="M392 1134h-103v332h103v-332z" />
<glyph unicode="&#x2c9;" horiz-adv-x="682" d="M29 1227v148h624v-148h-624z" />
<glyph unicode="&#x2ca;" horiz-adv-x="682" d="M591 1474l-220 -280h-149l133 280h236z" />
<glyph unicode="&#x2cb;" horiz-adv-x="682" d="M465 1194h-145l-231 280h241z" />
<glyph unicode="&#x2ce;" horiz-adv-x="682" d="M465 -407h-145l-231 280h241z" />
<glyph unicode="&#x2cf;" horiz-adv-x="682" d="M591 -127l-220 -280h-149l133 280h236z" />
<glyph unicode="&#x2d8;" horiz-adv-x="682" d="M514 1464h123q-15 -125 -91.5 -192t-203.5 -67q-128 0 -204.5 66.5t-91.5 192.5h123q14 -68 55.5 -101.5t111.5 -33.5q81 0 122.5 32.5t55.5 102.5z" />
<glyph unicode="&#x2d9;" horiz-adv-x="682" d="M229 1194v224h223v-224h-223z" />
<glyph unicode="&#x2da;" horiz-adv-x="682" d="M162 1338q0 73 53.5 126t126.5 53q74 0 127 -53.5t53 -129.5q0 -77 -53 -130t-126 -53q-75 0 -128 53.5t-53 133.5zM238 1337q0 -47 31.5 -79t74.5 -32t74.5 32t31.5 77t-31 77t-75 32q-43 0 -74.5 -31.5t-31.5 -75.5z" />
<glyph unicode="&#x2db;" horiz-adv-x="682" d="M345 0q-57 -35 -88.5 -86.5t-31.5 -104.5q0 -42 23 -71t75 -29q23 0 47 6.5t44 17.5v-128q-73 -35 -136 -35q-51 0 -89 14.5t-63.5 40t-38 58.5t-12.5 71q0 64 36 128.5t102 117.5h132z" />
<glyph unicode="&#x2dc;" horiz-adv-x="682" d="M7 1219q-1 104 57 166q57 62 146 62q62 0 169 -54q59 -30 94 -30q32 0 49 17.5t24 69.5h130q-3 -114 -57.5 -171t-138.5 -57q-63 0 -166 56q-67 36 -98 36q-34 0 -55 -24q-22 -24 -21 -71h-133z" />
<glyph unicode="&#x2dd;" horiz-adv-x="682" d="M58 1194l121 280h234l-211 -280h-144zM405 1194l127 280h231l-207 -280h-151z" />
<glyph unicode="&#x2de;" horiz-adv-x="682" d="M529 412q-118 -57 -219 -57q-197 0 -233 256l-81 -9l-26 152l235 39l23 -132q12 -69 24 -94q24 -50 76 -50q46 0 172 61z" />
<glyph unicode="&#x2df;" horiz-adv-x="682" d="M687 870l-96 -96l-250 251l-250 -251l-96 96l251 250l-251 250l96 96l250 -251l250 251l96 -96l-251 -250z" />
<glyph unicode="&#x2f3;" horiz-adv-x="682" d="M520 -248q0 -76 -52 -129.5t-127 -53.5q-77 0 -129 54.5t-52 132.5q0 73 53.5 126t126.5 53q76 0 128 -53.5t52 -129.5zM448 -247q0 45 -30.5 77t-75.5 32q-44 0 -75 -31.5t-31 -75.5q0 -45 30.5 -78t75.5 -33t75.5 32t30.5 77z" />
<glyph unicode="&#x2f4;" horiz-adv-x="682" d="M465 178h-145l-231 280h241z" />
<glyph unicode="&#x2f5;" horiz-adv-x="682" d="M624 178h-144l-211 280h234zM277 178h-151l-207 280h231z" />
<glyph unicode="&#x2f6;" horiz-adv-x="682" d="M763 458l-207 -280h-151l127 280h231zM413 458l-211 -280h-144l121 280h234z" />
<glyph unicode="&#x2f7;" horiz-adv-x="682" d="M676 -176q-6 -228 -196 -228q-63 0 -166 56q-67 36 -98 36q-78 0 -76 -95h-133q-1 97 52 160q56 68 151 68q62 0 169 -54q59 -30 94 -30q61 0 73 87h130z" />
<glyph unicode="&#x300;" horiz-adv-x="0" d="M-158 1547h-145l-231 280h241z" />
<glyph unicode="&#x301;" horiz-adv-x="0" d="M-245 1827h241l-231 -280h-145z" />
<glyph unicode="&#x302;" horiz-adv-x="0" d="M314 1194h-204l-110 170l-113 -170h-206l216 280h192z" />
<glyph unicode="&#x303;" horiz-adv-x="0" d="M-909 1547q-1 102 55.5 165t147.5 63q62 0 169 -54q59 -30 94 -30q61 0 73 87h130q-6 -228 -196 -228q-63 0 -166 56q-67 36 -98 36q-78 0 -76 -95h-133z" />
<glyph unicode="&#x309;" horiz-adv-x="0" d="M-259 1635q53 13 54 41q1 23 -28 39q-42 23 -133 23q-31 0 -94 -4l-11 94q39 8 144 7q123 -1 201 -40q86 -42 88 -109q4 -101 -182 -124v-50h-112v112q57 6 73 11z" />
<glyph unicode="&#x30f;" horiz-adv-x="0" d="M353 1194h-144l-211 280h234zM6 1194h-151l-207 280h231z" />
<glyph unicode="&#x323;" horiz-adv-x="0" d="M-783 -325v205h205v-205h-205z" />
<glyph unicode="&#x384;" horiz-adv-x="682" d="M222 1194l133 280h236l-220 -280h-149z" />
<glyph unicode="&#x385;" horiz-adv-x="682" d="M347 1507h186l-200 -277h-117zM532 1422h173v-192h-173v192zM-22 1422h173v-192h-173v192z" />
<glyph unicode="&#x386;" horiz-adv-x="1367" d="M-1 0l563 1466h209l600 -1466h-221l-171 444h-613l-161 -444h-206zM422 602h497l-153 406q-73 194 -104 304q-28 -141 -79 -280zM54 1186l133 280h236l-220 -280h-149z" />
<glyph unicode="&#x387;" horiz-adv-x="569" d="M185 857v205h205v-205h-205z" />
<glyph unicode="&#x388;" horiz-adv-x="1606" d="M401 0v1466h1060v-173h-866v-449h811v-172h-811v-499h900v-173h-1094zM-89 1186l133 280h236l-220 -280h-149z" />
<glyph unicode="&#x389;" horiz-adv-x="1716" d="M360 0v1466h194v-602h762v602h194v-1466h-194v691h-762v-691h-194zM-88 1186l133 280h236l-220 -280h-149z" />
<glyph unicode="&#x38a;" horiz-adv-x="786" d="M360 0v1466h194v-1466h-194zM-88 1186l133 280h236l-220 -280h-149z" />
<glyph unicode="&#x38c;" horiz-adv-x="1586" d="M88 714q0 366 197 572t505 206q309 0 504.5 -209.5t195.5 -551.5q0 -340 -197 -548t-504 -208q-221 0 -387.5 110.5t-240 284t-73.5 344.5zM288 711q0 -251 136 -410.5t364 -159.5q224 0 363 157.5t139 433.5q0 280 -140 436.5t-359 156.5q-215 0 -359 -147t-144 -467z M-89 1186l133 280h236l-220 -280h-149z" />
<glyph unicode="&#x38e;" horiz-adv-x="1752" d="M945 0v621l-565 845h236l289 -442q85 -131 149 -248q66 115 160 259l284 431h226l-585 -845v-621h-194zM-89 1186l133 280h236l-220 -280h-149z" />
<glyph unicode="&#x38f;" horiz-adv-x="1541" d="M107 173h320q-304 254 -304 620q0 199 80 357t226 249.5t351 91.5q203 0 338.5 -84t223 -241t87.5 -373q0 -366 -304 -620h320v-173h-570v162q356 166 356 601q0 245 -125.5 403.5t-326.5 158.5q-207 0 -331 -159.5t-124 -392.5q0 -441 354 -611v-162h-571v173zM-89 1186 l133 280h236l-220 -280h-149z" />
<glyph unicode="&#x390;" horiz-adv-x="455" d="M137 0v1062h180v-1062h-180zM233 1507h186l-200 -277h-117zM418 1422h173v-192h-173v192zM-136 1422h173v-192h-173v192z" />
<glyph unicode="&#x391;" horiz-adv-x="1366" d="M-3 0l563 1466h209l600 -1466h-221l-171 444h-613l-161 -444h-206zM420 602h497l-153 406q-70 185 -104 304q-28 -141 -79 -280z" />
<glyph unicode="&#x392;" horiz-adv-x="1366" d="M150 0v1466h550q168 0 269.5 -44.5t159 -137t57.5 -193.5q0 -94 -51 -177t-154 -134q133 -39 204.5 -133t71.5 -222q0 -103 -43.5 -191.5t-107.5 -136.5t-160.5 -72.5t-236.5 -24.5h-559zM344 850h317q129 0 185 17q74 22 111.5 73t37.5 128q0 73 -35 128.5t-100 76 t-223 20.5h-293v-443zM344 173h365q94 0 132 7q67 12 112 40t74 81.5t29 123.5q0 82 -42 142.5t-116.5 85t-214.5 24.5h-339v-504z" />
<glyph unicode="&#x393;" horiz-adv-x="1128" d="M164 1466h916v-173h-722v-1293h-194v1466z" />
<glyph unicode="&#x394;" horiz-adv-x="1368" d="M-2 0l563 1466h209l600 -1466h-1372zM267 173h815l-317 835q-71 188 -104 304q-27 -136 -79 -280z" />
<glyph unicode="&#x395;" horiz-adv-x="1366" d="M162 0v1466h1060v-173h-866v-449h811v-172h-811v-499h900v-173h-1094z" />
<glyph unicode="&#x396;" horiz-adv-x="1251" d="M41 0v180l751 939q80 100 152 174h-818v173h1050v-173l-823 -1017l-89 -103h936v-173h-1159z" />
<glyph unicode="&#x397;" horiz-adv-x="1479" d="M164 0v1466h194v-602h762v602h194v-1466h-194v691h-762v-691h-194z" />
<glyph unicode="&#x398;" horiz-adv-x="1593" d="M96 714q0 366 197 572t505 206q309 0 504.5 -209.5t195.5 -551.5q0 -340 -197 -548t-504 -208q-221 0 -387.5 110.5t-240 284t-73.5 344.5zM296 711q0 -251 136 -410.5t364 -159.5q224 0 363 157.5t139 433.5q0 280 -140 436.5t-359 156.5q-215 0 -359 -147t-144 -467z M507 647v172h580v-172h-580z" />
<glyph unicode="&#x399;" horiz-adv-x="569" d="M191 0v1466h194v-1466h-194z" />
<glyph unicode="&#x39a;" horiz-adv-x="1366" d="M150 0v1466h194v-727l728 727h263l-615 -594l642 -872h-256l-522 742l-240 -234v-508h-194z" />
<glyph unicode="&#x39b;" horiz-adv-x="1368" d="M784 1466l568 -1466h-211l-381 1064q-50 140 -77 241q-33 -121 -78 -241l-396 -1064h-198l573 1466h200z" />
<glyph unicode="&#x39c;" horiz-adv-x="1706" d="M152 0v1466h292l347 -1038q48 -145 70 -217q25 80 78 235l351 1020h261v-1466h-187v1227l-426 -1227h-175l-424 1248v-1248h-187z" />
<glyph unicode="&#x39d;" horiz-adv-x="1479" d="M156 0v1466h199l770 -1151v1151h186v-1466h-199l-770 1152v-1152h-186z" />
<glyph unicode="&#x39e;" horiz-adv-x="1331" d="M136 1466h1059v-173h-1059v173zM230 819h871v-172h-871v172zM109 173h1113v-173h-1113v173z" />
<glyph unicode="&#x39f;" horiz-adv-x="1593" d="M99 714q0 365 196 571.5t506 206.5q203 0 366 -97t248.5 -270.5t85.5 -393.5q0 -223 -90 -399t-255 -266.5t-356 -90.5q-207 0 -370 100t-247 273t-84 366zM299 711q0 -265 142.5 -417.5t357.5 -152.5q219 0 360.5 154t141.5 437q0 179 -60.5 312.5t-177 207t-261.5 73.5 q-206 0 -354.5 -141.5t-148.5 -472.5z" />
<glyph unicode="&#x3a0;" horiz-adv-x="1479" d="M164 0v1466h1150v-1466h-194v1293h-762v-1293h-194z" />
<glyph unicode="&#x3a1;" horiz-adv-x="1366" d="M158 0v1466h553q146 0 223 -14q108 -18 181 -68.5t117.5 -141.5t44.5 -200q0 -187 -119 -316.5t-430 -129.5h-376v-596h-194zM352 769h379q188 0 267 70t79 197q0 92 -46.5 157.5t-122.5 86.5q-49 13 -181 13h-375v-524z" />
<glyph unicode="&#x3a3;" horiz-adv-x="1266" d="M1145 1466v-173h-787l500 -532l-500 -588h828v-173h-1038v202l479 559l-479 510v195h997z" />
<glyph unicode="&#x3a4;" horiz-adv-x="1251" d="M531 0v1293h-483v173h1162v-173h-485v-1293h-194z" />
<glyph unicode="&#x3a5;" horiz-adv-x="1366" d="M571 0v621l-565 845h236l289 -442q80 -124 149 -248q66 115 160 259l284 431h226l-585 -845v-621h-194z" />
<glyph unicode="&#x3a6;" horiz-adv-x="1634" d="M720 1510h194v-181q308 -19 471.5 -180t163.5 -400q0 -268 -177 -423t-458 -165v-214h-194v214q-289 11 -462 170.5t-173 408.5q0 163 75 295t212 208t348 86v181zM720 1161q-206 -6 -319.5 -113t-113.5 -307q0 -202 124 -307t309 -108v835zM914 326q205 6 321 115 t116 303q0 184 -111 300.5t-326 116.5v-835z" />
<glyph unicode="&#x3a7;" horiz-adv-x="1366" d="M9 0l567 764l-500 702h231l266 -376q83 -117 118 -180q49 80 116 167l295 389h211l-515 -691l555 -775h-240l-369 523q-31 45 -64 98q-49 -80 -70 -110l-368 -511h-233z" />
<glyph unicode="&#x3a8;" horiz-adv-x="1711" d="M127 1466h194v-395q0 -241 107 -337.5t330 -114.5v847h194v-847q210 13 323.5 116t113.5 360v371h195v-414q0 -589 -632 -599v-453h-194v453q-330 6 -480.5 160.5t-150.5 421.5v431z" />
<glyph unicode="&#x3a9;" horiz-adv-x="1531" d="M97 173h320q-304 254 -304 620q0 199 80 357t226 249.5t351 91.5q203 0 338.5 -84t223 -241t87.5 -373q0 -366 -304 -620h320v-173h-570v162q356 166 356 601q0 245 -125.5 403.5t-326.5 158.5q-207 0 -331 -159.5t-124 -392.5q0 -441 354 -611v-162h-571v173z" />
<glyph unicode="&#x3aa;" horiz-adv-x="569" d="M191 0v1466h194v-1466h-194zM4 1556v205h188v-205h-188zM377 1556v205h188v-205h-188z" />
<glyph unicode="&#x3ab;" horiz-adv-x="1366" d="M571 0v621l-565 845h236l289 -442q80 -124 149 -248q66 115 160 259l284 431h226l-585 -845v-621h-194zM397 1556v205h188v-205h-188zM770 1556v205h188v-205h-188z" />
<glyph unicode="&#x3ac;" horiz-adv-x="1184" d="M923 1062h184q-70 -220 -129 -531q70 -386 129 -531h-179q-43 100 -65 194q-83 -218 -347 -218q-200 0 -322 150t-122 407q0 264 122.5 408.5t324.5 144.5q125 0 204 -50.5t147 -153.5q7 35 53 180zM549 937q-129 0 -204 -104t-75 -300q0 -191 71 -300t198 -109 q124 0 207 107.5t83 309.5q0 196 -77.5 296t-202.5 100zM466 1194l133 280h236l-220 -280h-149z" />
<glyph unicode="&#x3ad;" horiz-adv-x="913" d="M829 942l-129 -104q-123 93 -230 93q-88 0 -128.5 -47t-40.5 -101q0 -70 60 -116.5t176 -46.5q15 0 50 1v-151q-32 1 -48 1q-143 0 -198.5 -55t-55.5 -124q0 -71 56 -119.5t133 -48.5q141 0 264 131l129 -109q-160 -170 -398 -170q-187 0 -279 95t-92 221q0 181 176 257 q-147 83 -147 229q0 119 87 213.5t267 94.5q206 0 348 -144zM366 1194l133 280h236l-220 -280h-149z" />
<glyph unicode="&#x3ae;" d="M139 0v1062h162v-151q117 175 338 175q130 0 218 -56t116.5 -138.5t28.5 -238.5v-1060h-180v1053q0 148 -52 216t-171 68q-117 0 -198.5 -75t-81.5 -275v-580h-180zM466 1194l133 280h236l-220 -280h-149z" />
<glyph unicode="&#x3af;" horiz-adv-x="455" d="M137 0v1062h180v-1062h-180zM99 1194l133 280h236l-220 -280h-149z" />
<glyph unicode="&#x3b0;" horiz-adv-x="1120" d="M136 1062h180v-629q0 -163 73 -236t171 -73q81 0 141 46t83 106t23 171v615h179v-622q0 -237 -118 -350.5t-311 -113.5q-149 0 -246.5 66.5t-136 153.5t-38.5 237v629zM567 1507h186l-200 -277h-117zM752 1422h173v-192h-173v192zM198 1422h173v-192h-173v192z" />
<glyph unicode="&#x3b1;" horiz-adv-x="1184" d="M923 1062h184q-70 -220 -129 -531q70 -386 129 -531h-179q-43 100 -65 194q-83 -218 -347 -218q-200 0 -322 150t-122 407q0 264 122.5 408.5t324.5 144.5q125 0 204 -50.5t147 -153.5q7 35 53 180zM549 937q-129 0 -204 -104t-75 -300q0 -191 71 -300t198 -109 q124 0 207 107.5t83 309.5q0 196 -77.5 296t-202.5 100z" />
<glyph unicode="&#x3b2;" horiz-adv-x="1178" d="M319 135v-542h-179v1413q0 169 45.5 264.5t156.5 158t247 62.5q201 0 304.5 -115.5t103.5 -252.5q0 -134 -83.5 -216t-191.5 -101q174 -17 268.5 -125t94.5 -266q0 -170 -111.5 -304.5t-322.5 -134.5q-216 0 -332 159zM478 864q184 0 268 64t84 185q0 98 -71.5 164 t-178.5 66q-93 0 -161.5 -49t-84 -109t-15.5 -210v-403q0 -172 24 -253t103 -146t182 -65q125 0 197.5 85.5t72.5 211.5q0 104 -53.5 186.5t-132 112t-208.5 29.5h-26v131z" />
<glyph unicode="&#x3b3;" horiz-adv-x="1024" d="M25 1062h189l297 -837l304 837h184l-397 -1062v-407h-183v407z" />
<glyph unicode="&#x3b4;" horiz-adv-x="1140" d="M174 1466h801v-146h-560q100 -102 313 -249q190 -132 265 -245t75 -306q0 -259 -139.5 -401.5t-363.5 -142.5q-245 0 -369 160t-124 380q0 256 131 390.5t313 141.5q-93 65 -342 288v130zM256 514q0 -170 89.5 -280t228.5 -110q122 0 215.5 94t93.5 297q0 188 -89 291 t-224 103q-149 0 -231.5 -116t-82.5 -279z" />
<glyph unicode="&#x3b5;" horiz-adv-x="913" d="M829 942l-129 -104q-123 93 -230 93q-88 0 -128.5 -47t-40.5 -101q0 -70 60 -116.5t176 -46.5q15 0 50 1v-151q-32 1 -48 1q-143 0 -198.5 -55t-55.5 -124q0 -71 56 -119.5t133 -48.5q141 0 264 131l129 -109q-160 -170 -398 -170q-187 0 -279 95t-92 221q0 181 176 257 q-147 83 -147 229q0 119 87 213.5t267 94.5q206 0 348 -144z" />
<glyph unicode="&#x3b6;" horiz-adv-x="903" d="M234 1466h652v-122q-269 -166 -451.5 -434.5t-182.5 -496.5q0 -120 54 -178t175 -68q156 -14 221.5 -34.5t114.5 -84t49 -152.5q0 -97 -60 -179t-138.5 -115t-191.5 -33l49 166q168 19 168 141q0 41 -27 72t-66 40t-148 13q-151 4 -227.5 60.5t-114.5 149.5t-38 210 q0 237 171 488.5t407 410.5h-416v146z" />
<glyph unicode="&#x3b7;" d="M139 0v1062h162v-151q117 175 338 175q130 0 218 -56t116.5 -138.5t28.5 -238.5v-1060h-180v1053q0 148 -52 216t-171 68q-117 0 -198.5 -75t-81.5 -275v-580h-180z" />
<glyph unicode="&#x3b8;" d="M92 733q0 758 478 758t478 -758q0 -757 -478 -757t-478 757zM278 806h584q-10 313 -90 425t-204 112q-279 0 -290 -537zM862 661h-584q11 -537 292 -537q282 0 292 537z" />
<glyph unicode="&#x3b9;" horiz-adv-x="455" d="M137 0v1062h180v-1062h-180z" />
<glyph unicode="&#x3ba;" horiz-adv-x="1024" d="M134 1062h179v-417l431 417h238l-475 -441l516 -621h-230l-414 500l-66 -61v-439h-179v1062z" />
<glyph unicode="&#x3bb;" horiz-adv-x="1024" d="M511 794l-297 -794h-190l394 1042l-158 424h190l548 -1466h-190z" />
<glyph unicode="&#x3bc;" horiz-adv-x="1180" d="M1018 1062v-1062h-161v126q-52 -80 -103 -110q-70 -41 -163 -41q-83 0 -147 33q-48 25 -106 99v-514h-178v1469h178v-450q0 -245 26 -317.5t84.5 -114.5t134.5 -42q80 0 143 44t89 113.5t26 313.5v453h177z" />
<glyph unicode="&#x3bd;" horiz-adv-x="1024" d="M430 0l-404 1062h190l228 -636q37 -103 68 -214q24 84 67 202l236 648h185l-402 -1062h-168z" />
<glyph unicode="&#x3be;" horiz-adv-x="917" d="M772 1491v-149h-147q-164 0 -237.5 -48.5t-73.5 -138.5q0 -172 299 -172h147v-149q-132 0 -230 -39t-176.5 -140t-78.5 -229q0 -96 56.5 -171t242.5 -96q120 -14 176 -44.5t93 -92.5t37 -134q0 -132 -109 -224.5t-294 -94.5l46 167q99 7 140.5 51t41.5 90q0 102 -171 121 q-442 48 -442 422q0 153 91.5 275t233.5 183q-142 18 -206.5 107.5t-64.5 182.5q0 130 114.5 226.5t333.5 96.5h178z" />
<glyph unicode="&#x3bf;" d="M68 531q0 295 164 437q137 118 334 118q219 0 358 -143.5t139 -396.5q0 -205 -61.5 -322.5t-179 -182.5t-256.5 -65q-223 0 -360.5 143t-137.5 412zM253 531q0 -204 89 -305.5t224 -101.5q134 0 223 102t89 311q0 197 -89.5 298.5t-222.5 101.5q-135 0 -224 -101 t-89 -305z" />
<glyph unicode="&#x3c0;" horiz-adv-x="1413" d="M505 916v-916h-180v916h-280v146h1324v-146h-242v-916h-180v916h-442z" />
<glyph unicode="&#x3c1;" horiz-adv-x="1165" d="M131 -407v901q0 302 119 447t346 145q226 0 361.5 -154t135.5 -400q0 -247 -129.5 -401.5t-340.5 -154.5q-197 0 -312 125v-508h-180zM602 937q-131 0 -210 -100.5t-79 -319.5q0 -197 78 -295t212 -98q135 0 220 101.5t85 296.5q0 222 -91 318.5t-215 96.5z" />
<glyph unicode="&#x3c2;" horiz-adv-x="987" d="M966 1052l-42 -150q-112 35 -224 35q-201 0 -320 -124.5t-119 -292.5q0 -116 65.5 -205.5t259.5 -140.5q139 -37 201 -69.5t97 -90t35 -132.5q0 -137 -111 -225t-277 -88q-67 0 -152 14l44 165q58 -12 101 -12q96 0 151 41.5t55 100.5q0 54 -39.5 82.5t-165.5 55.5 q-222 47 -330.5 173t-108.5 300q0 241 172.5 419t464.5 178q123 0 243 -34z" />
<glyph unicode="&#x3c3;" horiz-adv-x="1264" d="M1219 1062v-146h-289q133 -124 133 -386q0 -285 -145.5 -419.5t-353.5 -134.5q-216 0 -356 140t-140 415q0 283 145.5 419t350.5 136q75 0 170 -24h485zM561 937q-131 0 -219.5 -102t-88.5 -305q0 -202 86.5 -304t224.5 -102q145 0 230.5 106.5t85.5 300.5 q0 177 -78.5 291.5t-240.5 114.5z" />
<glyph unicode="&#x3c4;" horiz-adv-x="809" d="M506 916v-916h-180v916h-280v146h716v-146h-256z" />
<glyph unicode="&#x3c5;" horiz-adv-x="1120" d="M136 1062h180v-629q0 -163 73 -236t171 -73q81 0 141 46t83 106t23 171v615h179v-622q0 -237 -118 -350.5t-311 -113.5q-149 0 -246.5 66.5t-136 153.5t-38.5 237v629z" />
<glyph unicode="&#x3c6;" horiz-adv-x="1328" d="M499 1083l-35 -156q-207 -69 -207 -362q0 -155 81.5 -276.5t243.5 -156.5v660q0 106 15 163.5t68.5 94t145.5 36.5q143 0 232.5 -58t151.5 -183t62 -269q0 -120 -49 -240.5t-159 -221.5t-289 -139v-382h-178v382q-186 0 -348 163t-162 419q0 237 129.5 383.5t297.5 142.5 zM760 140q127 23 217.5 142t90.5 312q0 179 -66 261t-140 82q-53 0 -77.5 -36.5t-24.5 -160.5v-600z" />
<glyph unicode="&#x3c7;" horiz-adv-x="1075" d="M48 1062h196l292 -588l302 588h198l-390 -724l410 -745h-205l-315 613l-318 -613h-201l409 739z" />
<glyph unicode="&#x3c8;" horiz-adv-x="1460" d="M122 1062h179v-524q0 -147 24 -224t101.5 -128.5t213.5 -58.5v935h180v-935q131 7 208 56t103.5 125.5t26.5 229.5v524h179v-518q0 -208 -38.5 -309t-155.5 -176.5t-323 -82.5v-383h-180v383q-133 4 -233 38t-169.5 108.5t-92.5 156.5t-23 265v518z" />
<glyph unicode="&#x3c9;" horiz-adv-x="1599" d="M245 1062h174q-149 -329 -149 -556q0 -175 64 -282t163 -107q64 0 120 50t74.5 120t18.5 196v311h179v-311q0 -123 18.5 -195t75 -121.5t120.5 -49.5q98 0 162 106.5t64 282.5q0 227 -148 556h173q158 -281 158 -545q0 -265 -109.5 -403t-279.5 -138q-226 0 -323 239 q-98 -239 -324 -239q-179 0 -284 145t-105 396q0 264 158 545z" />
<glyph unicode="&#x3ca;" horiz-adv-x="455" d="M137 0v1062h180v-1062h-180zM-47 1270v205h188v-205h-188zM326 1270v205h188v-205h-188z" />
<glyph unicode="&#x3cb;" horiz-adv-x="1120" d="M136 1062h180v-629q0 -163 73 -236t171 -73q81 0 141 46t83 106t23 171v615h179v-622q0 -237 -118 -350.5t-311 -113.5q-149 0 -246.5 66.5t-136 153.5t-38.5 237v629zM301 1270v205h188v-205h-188zM674 1270v205h188v-205h-188z" />
<glyph unicode="&#x3cc;" d="M68 531q0 295 164 437q137 118 334 118q219 0 358 -143.5t139 -396.5q0 -205 -61.5 -322.5t-179 -182.5t-256.5 -65q-223 0 -360.5 143t-137.5 412zM253 531q0 -204 89 -305.5t224 -101.5q134 0 223 102t89 311q0 197 -89.5 298.5t-222.5 101.5q-135 0 -224 -101 t-89 -305zM466 1194l133 280h236l-220 -280h-149z" />
<glyph unicode="&#x3cd;" horiz-adv-x="1120" d="M136 1062h180v-629q0 -163 73 -236t171 -73q81 0 141 46t83 106t23 171v615h179v-622q0 -237 -118 -350.5t-311 -113.5q-149 0 -246.5 66.5t-136 153.5t-38.5 237v629zM442 1194l133 280h236l-220 -280h-149z" />
<glyph unicode="&#x3ce;" horiz-adv-x="1599" d="M245 1062h174q-149 -329 -149 -556q0 -175 64 -282t163 -107q64 0 120 50t74.5 120t18.5 196v311h179v-311q0 -123 18.5 -195t75 -121.5t120.5 -49.5q98 0 162 106.5t64 282.5q0 227 -148 556h173q158 -281 158 -545q0 -265 -109.5 -403t-279.5 -138q-226 0 -323 239 q-98 -239 -324 -239q-179 0 -284 145t-105 396q0 264 158 545zM702 1194l133 280h236l-220 -280h-149z" />
<glyph unicode="&#x400;" horiz-adv-x="1366" d="M162 0v1466h1060v-173h-866v-449h811v-172h-811v-499h900v-173h-1094zM850 1556h-145l-231 280h241z" />
<glyph unicode="&#x401;" horiz-adv-x="1367" d="M162 0v1466h1060v-173h-866v-449h811v-172h-811v-499h900v-173h-1094zM411 1556v205h188v-205h-188zM784 1556v205h188v-205h-188z" />
<glyph unicode="&#x402;" horiz-adv-x="1771" d="M50 1466h1170v-173h-488v-456q253 99 440 99q233 0 375 -141t142 -344q0 -178 -116.5 -327t-341.5 -149q-104 0 -235 33l31 164q76 -37 158 -37q151 0 228.5 88t77.5 222q0 142 -89.5 235.5t-277.5 93.5q-162 0 -392 -94v-680h-194v1293h-488v173z" />
<glyph unicode="&#x403;" horiz-adv-x="1109" d="M161 1466h948v-173h-754v-1293h-194v1466zM473 1556l133 280h236l-220 -280h-149z" />
<glyph unicode="&#x404;" horiz-adv-x="1472" d="M857 843v-173h-545q11 -247 137 -389.5t323 -142.5q350 0 439 372l187 -49q-127 -486 -612 -486q-347 0 -516.5 223.5t-158.5 550.5q0 200 75.5 365t231.5 271t372 106q228 0 381.5 -113t207.5 -314l-190 -50q-83 307 -400 307q-214 0 -335.5 -129t-133.5 -349h537z" />
<glyph unicode="&#x405;" horiz-adv-x="1366" d="M92 471l183 16q13 -110 60.5 -180.5t147.5 -114t225 -43.5q111 0 196 33t126.5 90.5t41.5 125.5q0 69 -40 120.5t-132 86.5q-59 23 -261 71.5t-283 91.5q-105 55 -156.5 136.5t-51.5 182.5q0 111 63 207.5t184 146.5t269 50q163 0 287.5 -52.5t191.5 -154.5t72 -231 l-186 -14q-15 139 -101.5 210t-255.5 71q-176 0 -256.5 -64.5t-80.5 -155.5q0 -79 57 -130q56 -51 292.5 -104.5t324.5 -93.5q128 -59 189 -149.5t61 -208.5q0 -117 -67 -220.5t-192.5 -161t-282.5 -57.5q-199 0 -333.5 58t-211 174.5t-80.5 263.5z" />
<glyph unicode="&#x406;" horiz-adv-x="569" d="M191 0v1466h194v-1466h-194z" />
<glyph unicode="&#x407;" horiz-adv-x="569" d="M191 0v1466h194v-1466h-194zM4 1556v205h188v-205h-188zM377 1556v205h188v-205h-188z" />
<glyph unicode="&#x408;" horiz-adv-x="1024" d="M59 416l175 24q7 -168 63 -230t155 -62q73 0 126 33.5t73 91t20 183.5v1010h194v-999q0 -184 -44.5 -285t-141 -154t-226.5 -53q-193 0 -295.5 111t-98.5 330z" />
<glyph unicode="&#x409;" horiz-adv-x="2165" d="M1178 1466v-626h350q243 0 353 -55.5t159 -154.5t49 -203q0 -137 -70.5 -243.5t-171 -145t-290.5 -38.5h-573v1293h-530v-755q0 -230 -21.5 -337t-90.5 -166.5t-175 -59.5q-64 0 -154 24l33 172q48 -20 82 -20q66 0 99 49.5t33 233.5v1032h918zM1178 165h388 q106 0 167 20.5t104.5 80t43.5 155.5q0 91 -46.5 152.5t-125 80.5t-271.5 19h-260v-508z" />
<glyph unicode="&#x40a;" horiz-adv-x="2069" d="M1082 1466v-626h326q209 0 325.5 -35t188 -138t71.5 -240q0 -143 -75.5 -251t-176 -142t-292.5 -34h-561v673h-530v-673h-194v1466h194v-626h530v626h194zM1082 165h363q124 0 185.5 18t108 78.5t46.5 159.5q0 85 -41 146t-124.5 83.5t-301.5 22.5h-236v-508z" />
<glyph unicode="&#x40b;" horiz-adv-x="1749" d="M49 1466h1173v-173h-489v-451q273 94 437 94q159 0 277 -64.5t163.5 -176.5t45.5 -309v-386h-194v379q0 144 -27 223.5t-98.5 124.5t-177.5 45q-161 0 -426 -92v-680h-194v1293h-490v173z" />
<glyph unicode="&#x40c;" horiz-adv-x="1193" d="M161 1466h194v-642q133 0 187 51.5t138 247.5q61 144 100.5 203.5t112.5 100t161 40.5q112 0 118 -2v-168q-10 0 -39 1q-32 1 -39 1q-93 0 -138 -45q-46 -45 -105 -192q-74 -186 -125 -234.5t-122 -77.5q142 -39 280 -262l302 -488h-241l-245 398q-101 165 -169 226.5 t-176 61.5v-686h-194v1466zM525 1556l133 280h236l-220 -280h-149z" />
<glyph unicode="&#x40d;" horiz-adv-x="1472" d="M161 1466h176v-1161l780 1161h195v-1466h-176v1158l-781 -1158h-194v1466zM824 1556h-145l-231 280h241z" />
<glyph unicode="&#x40e;" horiz-adv-x="1301" d="M10 1466h196l478 -898l418 898h193l-550 -1140q-103 -214 -169 -280t-189 -66q-75 0 -184 35v166q78 -45 165 -45q71 0 122.5 45.5t113.5 207.5zM870 1815h123q-15 -125 -91.5 -192t-203.5 -67q-128 0 -204.5 66.5t-91.5 192.5h123q14 -68 55.5 -101.5t111.5 -33.5 q81 0 122.5 32.5t55.5 102.5z" />
<glyph unicode="&#x40f;" horiz-adv-x="1472" d="M823 0v-407h-173v407h-490v1466h194v-1293h764v1293h195v-1466h-490z" />
<glyph unicode="&#x410;" horiz-adv-x="1366" d="M-3 0l563 1466h209l600 -1466h-221l-171 444h-613l-161 -444h-206zM420 602h497l-153 406q-70 185 -104 304q-28 -141 -79 -280z" />
<glyph unicode="&#x411;" horiz-adv-x="1344" d="M167 1466h951v-173h-757v-452h350q194 0 308.5 -37t183.5 -139.5t69 -238.5q0 -111 -49.5 -207.5t-147.5 -157.5t-334 -61h-574v1466zM361 165h388q157 0 235.5 64t78.5 192q0 91 -45 152t-125 81t-273 20h-259v-509z" />
<glyph unicode="&#x412;" horiz-adv-x="1366" d="M150 0v1466h550q168 0 269.5 -44.5t159 -137t57.5 -193.5q0 -94 -51 -177t-154 -134q133 -39 204.5 -133t71.5 -222q0 -103 -43.5 -191.5t-107.5 -136.5t-160.5 -72.5t-236.5 -24.5h-559zM344 850h317q129 0 185 17q74 22 111.5 73t37.5 128q0 73 -35 128.5t-100 76 t-223 20.5h-293v-443zM344 173h365q94 0 132 7q67 12 112 40t74 81.5t29 123.5q0 82 -42 142.5t-116.5 85t-214.5 24.5h-339v-504z" />
<glyph unicode="&#x413;" horiz-adv-x="1109" d="M161 1466h948v-173h-754v-1293h-194v1466z" />
<glyph unicode="&#x414;" horiz-adv-x="1387" d="M291 1466h892v-1293h132v-515h-173v342h-969v-342h-173v515h114q177 267 177 1079v214zM989 1293h-511v-75q0 -187 -33.5 -511.5t-131.5 -533.5h676v1120z" />
<glyph unicode="&#x415;" horiz-adv-x="1366" d="M162 0v1466h1060v-173h-866v-449h811v-172h-811v-499h900v-173h-1094z" />
<glyph unicode="&#x416;" horiz-adv-x="1891" d="M1045 1466v-642q143 0 196.5 52.5t136.5 246.5q61 144 100.5 203.5t112.5 100t160 40.5q95 0 118 -2v-168q-9 0 -38 1q-32 1 -39 1q-93 0 -138 -45q-46 -45 -105 -192q-64 -159 -111 -216.5t-136 -95.5q144 -40 279 -262l302 -488h-240l-245 398q-98 158 -165 223 t-188 65v-686h-199v686q-96 0 -169.5 -50.5t-171.5 -217.5l-12 -20l-245 -398h-241l302 488q138 223 280 262q-79 32 -129 85.5t-119 226.5q-63 157 -108 197t-134 40l-78 -2v168q11 2 112 2q96 0 166.5 -39.5t110.5 -99t103 -205.5q84 -197 136.5 -247t196.5 -52v642h199z " />
<glyph unicode="&#x417;" horiz-adv-x="1237" d="M78 414l185 48q21 -107 112.5 -214t242.5 -107q154 0 243 79t89 191q0 121 -94 192.5t-256 71.5h-93v169q134 0 205 15.5t125.5 79t54.5 144.5q0 96 -74.5 167t-201.5 71q-111 0 -189.5 -55.5t-108.5 -147t-30 -136.5l-186 42q69 467 516 467q215 0 341 -119.5 t126 -279.5q0 -205 -194 -318q112 -31 187.5 -126.5t75.5 -228.5q0 -189 -146.5 -316.5t-388.5 -127.5q-416 0 -541 439z" />
<glyph unicode="&#x418;" horiz-adv-x="1472" d="M161 1466h176v-1161l780 1161h195v-1466h-176v1158l-781 -1158h-194v1466z" />
<glyph unicode="&#x419;" horiz-adv-x="1472" d="M161 1466h176v-1161l780 1161h195v-1466h-176v1158l-781 -1158h-194v1466zM890 1815h123q-15 -125 -91.5 -192t-203.5 -67q-128 0 -204.5 66.5t-91.5 192.5h123q14 -68 55.5 -101.5t111.5 -33.5q81 0 122.5 32.5t55.5 102.5z" />
<glyph unicode="&#x41a;" horiz-adv-x="1193" d="M161 1466h194v-642q133 0 187 51.5t138 247.5q61 144 100.5 203.5t112.5 100t161 40.5q112 0 118 -2v-168q-10 0 -39 1q-32 1 -39 1q-93 0 -138 -45q-46 -45 -105 -192q-74 -186 -125 -234.5t-122 -77.5q142 -39 280 -262l302 -488h-241l-245 398q-101 165 -169 226.5 t-176 61.5v-686h-194v1466z" />
<glyph unicode="&#x41b;" horiz-adv-x="1344" d="M265 1466h918v-1466h-194v1293h-530v-755q0 -230 -21.5 -337t-90.5 -166.5t-175 -59.5q-64 0 -154 24l33 172q48 -20 82 -20q66 0 99 49.5t33 233.5v1032z" />
<glyph unicode="&#x41c;" horiz-adv-x="1706" d="M152 0v1466h292l347 -1038q48 -145 70 -217q25 80 78 235l351 1020h261v-1466h-187v1227l-426 -1227h-175l-424 1248v-1248h-187z" />
<glyph unicode="&#x41d;" horiz-adv-x="1479" d="M164 0v1466h194v-602h762v602h194v-1466h-194v691h-762v-691h-194z" />
<glyph unicode="&#x41e;" horiz-adv-x="1593" d="M99 714q0 365 196 571.5t506 206.5q203 0 366 -97t248.5 -270.5t85.5 -393.5q0 -223 -90 -399t-255 -266.5t-356 -90.5q-207 0 -370 100t-247 273t-84 366zM299 711q0 -265 142.5 -417.5t357.5 -152.5q219 0 360.5 154t141.5 437q0 179 -60.5 312.5t-177 207t-261.5 73.5 q-206 0 -354.5 -141.5t-148.5 -472.5z" />
<glyph unicode="&#x41f;" horiz-adv-x="1472" d="M160 1466h1153v-1466h-195v1293h-764v-1293h-194v1466z" />
<glyph unicode="&#x420;" horiz-adv-x="1366" d="M158 0v1466h553q146 0 223 -14q108 -18 181 -68.5t117.5 -141.5t44.5 -200q0 -187 -119 -316.5t-430 -129.5h-376v-596h-194zM352 769h379q188 0 267 70t79 197q0 92 -46.5 157.5t-122.5 86.5q-49 13 -181 13h-375v-524z" />
<glyph unicode="&#x421;" horiz-adv-x="1479" d="M1204 514l194 -49q-61 -239 -219.5 -364.5t-387.5 -125.5q-237 0 -385.5 96.5t-226 279.5t-77.5 393q0 229 87.5 399.5t249 259t355.5 88.5q220 0 370 -112t209 -315l-191 -45q-51 160 -148 233t-244 73q-169 0 -282.5 -81t-159.5 -217.5t-46 -281.5q0 -187 54.5 -326.5 t169.5 -208.5t249 -69q163 0 276 94t153 279z" />
<glyph unicode="&#x422;" horiz-adv-x="1251" d="M531 0v1293h-483v173h1162v-173h-485v-1293h-194z" />
<glyph unicode="&#x423;" horiz-adv-x="1301" d="M10 1466h196l478 -898l418 898h193l-550 -1140q-103 -214 -169 -280t-189 -66q-75 0 -184 35v166q78 -45 165 -45q71 0 122.5 45.5t113.5 207.5z" />
<glyph unicode="&#x424;" horiz-adv-x="1557" d="M688 1290v188h182v-188q280 -15 442 -168.5t162 -381.5q0 -223 -157 -379t-447 -172v-189h-182v189q-260 10 -433 158.5t-173 392.5q0 245 172.5 392t433.5 158zM870 1124v-768q188 9 296 109t108 275q0 172 -106 272.5t-298 111.5zM688 1123q-181 -8 -293 -107 t-112 -276q0 -175 110.5 -275t294.5 -108v766z" />
<glyph unicode="&#x425;" horiz-adv-x="1366" d="M9 0l567 764l-500 702h231l266 -376q83 -117 118 -180q49 80 116 167l295 389h211l-515 -691l555 -775h-240l-369 523q-31 45 -64 98q-49 -80 -70 -110l-368 -511h-233z" />
<glyph unicode="&#x426;" horiz-adv-x="1515" d="M159 1466h194v-1293h764v1293h195v-1293h134v-580h-172v407h-1115v1466z" />
<glyph unicode="&#x427;" horiz-adv-x="1365" d="M1204 0h-194v591q-261 -97 -457 -97q-153 0 -270 71.5t-156.5 181.5t-39.5 288v431h194v-413q0 -240 87.5 -315.5t210.5 -75.5q205 0 431 91v713h194v-1466z" />
<glyph unicode="&#x428;" horiz-adv-x="1877" d="M161 1466h194v-1293h487v1293h194v-1293h487v1293h194v-1466h-1556v1466z" />
<glyph unicode="&#x429;" horiz-adv-x="1920" d="M161 1466h194v-1293h487v1293h194v-1293h487v1293h194v-1293h133v-580h-173v407h-1516v1466z" />
<glyph unicode="&#x42a;" horiz-adv-x="1621" d="M0 1466h640v-626h351q345 0 452.5 -128t107.5 -288q0 -184 -124.5 -304t-423.5 -120h-557v1293h-446v173zM640 165h355q183 0 265 61.5t82 195.5q0 91 -48.5 153.5t-128.5 80t-266 17.5h-259v-508z" />
<glyph unicode="&#x42b;" horiz-adv-x="1813" d="M168 1466h194v-626h350q344 0 452.5 -127t108.5 -288q0 -170 -116 -297.5t-431 -127.5h-558v1466zM362 165h355q183 0 265.5 61.5t82.5 196.5q0 92 -50 154t-129 79t-264 17h-260v-508zM1449 1466h194v-1466h-194v1466z" />
<glyph unicode="&#x42c;" horiz-adv-x="1344" d="M165 1466h194v-626h350q245 0 355 -57t158 -155t48 -202q0 -170 -116 -298t-432 -128h-557v1466zM359 165h355q216 0 281.5 76.5t65.5 184.5q0 88 -47.5 149.5t-126.5 79.5t-268 18h-260v-508z" />
<glyph unicode="&#x42d;" horiz-adv-x="1472" d="M615 843v-173h545q-11 -247 -137 -389.5t-323 -142.5q-350 0 -439 372l-187 -49q127 -486 612 -486q347 0 516.5 223.5t158.5 550.5q0 200 -75.5 365t-231.5 271t-372 106q-228 0 -381.5 -113t-207.5 -314l190 -50q83 307 400 307q214 0 335.5 -129t133.5 -349h-537z" />
<glyph unicode="&#x42e;" horiz-adv-x="2069" d="M164 1466h194v-658h282q21 312 205 497.5t456 185.5q287 0 475.5 -202t188.5 -548q0 -360 -188 -563t-481 -203q-266 0 -443.5 175.5t-208.5 485.5h-286v-636h-194v1466zM835 726q0 -278 128 -431.5t336 -153.5q213 0 340 154t127 443q0 274 -125 431.5t-338 157.5 q-217 0 -342.5 -159.5t-125.5 -441.5z" />
<glyph unicode="&#x42f;" horiz-adv-x="1479" d="M1318 0v1466h-650q-196 0 -298 -39.5t-163 -139.5t-61 -221q0 -156 101 -263t312 -136q-77 -37 -117 -73q-85 -78 -161 -195l-255 -399h244l194 305q85 132 140 202t98.5 98t88.5 39q33 7 108 7h225v-651h194zM1124 819h-417q-133 0 -208 27.5t-114 88t-39 131.5 q0 104 75.5 171t238.5 67h464v-485z" />
<glyph unicode="&#x430;" d="M828 131q-100 -85 -192.5 -120t-198.5 -35q-175 0 -269 85.5t-94 218.5q0 78 35.5 142.5t93 103.5t129.5 59q53 14 160 27q218 26 321 62q1 37 1 47q0 110 -51 155q-69 61 -205 61q-127 0 -187.5 -44.5t-89.5 -157.5l-176 24q24 113 79 182.5t159 107t241 37.5 q136 0 221 -32t125 -80.5t56 -122.5q9 -46 9 -166v-240q0 -251 11.5 -317.5t45.5 -127.5h-188q-28 56 -36 131zM813 533q-98 -40 -294 -68q-111 -16 -157 -36t-71 -58.5t-25 -85.5q0 -72 54.5 -120t159.5 -48q104 0 185 45.5t119 124.5q29 61 29 180v66z" />
<glyph unicode="&#x431;" horiz-adv-x="1173" d="M913 1501l159 -2q-11 -107 -47.5 -149t-94 -54t-225.5 -12q-223 0 -304 -43t-116.5 -137.5t-39.5 -243.5q68 101 159 151.5t205 50.5q209 0 346 -143.5t137 -388.5q0 -186 -69 -305t-163.5 -184t-257.5 -65q-189 0 -294 86.5t-161 221.5t-56 470q0 421 142.5 567 t438.5 146q184 0 209 6t32 28zM904 535q0 166 -78.5 272t-221.5 106q-149 0 -230 -112t-81 -299q0 -185 89.5 -283t220.5 -98q134 0 217.5 113.5t83.5 300.5z" />
<glyph unicode="&#x432;" horiz-adv-x="1088" d="M136 1062h415q153 0 227.5 -25.5t128 -93.5t53.5 -163q0 -76 -31.5 -132.5t-94.5 -94.5q75 -25 124.5 -93.5t49.5 -162.5q-10 -151 -108 -224t-285 -73h-479v1062zM316 615h192q115 0 158 12t77 48.5t34 87.5q0 84 -59.5 117t-203.5 33h-198v-298zM316 148h237 q153 0 210 35.5t60 122.5q0 51 -33 94.5t-86 55t-170 11.5h-218v-319z" />
<glyph unicode="&#x433;" horiz-adv-x="747" d="M136 1062h611v-149h-431v-913h-180v1062z" />
<glyph unicode="&#x434;" horiz-adv-x="1195" d="M277 1062h740v-914h115v-449h-148v301h-836v-301h-148v449h95q190 258 182 914zM427 913q-20 -517 -160 -765h571v765h-411z" />
<glyph unicode="&#x435;" d="M862 342l186 -23q-44 -163 -163 -253t-304 -90q-233 0 -369.5 143.5t-136.5 402.5q0 268 138 416t358 148q213 0 348 -145t135 -408q0 -16 -1 -48h-792q10 -175 99 -268t222 -93q99 0 169 52t111 166zM271 633h593q-12 134 -68 201q-86 104 -223 104q-124 0 -208.5 -83 t-93.5 -222z" />
<glyph unicode="&#x436;" horiz-adv-x="1370" d="M777 1062v-459q86 0 121 33t102 192q63 151 113 193q49 41 156 41h66v-149l-49 1q-72 0 -92 -21q-21 -22 -64 -131q-40 -104 -74 -144t-106 -73q117 -31 228 -216l198 -329h-198l-193 329q-59 100 -103 131t-105 31v-491h-184v491q-60 0 -104 -30.5t-103 -131.5 l-193 -329h-198l197 329q112 185 229 216q-80 37 -112 80.5t-96 207.5q-22 55 -47 68q-26 13 -77 13q-13 0 -53 -1v149h25q104 0 146.5 -12.5t76 -53t87.5 -168.5q66 -157 100.5 -191t121.5 -34v459h184z" />
<glyph unicode="&#x437;" horiz-adv-x="939" d="M370 480v141q114 1 155.5 9t78.5 48t37 100q0 73 -48.5 116.5t-125.5 43.5q-152 0 -213 -179l-171 28q80 299 386 299q170 0 266.5 -93t96.5 -222q0 -130 -126 -207q80 -43 120 -109.5t40 -157.5q0 -143 -104 -232t-291 -89q-363 0 -421 323l169 36q23 -102 93.5 -158 t161.5 -56t151.5 51.5t60.5 131.5q0 62 -38 108t-81 57.5t-156 11.5q-9 0 -41 -1z" />
<glyph unicode="&#x438;" horiz-adv-x="1144" d="M135 1062h180v-810l499 810h194v-1062h-180v805l-499 -805h-194v1062z" />
<glyph unicode="&#x439;" horiz-adv-x="1144" d="M135 1062h180v-810l499 810h194v-1062h-180v805l-499 -805h-194v1062zM760 1464h123q-15 -125 -91.5 -192t-203.5 -67q-128 0 -204.5 66.5t-91.5 192.5h123q14 -68 55.5 -101.5t111.5 -33.5q81 0 122.5 32.5t55.5 102.5z" />
<glyph unicode="&#x43a;" horiz-adv-x="896" d="M134 1062h180v-459q86 0 120.5 33t101.5 192q53 126 86 166t76 54t138 14h36v-149l-50 1q-71 0 -91 -21q-21 -22 -64 -131q-41 -104 -75 -144t-105 -73q116 -31 228 -216l197 -329h-198l-192 329q-59 99 -103 130.5t-105 31.5v-491h-180v1062z" />
<glyph unicode="&#x43b;" horiz-adv-x="1195" d="M223 1062h836v-1062h-179v913h-477v-529q0 -185 -12 -244t-66 -103t-156 -44q-63 0 -145 8v150h79q56 0 80 11.5t32 36.5t8 163v700z" />
<glyph unicode="&#x43c;" horiz-adv-x="1408" d="M140 1062h280l279 -850l310 850h259v-1062h-180v855l-314 -855h-161l-297 896v-896h-176v1062z" />
<glyph unicode="&#x43d;" horiz-adv-x="1131" d="M136 1062h180v-442h499v442h180v-1062h-180v471h-499v-471h-180v1062z" />
<glyph unicode="&#x43e;" d="M68 531q0 295 164 437q137 118 334 118q219 0 358 -143.5t139 -396.5q0 -205 -61.5 -322.5t-179 -182.5t-256.5 -65q-223 0 -360.5 143t-137.5 412zM253 531q0 -204 89 -305.5t224 -101.5q134 0 223 102t89 311q0 197 -89.5 298.5t-222.5 101.5q-135 0 -224 -101 t-89 -305z" />
<glyph unicode="&#x43f;" horiz-adv-x="1109" d="M136 1062h838v-1062h-180v913h-478v-913h-180v1062z" />
<glyph unicode="&#x440;" d="M135 -407v1469h164v-138q58 81 131 121.5t177 40.5q136 0 240 -70t157 -197.5t53 -279.5q0 -163 -58.5 -293.5t-170 -200t-234.5 -69.5q-90 0 -161.5 38t-117.5 96v-517h-180zM298 525q0 -205 83 -303t201 -98q120 0 205.5 101.5t85.5 314.5q0 203 -83.5 304t-199.5 101 q-115 0 -203.5 -107.5t-88.5 -312.5z" />
<glyph unicode="&#x441;" horiz-adv-x="1024" d="M828 389l177 -23q-29 -183 -148.5 -286.5t-293.5 -103.5q-218 0 -350.5 142.5t-132.5 408.5q0 172 57 301t173.5 193.5t253.5 64.5q173 0 283 -87.5t141 -248.5l-175 -27q-25 107 -88.5 161t-153.5 54q-136 0 -221 -97.5t-85 -308.5q0 -214 82 -311t214 -97q106 0 177 65 t90 200z" />
<glyph unicode="&#x442;" horiz-adv-x="938" d="M38 1062h863v-149h-342v-913h-179v913h-342v149z" />
<glyph unicode="&#x443;" horiz-adv-x="1024" d="M127 -409l-20 169q59 -16 103 -16q60 0 96 20t59 56q17 27 55 134q5 15 16 44l-403 1064h194l221 -615q43 -117 77 -246q31 124 74 242l227 619h180l-404 -1080q-65 -175 -101 -241q-48 -89 -110 -130.5t-148 -41.5q-52 0 -116 22z" />
<glyph unicode="&#x444;" horiz-adv-x="1685" d="M753 1466h180v-507q56 64 123 95.5t144 31.5q189 0 299.5 -157.5t110.5 -396.5q0 -249 -119 -402.5t-296 -153.5q-58 0 -118 18t-144 98v-499h-180v499q-54 -58 -119.5 -87t-141.5 -29q-167 0 -292 146.5t-125 419.5q0 231 113 387.5t304 156.5q80 0 145 -31.5t116 -95.5 v507zM932 527q0 -240 66 -322.5t165 -82.5q110 0 187.5 101.5t77.5 315.5q0 202 -71.5 301t-183.5 99q-120 0 -180.5 -103t-60.5 -309zM258 547q0 -225 75.5 -324t187.5 -99q117 0 175 98.5t58 295.5q0 210 -61 315t-184 105q-111 0 -181 -102.5t-70 -288.5z" />
<glyph unicode="&#x445;" horiz-adv-x="1024" d="M15 0l388 552l-359 510h225l163 -249q46 -71 74 -119q44 66 81 117l179 251h215l-367 -500l395 -562h-221l-218 330l-58 89l-279 -419h-218z" />
<glyph unicode="&#x446;" horiz-adv-x="1173" d="M138 1062h180v-914h498v914h180v-914h116v-449h-148v301h-826v1062z" />
<glyph unicode="&#x447;" horiz-adv-x="1067" d="M69 1062h180v-201q0 -130 15.5 -188.5t74.5 -102t148 -43.5q102 0 264 54v481h180v-1062h-180v428q-166 -52 -310 -52q-121 0 -213.5 61.5t-125.5 150.5t-33 196v278z" />
<glyph unicode="&#x448;" horiz-adv-x="1643" d="M141 1062h180v-913h410v913h180v-913h411v913h179v-1062h-1360v1062z" />
<glyph unicode="&#x449;" horiz-adv-x="1685" d="M141 1062h180v-914h410v914h180v-914h411v914h179v-914h119v-449h-149v301h-1330v1062z" />
<glyph unicode="&#x44a;" horiz-adv-x="1280" d="M40 1062h475v-415h229q243 0 353 -94.5t110 -231.5q0 -142 -106.5 -231.5t-314.5 -89.5h-451v913h-295v149zM515 146h189q172 0 244 41.5t72 133.5q0 84 -61.5 130t-230.5 46h-213v-351z" />
<glyph unicode="&#x44b;" horiz-adv-x="1472" d="M1146 1062h180v-1062h-180v1062zM139 1062h180v-415h228q223 0 343.5 -86.5t120.5 -238.5q0 -133 -100.5 -227.5t-321.5 -94.5h-450v1062zM319 148h189q171 0 244 42t73 131q0 69 -54 123t-239 54h-213v-350z" />
<glyph unicode="&#x44c;" horiz-adv-x="1067" d="M132 1062h180v-415h228q223 0 343.5 -86.5t120.5 -238.5q0 -133 -100.5 -227.5t-321.5 -94.5h-450v1062zM312 148h189q171 0 244 42t73 131q0 69 -54 123t-239 54h-213v-350z" />
<glyph unicode="&#x44d;" horiz-adv-x="1045" d="M404 618v-148h375q-17 -173 -89.5 -259.5t-201.5 -86.5q-228 0 -269 264l-176 -23q28 -175 145.5 -282t307.5 -107q226 -13 350 143.5t118 411.5q0 259 -129 407t-352 148q-178 0 -288 -94.5t-134 -243.5l175 -28q44 217 253 217q120 0 196.5 -88.5t93.5 -230.5h-375z " />
<glyph unicode="&#x44e;" horiz-adv-x="1536" d="M137 1062h180v-444h218q24 228 142.5 348t307.5 120q161 0 254 -65t153.5 -179t60.5 -307q0 -275 -125 -417t-339 -142q-199 0 -319 132t-135 362h-218v-470h-180v1062zM995 933q-132 0 -205.5 -101.5t-73.5 -284.5q0 -219 74 -321t198 -102q123 0 201.5 94.5t78.5 304.5 q0 205 -68 307.5t-205 102.5z" />
<glyph unicode="&#x44f;" horiz-adv-x="1109" d="M971 1062v-1062h-179v414h-104q-95 0 -141.5 -24.5t-135.5 -157.5l-157 -232h-223l194 286q89 131 177 148q-154 21 -228.5 111t-74.5 207q0 138 97.5 224t282.5 86h492zM792 913h-256q-161 0 -207.5 -50t-46.5 -117q0 -95 68.5 -139.5t242.5 -44.5h199v351z" />
<glyph unicode="&#x450;" d="M862 342l186 -23q-44 -163 -163 -253t-304 -90q-233 0 -369.5 143.5t-136.5 402.5q0 268 138 416t358 148q213 0 348 -145t135 -408q0 -16 -1 -48h-792q10 -175 99 -268t222 -93q99 0 169 52t111 166zM271 633h593q-12 134 -68 201q-86 104 -223 104q-124 0 -208.5 -83 t-93.5 -222zM686 1194h-145l-231 280h241z" />
<glyph unicode="&#x451;" d="M862 342l186 -23q-44 -163 -163 -253t-304 -90q-233 0 -369.5 143.5t-136.5 402.5q0 268 138 416t358 148q213 0 348 -145t135 -408q0 -16 -1 -48h-792q10 -175 99 -268t222 -93q99 0 169 52t111 166zM271 633h593q-12 134 -68 201q-86 104 -223 104q-124 0 -208.5 -83 t-93.5 -222zM284 1270v205h188v-205h-188zM657 1270v205h188v-205h-188z" />
<glyph unicode="&#x452;" d="M135 1217h-134l-1 119h135v130h179v-130h343v-119h-343v-278q61 74 141.5 110.5t179.5 36.5q175 0 270 -92t95 -321v-731q0 -238 -76 -305.5t-190 -67.5q-79 0 -142 19l34 153q52 -14 84 -14q47 0 78.5 31.5t31.5 187.5v727q0 129 -56.5 193.5t-169.5 64.5 q-99 0 -189.5 -69t-90.5 -281v-581h-179v1217z" />
<glyph unicode="&#x453;" horiz-adv-x="747" d="M136 1062h611v-149h-431v-913h-180v1062zM342 1194l133 280h236l-220 -280h-149z" />
<glyph unicode="&#x454;" horiz-adv-x="1045" d="M641 618v-148h-375q17 -173 89.5 -259.5t201.5 -86.5q228 0 269 264l176 -23q-28 -175 -145.5 -282t-307.5 -107q-226 -13 -350 143.5t-118 411.5q0 259 129 407t352 148q178 0 288 -94.5t134 -243.5l-175 -28q-44 217 -253 217q-120 0 -196.5 -88.5t-93.5 -230.5h375z " />
<glyph unicode="&#x455;" horiz-adv-x="1024" d="M63 317l178 28q15 -107 83.5 -164t191.5 -57q124 0 184 50.5t60 118.5q0 61 -53 96q-37 24 -184 61q-198 50 -274.5 86.5t-116 101t-39.5 142.5q0 71 32.5 131.5t88.5 100.5q42 31 114.5 52.5t155.5 21.5q125 0 219.5 -36t139.5 -97.5t62 -164.5l-176 -24 q-12 82 -69.5 128t-162.5 46q-124 0 -177 -41t-53 -96q0 -35 22 -63q22 -29 69 -48q27 -10 159 -46q191 -51 266.5 -83.5t118.5 -94.5t43 -154q0 -90 -52.5 -169.5t-151.5 -123t-224 -43.5q-207 0 -315.5 86t-138.5 255z" />
<glyph unicode="&#x456;" horiz-adv-x="455" d="M136 1259v207h180v-207h-180zM136 0v1062h180v-1062h-180z" />
<glyph unicode="&#x457;" horiz-adv-x="569" d="M198 0v1062h180v-1062h-180zM9 1270v205h188v-205h-188zM382 1270v205h188v-205h-188z" />
<glyph unicode="&#x458;" horiz-adv-x="455" d="M134 1257v209h180v-209h-180zM-94 -412l34 153q54 -14 85 -14q55 0 82 36.5t27 182.5v1116h180v-1120q0 -196 -51 -273q-65 -100 -216 -100q-73 0 -141 19z" />
<glyph unicode="&#x459;" horiz-adv-x="1856" d="M1092 1062v-415h229q220 0 341.5 -86t121.5 -239q0 -128 -98 -225t-324 -97h-450v913h-499v-529q0 -175 -19.5 -247t-75 -107.5t-159.5 -35.5q-29 0 -140 6v147q71 -10 111 -10q63 0 83 39t20 186v700h859zM1092 148h189q172 0 245 41.5t73 131.5q0 70 -53.5 123.5 t-239.5 53.5h-214v-350z" />
<glyph unicode="&#x45a;" horiz-adv-x="1664" d="M901 620h229q222 0 342.5 -83t120.5 -228q0 -129 -101 -219t-321 -90h-450v471h-410v-471h-180v1062h180v-442h410v442h180v-442zM901 141h189q173 0 245 39.5t72 123.5q0 66 -53.5 116.5t-239.5 50.5h-213v-330z" />
<glyph unicode="&#x45b;" d="M135 1336v130h179v-130h343v-119h-343v-278q61 74 141.5 110.5t179.5 36.5q175 0 270 -92t95 -321v-673h-180v673q0 129 -56.5 193.5t-169.5 64.5q-99 0 -189.5 -69t-90.5 -281v-581h-179v1217h-134l-1 119h135z" />
<glyph unicode="&#x45c;" horiz-adv-x="896" d="M134 1062h180v-459q86 0 120.5 33t101.5 192q53 126 86 166t76 54t138 14h36v-149l-50 1q-71 0 -91 -21q-21 -22 -64 -131q-41 -104 -75 -144t-105 -73q116 -31 228 -216l197 -329h-198l-192 329q-59 99 -103 130.5t-105 31.5v-491h-180v1062zM342 1194l133 280h236 l-220 -280h-149z" />
<glyph unicode="&#x45d;" horiz-adv-x="1144" d="M135 1062h180v-810l499 810h194v-1062h-180v805l-499 -805h-194v1062zM675 1194h-145l-231 280h241z" />
<glyph unicode="&#x45e;" horiz-adv-x="1024" d="M127 -409l-20 169q59 -16 103 -16q60 0 96 20t59 56q17 27 55 134q5 15 16 44l-403 1064h194l221 -615q43 -117 77 -246q31 124 74 242l227 619h180l-404 -1080q-65 -175 -101 -241q-48 -89 -110 -130.5t-148 -41.5q-52 0 -116 22zM697 1464h123q-15 -125 -91.5 -192 t-203.5 -67q-128 0 -204.5 66.5t-91.5 192.5h123q14 -68 55.5 -101.5t111.5 -33.5q81 0 122.5 32.5t55.5 102.5z" />
<glyph unicode="&#x45f;" horiz-adv-x="1131" d="M640 0v-302h-149v302h-355v1062h180v-914h499v914h180v-1062h-355z" />
<glyph unicode="&#x460;" horiz-adv-x="2740" d="M2631 726q0 -338 -201 -543q-204 -208 -548 -208q-267 0 -512 160q-245 -160 -512 -160q-344 0 -548 208q-201 205 -201 543q0 349 197 557t537 208q278 0 432 -139l-123 -127q-118 100 -308 100q-264 0 -405 -168q-130 -156 -130 -419q0 -269 136 -425 q142 -163 402 -163q108 0 227 41q124 43 201 111v445h190v-445q77 -68 201 -111q119 -41 227 -41q260 0 402 163q136 156 136 425q0 263 -130 419q-141 168 -405 168q-190 0 -308 -100l-123 127q154 139 432 139q340 0 537 -208t197 -557z" />
<glyph unicode="&#x461;" horiz-adv-x="1278" d="M1262 1062l-332 -1062h-189l-135 357l-116 -357h-189l-227 599q-40 105 -58 463h186q4 -106 10 -190q14 -201 36 -259l148 -394l116 386q-38 110 -56 457h186q4 -106 10 -190q14 -201 36 -259l148 -394l251 843h175z" />
<glyph unicode="&#x462;" horiz-adv-x="1593" d="M1519 426q0 -426 -548 -426h-557v1073h-394v173h394v220h194v-220h394v-173h-394v-233h350q185 0 292 -33q157 -49 221 -179q48 -98 48 -202zM1310 426q0 189 -174 229q-79 18 -268 18h-260v-508h355q164 0 244 49q103 61 103 212z" />
<glyph unicode="&#x463;" horiz-adv-x="1255" d="M1192 322q0 -167 -133 -252q-112 -70 -289 -70h-450v930h-300v132h300v404h180v-404h300v-132h-300v-283h228q192 0 312 -66q152 -83 152 -259zM1006 321q0 177 -293 177h-213v-350h189q317 0 317 173z" />
<glyph unicode="&#x464;" horiz-adv-x="1945" d="M1871 461q-127 -486 -612 -486q-346 0 -516 224q-146 193 -158 471h-200v-670h-194v1466h194v-623h205q15 151 70 271q82 180 244 280q158 97 359 97q221 0 374 -107q159 -111 215 -320l-190 -50q-83 307 -400 307q-215 0 -339 -133q-118 -126 -130 -345h537v-173h-545 q10 -225 120 -369q125 -163 340 -163q350 0 439 372z" />
<glyph unicode="&#x465;" horiz-adv-x="1461" d="M1418 365q-28 -176 -145 -282q-111 -101 -308 -107q-230 -7 -350 144q-107 135 -117 350h-182v-470h-180v1062h180v-444h186q21 214 139 337q126 131 337 131q167 0 279 -86q117 -91 143 -252l-175 -28q-44 217 -253 217q-127 0 -206 -99q-68 -86 -84 -220h375v-148h-375 q34 -346 291 -346q228 0 269 264z" />
<glyph unicode="&#x466;" horiz-adv-x="1368" d="M1362 0h-211l-208 576h-172v-576h-180v576h-177l-215 -576h-198l583 1466h200zM890 729l-207 576l-214 -576h421z" />
<glyph unicode="&#x467;" horiz-adv-x="1024" d="M1020 0h-185l-136 356h-97v-356h-180v356h-93l-133 -356h-190l424 1062h168zM653 484l-141 366l-137 -366h278z" />
<glyph unicode="&#x468;" horiz-adv-x="1838" d="M1832 0h-211l-208 576h-172v-576h-180v576h-177l-215 -576h-198l229 576h-315v-576h-194v1466h194v-737h376l293 737h200zM1360 729l-207 576l-214 -576h421z" />
<glyph unicode="&#x469;" horiz-adv-x="1424" d="M1420 0h-185l-136 356h-97v-356h-180v356h-93l-133 -356h-190l142 356h-232v-356h-180v1062h180v-578h283l231 578h168zM1053 484l-141 366l-137 -366h278z" />
<glyph unicode="&#x46a;" horiz-adv-x="1697" d="M1577 0h-195v145q0 257 -113 360t-324 116v-621h-194v621q-233 -19 -333 -117q-104 -104 -104 -335v-169h-194v205q0 267 151 422q125 128 373 154l-458 685h1344l-475 -686q522 -57 522 -592v-188zM1193 1293h-661l328 -517z" />
<glyph unicode="&#x46b;" horiz-adv-x="1403" d="M1281 0h-179v70q0 198 -64 267.5t-245 69.5v-407h-183v407q-181 0 -245 -69.5t-64 -267.5v-70h-179v70q0 245 85 354q90 115 314 131l-305 507h974l-307 -507q224 -16 313 -131q85 -109 85 -354v-70zM921 916h-433l214 -374z" />
<glyph unicode="&#x46c;" horiz-adv-x="2157" d="M2037 0h-195v145q0 257 -113 360t-324 116v-621h-194v621q-233 -19 -333 -117q-104 -104 -104 -335v-169h-194v205q0 263 145 416h-340v-621h-194v1466h194v-672h710l-449 672h1344l-475 -686q522 -57 522 -592v-188zM1653 1293h-661l328 -517z" />
<glyph unicode="&#x46d;" horiz-adv-x="1776" d="M1654 0h-179v70q0 198 -64 267.5t-245 69.5v-407h-183v407q-181 0 -245 -69.5t-64 -267.5v-70h-179v70q0 228 73 337h-252v-407h-180v1062h180v-507h578l-305 507h974l-307 -507q224 -16 313 -131q85 -109 85 -354v-70zM1294 916h-433l214 -374z" />
<glyph unicode="&#x46e;" horiz-adv-x="1237" d="M1154 419q0 -444 -606 -444q-90 0 -161 -24q-99 -34 -99 -102q0 -114 175 -114q63 0 197.5 48t192.5 48q96 0 154 -72q53 -67 53 -166h-152q0 75 -65 75q-20 0 -160 -49.5t-220 -49.5q-155 0 -249 61q-112 72 -112 219q0 163 156 238q113 54 290 54q402 0 402 270 q0 136 -112 206q-94 58 -238 58h-93v169q128 0 179 10q89 17 147.5 79t58.5 150q0 111 -85 177q-77 61 -191 61q-231 0 -298 -202q-30 -91 -30 -137l-186 42q58 392 382 455l-159 347h145l148 -335l115 230q59 117 158 117q88 0 130 -92l-84 -45q-14 31 -31 31 q-24 0 -54 -60l-97 -196q103 -24 185 -88q145 -113 145 -296q0 -205 -194 -318q121 -33 192 -130.5t71 -224.5z" />
<glyph unicode="&#x46f;" horiz-adv-x="939" d="M899 -407h-152q0 75 -65 75q-11 0 -128.5 -49.5t-191.5 -49.5q-145 0 -232 61q-99 70 -99 210q0 150 134 223q106 58 269 58q99 0 169 41q83 49 83 142q0 54 -34 103t-85 63q-40 11 -156 11q-9 0 -41 -1v141q105 1 125 4q146 22 146 153q0 77 -48 118.5t-126 41.5 q-152 0 -213 -179l-171 28q61 228 254 282l-161 352h145l148 -335l115 230q59 117 158 117q88 0 130 -92l-84 -45q-14 31 -31 31q-25 0 -54 -60l-98 -200q65 -20 117 -61q110 -88 110 -235q0 -130 -126 -207q160 -86 160 -267q0 -165 -136 -250q-114 -71 -289 -71 q-85 0 -145 -26q-80 -36 -80 -110q0 -122 146 -122q55 0 168.5 56.5t161.5 56.5q96 0 154 -72q53 -67 53 -166z" />
<glyph unicode="&#x470;" horiz-adv-x="1631" d="M1514 1052q0 -589 -632 -599v-453h-194v453q-149 0 -256 89q-91 76 -132 199l-243 725h194l243 -689q56 -158 194 -158v847h194v-847q233 14 336 129q101 112 101 347v371h195v-414z" />
<glyph unicode="&#x471;" horiz-adv-x="1410" d="M1287 544q0 -189 -27 -275q-40 -128 -167 -210q-118 -76 -323 -83v-383h-180v383q-255 0 -323 280l-195 806h179l185 -777q38 -158 154 -158v935h180v-935q254 14 312 182q26 75 26 229v524h179v-518z" />
<glyph unicode="&#x472;" horiz-adv-x="1593" d="M1498 731q0 -328 -184 -537q-194 -219 -517 -219q-207 0 -374 103q-174 106 -253 292q-74 175 -74 344q0 341 177 552q190 226 525 226q326 0 518 -221q182 -209 182 -540zM1294 819q-19 219 -136 350q-140 156 -359 156q-215 0 -359 -147q-118 -120 -139 -359 q128 70 271 70q80 0 244.5 -70t261.5 -70q123 0 216 70zM1294 647q-91 -69 -216 -69q-97 0 -261.5 70t-244.5 70q-146 0 -274 -70q15 -208 134 -347q136 -160 364 -160q218 0 353 146q126 137 145 360z" />
<glyph unicode="&#x473;" d="M1063 546q0 -372 -240 -505q-117 -65 -257 -65q-244 0 -376 159q-122 148 -122 396q0 295 164 437q137 118 334 118q235 0 370 -155q127 -146 127 -385zM872 633q-17 128 -83 203q-89 101 -223 101q-135 0 -224 -101q-66 -75 -83 -203q80 50 152 50q51 0 149.5 -50 t151.5 -50q95 0 160 50zM877 485q-64 -49 -165 -49q-53 0 -151.5 50t-149.5 50q-76 0 -157 -51q8 -155 81 -251q83 -110 231 -110q147 0 230 111q72 96 81 250z" />
<glyph unicode="&#x474;" horiz-adv-x="1645" d="M1629 1366l-89 -132q-106 72 -167 72q-86 0 -130 -112l-467 -1194h-199l-568 1466h210l381 -1065q47 -131 77 -240q32 114 79 240l329 887q76 204 244 204q121 0 300 -126z" />
<glyph unicode="&#x475;" horiz-adv-x="1292" d="M1276 974l-84 -135q-116 67 -184 67q-67 0 -111 -116l-299 -790h-168l-404 1062h190l228 -636q37 -104 68 -214q24 83 67 202l165 454q39 108 87 156q61 62 163 62q110 0 282 -112z" />
<glyph unicode="&#x476;" horiz-adv-x="1645" d="M1629 1366l-89 -132q-106 72 -167 72q-86 0 -130 -112l-467 -1194h-199l-568 1466h210l381 -1065q47 -131 77 -240q32 114 79 240l329 887q76 204 244 204q121 0 300 -126zM964 1554h-144l-211 280h234zM617 1554h-151l-207 280h231z" />
<glyph unicode="&#x477;" horiz-adv-x="1292" d="M1276 974l-84 -135q-116 67 -184 67q-67 0 -111 -116l-299 -790h-168l-404 1062h190l228 -636q37 -104 68 -214q24 83 67 202l165 454q39 108 87 156q61 62 163 62q110 0 282 -112zM803 1194h-144l-211 280h234zM456 1194h-151l-207 280h231z" />
<glyph unicode="&#x478;" horiz-adv-x="2200" d="M2182 1062l-404 -1080q-66 -176 -101 -241q-93 -172 -258 -172q-52 0 -116 22l-20 169q59 -16 103 -16q107 0 155 76q17 28 71 178l-403 1064h194l298 -861l301 861h180zM1179 732q0 -351 -126 -545q-138 -211 -414 -211t-414 211q-126 194 -126 545q0 352 126 547 q139 213 414 213t414 -213q126 -195 126 -547zM979 732q0 283 -67 423q-81 170 -273 170t-273 -170q-67 -140 -67 -423q0 -282 67 -421q81 -168 273 -168t273 168q67 139 67 421z" />
<glyph unicode="&#x479;" horiz-adv-x="1836" d="M1818 1062l-404 -1080q-66 -176 -101 -241q-93 -172 -258 -172q-52 0 -116 22l-20 169q59 -16 103 -16q107 0 155 76q17 28 71 178l-403 1064h194l298 -861l301 861h180zM825 531q0 -246 -97 -397q-103 -158 -282 -158t-281 158q-97 150 -97 397t97 397q102 158 281 158 t282 -158q97 -151 97 -397zM640 531q0 166 -43 275q-51 131 -151 131t-151 -131q-42 -109 -42 -275t42 -275q51 -131 151 -131t151 131q43 109 43 275z" />
<glyph unicode="&#x47a;" horiz-adv-x="1706" d="M1672 733q0 -305 -172 -506q-177 -208 -482 -240q-48 -108 -167 -108q-117 0 -165 108q-305 32 -482 240q-172 201 -172 506t172 506q177 208 482 240q48 108 165 108q119 0 167 -108q305 -32 482 -240q172 -201 172 -506zM1472 733q0 250 -134 409q-128 150 -330 168 q-51 -89 -157 -89q-104 0 -155 89q-202 -18 -329 -168q-135 -159 -135 -409t135 -409q127 -150 329 -168q51 89 155 89q106 0 157 -89q202 18 330 168q134 159 134 409z" />
<glyph unicode="&#x47b;" horiz-adv-x="1254" d="M1227 531q0 -208 -117 -355q-121 -154 -326 -184q-42 -107 -156 -107q-115 0 -157 107q-205 30 -326 184q-117 147 -117 355t117 356q121 154 326 184q42 107 157 107q114 0 156 -107q205 -30 326 -184q117 -148 117 -356zM1042 531q0 154 -72 255t-201 130 q-50 -76 -141 -76q-92 0 -142 76q-129 -29 -201 -130t-72 -255t72 -254.5t201 -129.5q50 76 142 76q91 0 141 -76q129 29 201 129.5t72 254.5z" />
<glyph unicode="&#x47c;" horiz-adv-x="2439" d="M1929 1660q-147 0 -277 56q-101 51 -202 103q-116 56 -230 56q-201 0 -254 -215h-138q30 146 128 239q111 105 277 105q134 0 341 -104.5t355 -104.5v-135zM1307 1698q0 -85 -31 -129.5t-111 -77.5l-35 67q51 21 65 35q22 21 22 67h-77v140h167v-102zM2330 726 q0 -344 -175 -543q-184 -208 -524 -208q-234 0 -412 100q-177 -100 -411 -100q-340 0 -524 208q-175 199 -175 543q0 348 181 551q190 214 533 214q168 0 312 -85l-101 -142q-93 61 -210 61q-262 0 -394 -167q-121 -152 -121 -420q0 -588 488 -588q235 0 422 142 q188 -142 423 -142q488 0 488 588q0 268 -120 420q-133 167 -395 167q-117 0 -210 -61l-101 142q144 85 312 85q343 0 533 -214q181 -203 181 -551z" />
<glyph unicode="&#x47d;" horiz-adv-x="1744" d="M1574 1340q-147 0 -277 56q-101 51 -202 103q-116 56 -230 56q-201 0 -254 -215h-138q30 146 128 239q111 105 277 105q134 0 341 -104.5t355 -104.5v-135zM952 1378q0 -85 -31 -129.5t-111 -77.5l-35 67q51 21 65 35q22 21 22 67h-77v140h167v-102zM1664 527 q0 -245 -117 -391q-127 -160 -366 -160q-170 0 -310 70q-138 -70 -308 -70q-239 0 -366 160q-117 146 -117 391q0 247 116 396q127 163 368 163v-148q-299 0 -299 -406q0 -408 296 -408q168 0 310 96q144 -96 312 -96q296 0 296 408q0 406 -306 406v148q245 0 373 -161 q118 -149 118 -398z" />
<glyph unicode="&#x47e;" horiz-adv-x="2740" d="M2631 726q0 -338 -201 -543q-204 -208 -548 -208q-267 0 -512 160q-245 -160 -512 -160q-344 0 -548 208q-201 205 -201 543q0 349 197 557t537 208q278 0 432 -139l-123 -127q-118 100 -308 100q-264 0 -405 -168q-130 -156 -130 -419q0 -269 136 -425 q142 -163 402 -163q108 0 227 41q124 43 201 111v445h190v-445q77 -68 201 -111q119 -41 227 -41q260 0 402 163q136 156 136 425q0 263 -130 419q-141 168 -405 168q-190 0 -308 -100l-123 127q154 139 432 139q340 0 537 -208t197 -557zM1817 1808l-90 -195h-34l-47 101 h-222l-47 -101h-34l-47 101h-222l-47 -101h-34l-90 195h914z" />
<glyph unicode="&#x47f;" horiz-adv-x="1278" d="M1262 1062l-332 -1062h-189l-135 357l-116 -357h-189l-227 599q-40 105 -58 463h186q4 -106 10 -190q14 -201 36 -259l148 -394l116 386q-38 110 -56 457h186q4 -106 10 -190q14 -201 36 -259l148 -394l251 843h175zM1077 1366l-90 -195h-34l-47 101h-222l-47 -101h-34 l-47 101h-222l-47 -101h-34l-90 195h914z" />
<glyph unicode="&#x480;" horiz-adv-x="1479" d="M1373 1064l-191 -45q-98 306 -392 306q-158 0 -272 -74q-121 -79 -170 -224q-46 -137 -46 -282q0 -401 224 -535q115 -69 249 -69q55 0 109 12v-560h-194v388q-167 15 -284 91q-153 100 -234 296q-70 172 -70 376q0 474 337 659q161 88 355 88q217 0 368 -110t211 -317z " />
<glyph unicode="&#x481;" horiz-adv-x="1024" d="M988 750l-175 -27q-50 215 -242 215q-306 0 -306 -406q0 -408 296 -408q54 0 95 13v-544h-180v390q-195 20 -300 176q-96 143 -96 368q0 249 118 398q128 161 366 161q170 0 279 -84q113 -88 145 -252z" />
<glyph unicode="&#x482;" horiz-adv-x="1031" d="M1011 908l-37 -138l-353 94l-82 -291l356 -95l-37 -138l-357 96l-129 -461h-145l139 497l-346 93l37 138l348 -94l81 291l-351 94l37 139l353 -95l127 453h144l-137 -489z" />
<glyph unicode="&#x483;" horiz-adv-x="0" d="M348 1393q0 -46 -33 -79t-79 -33h-359q1 -7 1 -18q0 -46 -33 -79t-79 -33t-79 33t-33 79t33 79t79 33h359q-1 7 -1 18q0 46 33 79t79 33t79 -33t33 -79z" />
<glyph unicode="&#x484;" horiz-adv-x="0" d="M328 1227h-65q0 57 -32 96q-35 42 -91 42q-34 0 -153 -69t-197 -69h-114v148h114q58 0 162.5 49t161.5 49q214 0 214 -246z" />
<glyph unicode="&#x485;" horiz-adv-x="0" d="M118 1172l-44 -84q-106 44 -143 101q-35 53 -35 158v127h209v-175h-96q0 -56 28 -83q19 -18 81 -44z" />
<glyph unicode="&#x486;" horiz-adv-x="0" d="M118 1347q0 -105 -35 -158q-37 -57 -143 -101l-44 84q62 26 81 44q28 27 28 83h-96v175h209v-127z" />
<glyph unicode="&#x487;" horiz-adv-x="0" d="M550 1340q-156 0 -277 56q-67 35 -202 103q-113 56 -230 56q-201 0 -254 -215h-138q32 156 139.5 250t265.5 94q124 0 346.5 -104.5t349.5 -104.5v-135z" />
<glyph unicode="&#x488;" horiz-adv-x="0" d="M861 970h-91q0 149 -120 149t-120 -149h-91q0 243 211 243t211 -243zM981 464h-91q0 149 -120 149t-120 -149h-91q0 243 211 243t211 -243zM201 1214h-91q0 149 -120 149t-120 -149h-91q0 243 211 243t211 -243zM861 -92h-91q0 149 -120 149t-120 -149h-91q0 243 211 243 t211 -243zM-439 970h-91q0 149 -120 149t-120 -149h-91q0 243 211 243t211 -243zM-559 464h-91q0 149 -120 149t-120 -149h-91q0 243 211 243t211 -243zM201 -336h-91q0 149 -120 149t-120 -149h-91q0 243 211 243t211 -243zM-439 -92h-91q0 149 -120 149t-120 -149h-91 q0 243 211 243t211 -243z" />
<glyph unicode="&#x489;" horiz-adv-x="0" d="M798 1205l-63 -63q-23 17 -48 17q-41 0 -87 -46l54 -54l-104 -104l-108 108l98 99q50 51 122 65q75 15 136 -22zM948 511h-89q-10 75 -116 75v-76h-147v153h139q74 0 133 -40q63 -42 80 -112zM60 1188h-153v139q0 73 41.5 134.5t110.5 78.5v-89q-75 -10 -75 -116h76v-147 zM718 -16q0 -51 -26 -94l-63 63q17 23 17 48q0 41 -46 87l-54 -54l-104 104l108 108l98 -98q70 -70 70 -164zM-442 979l-109 -109l-98 99q-51 52 -65 121q-15 76 22 137l63 -63q-17 -23 -17 -48q0 -41 46 -87l54 54zM-596 453h-139q-74 0 -133 40q-63 42 -80 112h89 q10 -75 116 -75v76h147v-153zM60 -199q0 -74 -40 -133q-42 -63 -112 -80v89q75 10 75 116h-76v147h153v-139zM-442 53l-99 -98q-52 -51 -121 -65q-76 -15 -137 22l63 63q23 -17 48 -17q41 0 87 46l-54 54l104 104z" />
<glyph unicode="&#x48a;" horiz-adv-x="1472" d="M1028 1809q-31 -259 -295 -259q-265 0 -296 259h123q28 -135 167 -135q151 0 178 135h123zM1496 173l-188 -580h-172l138 407h-138v1158l-781 -1158h-194v1466h176v-1161l780 1161h195v-1293h184z" />
<glyph unicode="&#x48b;" horiz-adv-x="1144" d="M865 1464q-31 -259 -295 -259q-265 0 -296 259h123q28 -135 167 -135q151 0 178 135h123zM1184 148l-208 -449h-148l148 301h-148v805l-499 -805h-194v1062h180v-810l499 810h194v-914h176z" />
<glyph unicode="&#x48c;" horiz-adv-x="1344" d="M1270 426q0 -426 -548 -426h-557v1073h-161v132h161v261h194v-261h160v-132h-160v-233h350q185 0 292 -33q157 -49 221 -179q48 -98 48 -202zM1061 426q0 189 -174 229q-79 18 -268 18h-260v-508h355q164 0 244 49q103 61 103 212z" />
<glyph unicode="&#x48d;" horiz-adv-x="1067" d="M1004 322q0 -167 -133 -252q-112 -70 -289 -70h-450v1167h-112v132h112v167h180v-167h109v-132h-109v-520h228q192 0 312 -66q152 -83 152 -259zM818 321q0 177 -293 177h-213v-350h189q317 0 317 173z" />
<glyph unicode="&#x48e;" horiz-adv-x="1366" d="M1302 649l-93 -94l-117 117q-125 -76 -364 -76h-376v-596h-194v1466h553q142 0 223 -14q214 -37 299 -210q44 -90 44 -200q0 -162 -88 -280zM1077 1036q0 88 -42 153q-45 69 -127 91q-48 13 -181 13h-375v-524h379q143 0 223 41l-109 109l93 94l110 -110q29 56 29 133z " />
<glyph unicode="&#x48f;" d="M1057 35l-93 -93l-117 116q-117 -82 -253 -82q-173 0 -279 134v-517h-180v1469h164v-138q116 162 308 162q286 0 397 -267q53 -128 53 -280q0 -164 -58 -293q-23 -51 -57 -96zM873 540q0 160 -60 269q-75 136 -223 136q-147 0 -227 -144q-65 -117 -65 -276 q0 -162 60 -268q74 -133 224 -133q83 0 150 49l-101 102l93 93l95 -95q54 99 54 267z" />
<glyph unicode="&#x490;" horiz-adv-x="1001" d="M767 1466v406h173v-579h-585v-1293h-194v1466h606z" />
<glyph unicode="&#x491;" horiz-adv-x="842" d="M631 1062v406h149v-555h-464v-913h-180v1062h495z" />
<glyph unicode="&#x492;" horiz-adv-x="1109" d="M1109 1293h-754v-494h401v-132h-401v-667h-194v667h-164v132h164v667h948v-173z" />
<glyph unicode="&#x493;" horiz-adv-x="747" d="M747 913h-431v-267h231v-132h-231v-514h-180v514h-124v132h124v416h611v-149z" />
<glyph unicode="&#x494;" horiz-adv-x="1373" d="M1281 325q0 -366 -169 -566q-161 -190 -438 -190q-189 0 -340 85.5t-170 205.5h194q17 -44 89 -80q91 -45 219 -45q198 0 309.5 151.5t111.5 421.5q0 496 -358 496q-156 0 -371 -91v-713h-194v1466h916v-173h-722v-418q216 97 397 97q277 0 412 -199q114 -168 114 -448z " />
<glyph unicode="&#x495;" horiz-adv-x="1124" d="M1048 97q0 -226 -129 -374q-134 -154 -354 -154q-170 0 -289 79q-123 81 -140 212h180q44 -143 249 -143q142 0 221 113q71 100 71 251q0 160 -92 248q-88 84 -241 84q-84 0 -208 -27v-386h-180v1062h611v-149h-431v-375q114 34 233 34q215 0 355 -130q144 -134 144 -345 z" />
<glyph unicode="&#x496;" horiz-adv-x="1891" d="M1883 -407h-172v407h-69l-244 398q-93 152 -139 198q-90 90 -214 90v-686h-199v686q-96 0 -169 -50q-66 -45 -172 -218l1 2q-11 -18 -258 -420h-241l302 488q138 223 280 262q-100 41 -158 125q-36 51 -90 187q-63 157 -109 198t-133 39l-78 -2v168q11 2 112 2 q184 0 277 -138q41 -60 103 -206q77 -180 113 -220q68 -77 220 -79v642h199v-642q150 0 220 79q37 42 113 220q62 145 101 204q93 140 272 140q95 0 118 -2v-168q-13 0 -38.5 1t-38.5 1q-103 0 -160 -71q-32 -38 -83 -166q-54 -135 -89 -186q-58 -83 -158 -126 q141 -39 279 -262l195 -315h107v-580z" />
<glyph unicode="&#x497;" horiz-adv-x="1370" d="M1360 -301h-148v301h-34l-193 329q-48 81 -82 113q-53 49 -126 49v-491h-184v491q-74 0 -126 -48q-32 -31 -81 -114l-193 -329h-198l197 329q111 185 229 216q-90 41 -135 117q-17 28 -73 171q-20 51 -44 66t-80 15q-13 0 -53 -1v149h25q106 0 147 -12q57 -17 103 -92 q19 -32 60 -130q57 -136 74 -159q49 -66 148 -66v459h184v-459q100 0 148 65q18 24 74.5 159t93.5 174q58 61 176 61h66v-149l-49 1q-76 2 -106 -39q-11 -14 -50 -113q-37 -95 -64 -131q-38 -50 -116 -86q117 -31 228 -216l109 -181h73v-449z" />
<glyph unicode="&#x498;" horiz-adv-x="1237" d="M1154 419q0 -189 -146 -316q-111 -96 -277 -120q30 -116 30 -188q0 -100 -59.5 -160.5t-159.5 -60.5q-102 0 -219 61v119q91 -46 168 -46q65 0 104.5 43t39.5 109q0 54 -20 115q-413 2 -537 439l185 48q26 -133 123 -225q101 -96 232 -96q134 0 227 66q105 75 105 204 q0 136 -112 206q-94 58 -238 58h-93v169q127 0 179 10q96 19 152 85q54 63 54 144q0 110 -85 177q-78 61 -191 61q-105 0 -184 -51q-82 -54 -114 -151q-30 -91 -30 -137l-186 42q69 467 516 467q190 0 322 -103q145 -112 145 -296q0 -205 -194 -318q121 -33 192 -130.5 t71 -224.5z" />
<glyph unicode="&#x499;" horiz-adv-x="939" d="M866 297q0 -143 -104 -232q-75 -64 -191 -82q30 -115 30 -188q0 -100 -59.5 -160.5t-159.5 -60.5q-102 0 -219 61v119q91 -46 168 -46q65 0 104.5 43t39.5 109q0 53 -21 116q-347 7 -404 323l169 36q22 -96 90 -155t165 -59q87 0 147 47q65 52 65 136q0 54 -34 103 t-85 63q-41 11 -156 11q-9 0 -41 -1v141q106 1 125 4q69 10 109 53q37 40 37 100q0 76 -48.5 118t-125.5 42q-152 0 -213 -179l-171 28q80 299 386 299q152 0 253 -80q110 -88 110 -235q0 -130 -126 -207q160 -86 160 -267z" />
<glyph unicode="&#x49a;" horiz-adv-x="1193" d="M1186 -407h-172v407h-69l-245 398q-92 150 -136 196q-90 92 -209 92v-686h-194v1466h194v-642q144 0 214 82q37 43 111 217q62 145 101 204q93 140 273 140q112 0 118 -2v-168q-13 0 -39 1t-39 1q-103 0 -160 -71q-32 -39 -83 -166q-55 -139 -89 -188q-57 -83 -158 -124 q142 -39 280 -262l195 -315h107v-580z" />
<glyph unicode="&#x49b;" horiz-adv-x="896" d="M886 -301h-148v301h-24l-192 329q-47 81 -82 113q-53 49 -126 49v-491h-180v1062h180v-459q100 0 148 65q16 21 74 160q40 96 60 128q44 73 102 92q43 14 138 14h36v-149l-50 1q-75 1 -106 -39q-10 -13 -49 -113q-37 -94 -65 -131q-38 -50 -115 -86q117 -31 228 -216 l109 -181h62v-449z" />
<glyph unicode="&#x49c;" horiz-adv-x="1193" d="M1186 0h-241l-245 398q-58 95 -105 155v-314h-120v423q-51 24 -120 24v-686h-194v1466h194v-642q71 0 120 15v403h120v-294q38 65 85 175q55 130 81 172q54 88 132 132q72 40 161 40q112 0 118 -2v-168q-13 0 -39 1t-39 1q-103 0 -160 -71q-32 -39 -83 -166 q-55 -139 -89 -188q-57 -83 -158 -124q142 -39 280 -262z" />
<glyph unicode="&#x49d;" horiz-adv-x="896" d="M912 0h-198l-192 329q-14 24 -31 49v-214h-99v311q-35 16 -78 16v-491h-180v1062h180v-459q45 0 78 10v324h99v-209q21 43 45 100q40 96 60 128q44 73 102 92q43 14 138 14h36v-149l-50 1q-75 1 -106 -39q-10 -13 -49 -113q-41 -104 -75 -144q-41 -48 -95 -73 q106 -28 218 -216z" />
<glyph unicode="&#x49e;" horiz-adv-x="1193" d="M1186 0h-241l-245 398q-92 150 -136 196q-90 92 -209 92v-686h-194v1073h-157v132h157v261h194v-261h164v-132h-164v-249q144 0 214 82q37 43 111 217q55 130 81 172q54 88 132 132q72 40 161 40q112 0 118 -2v-168q-13 0 -39 1t-39 1q-103 0 -160 -71q-32 -39 -83 -166 q-55 -139 -89 -188q-57 -83 -158 -124q142 -39 280 -262z" />
<glyph unicode="&#x49f;" horiz-adv-x="896" d="M912 0h-198l-192 329q-47 81 -82 113q-53 49 -126 49v-491h-180v1217h-133l-1 119h134v130h180v-130h343v-119h-343v-614q100 0 148 65q16 21 74 160q40 96 60 128q44 73 102 92q43 14 138 14h36v-149l-50 1q-75 1 -106 -39q-10 -13 -49 -113q-37 -94 -65 -131 q-38 -50 -115 -86q117 -31 228 -216z" />
<glyph unicode="&#x4a0;" horiz-adv-x="1519" d="M1512 0h-241l-245 398q-92 150 -136 196q-90 92 -209 92v-686h-194v1293h-446v173h640v-642q144 0 214 82q37 43 111 217q55 130 81 172q54 88 132 132q72 40 161 40q112 0 118 -2v-168q-13 0 -39 1t-39 1q-103 0 -160 -71q-32 -39 -83 -166q-55 -139 -89 -188 q-57 -83 -158 -124q142 -39 280 -262z" />
<glyph unicode="&#x4a1;" horiz-adv-x="1097" d="M1113 0h-198l-192 329q-47 81 -82 113q-53 49 -126 49v-491h-180v913h-295v149h475v-459q100 0 148 65q16 21 74 160q40 96 60 128q44 73 102 92q43 14 138 14h36v-149l-50 1q-75 1 -106 -39q-10 -13 -49 -113q-37 -94 -65 -131q-38 -50 -115 -86q117 -31 228 -216z" />
<glyph unicode="&#x4a2;" horiz-adv-x="1479" d="M1448 -407h-172v407h-156v691h-762v-691h-194v1466h194v-602h762v602h194v-1293h134v-580z" />
<glyph unicode="&#x4a3;" horiz-adv-x="1131" d="M1111 -301h-148v301h-148v471h-499v-471h-180v1062h180v-442h499v442h180v-914h116v-449z" />
<glyph unicode="&#x4a4;" horiz-adv-x="1801" d="M1760 1293h-446v-1293h-194v691h-762v-691h-194v1466h194v-602h762v602h640v-173z" />
<glyph unicode="&#x4a5;" horiz-adv-x="1327" d="M1290 913h-295v-913h-180v471h-499v-471h-180v1062h180v-442h499v442h475v-149z" />
<glyph unicode="&#x4a6;" horiz-adv-x="2328" d="M2236 325q0 -366 -169 -566q-161 -190 -438 -190q-189 0 -340.5 85.5t-170.5 205.5h195q17 -44 89 -80q91 -45 219 -45q198 0 309.5 151.5t111.5 421.5q0 496 -358 496q-156 0 -371 -91v-713h-195v1293h-764v-1293h-194v1466h1153v-591q216 97 397 97q277 0 412 -199 q114 -168 114 -448z" />
<glyph unicode="&#x4a7;" horiz-adv-x="1782" d="M1706 97q0 -226 -129 -374q-134 -154 -354 -154q-170 0 -289 79q-123 81 -140 212h180q44 -143 249 -143q142 0 221 113q71 100 71 251q0 160 -92 248q-88 84 -241 84q-84 0 -208 -27v-386h-180v913h-478v-913h-180v1062h838v-524q114 34 233 34q215 0 355 -130 q144 -134 144 -345z" />
<glyph unicode="&#x4a8;" horiz-adv-x="1542" d="M1509 38q-107 -63 -241 -63q-164 0 -291 58q-128 -58 -292 -58q-314 0 -476 220q-147 200 -147 549q0 330 144 538.5t374 208.5q134 0 221 -56l-80 -145q-58 35 -141 35q-143 0 -233 -178q-85 -166 -85 -402q0 -259 93 -417q109 -187 330 -187q66 0 124 14 q-179 195 -179 576q0 594 361 594q165 0 257 -180q82 -163 82 -414q0 -380 -183 -576q59 -14 123 -14q83 0 159 48zM1148 731q0 170 -37 288q-43 137 -120 137q-174 0 -174 -416q0 -350 162 -498q169 151 169 489z" />
<glyph unicode="&#x4a9;" horiz-adv-x="1067" d="M1042 35q-73 -59 -175 -59t-186 37q-83 -37 -185 -37q-228 0 -350 160q-111 146 -111 391q0 243 94 396q102 163 280 163q102 0 169 -54l-77 -118q-38 24 -85 24q-85 0 -139 -104q-57 -111 -57 -307q0 -199 75 -304q72 -99 201 -99q19 0 36 2q-126 152 -126 401 q0 155 72 276q80 135 203 135t203 -135q72 -121 72 -276q0 -249 -125 -401q17 -2 36 -2q47 0 108 39zM771 527q0 86 -21 166q-27 98 -70 98t-69 -98q-20 -78 -20 -166q0 -224 90 -326q90 102 90 326z" />
<glyph unicode="&#x4aa;" horiz-adv-x="1479" d="M1398 465q-61 -239 -219 -364q-122 -97 -287 -119q29 -112 29 -187q0 -100 -59.5 -160.5t-159.5 -60.5q-102 0 -219 61v119q91 -46 168 -46q65 0 104.5 43t39.5 109q0 54 -20 115q-438 6 -595 376q-78 184 -78 393q0 474 337 659q161 88 355 88q217 0 368 -110t211 -317 l-191 -45q-98 306 -392 306q-158 0 -272 -74q-121 -79 -170 -224q-46 -137 -46 -282q0 -401 224 -535q115 -69 249 -69q348 0 429 373z" />
<glyph unicode="&#x4ab;" horiz-adv-x="1024" d="M1005 366q-29 -183 -148 -286q-78 -67 -177 -91q31 -117 31 -194q0 -100 -59.5 -160.5t-159.5 -60.5q-102 0 -219 61v119q91 -46 168 -46q65 0 104.5 43t39.5 109q0 56 -20 116h-2q-237 0 -365 160q-118 148 -118 391q0 367 231 495q116 64 253 64q359 0 424 -336 l-175 -27q-50 215 -242 215q-306 0 -306 -406q0 -408 296 -408q230 0 267 265z" />
<glyph unicode="&#x4ac;" horiz-adv-x="1251" d="M1210 1293h-485v-1120h134v-580h-172v407h-156v1293h-483v173h1162v-173z" />
<glyph unicode="&#x4ad;" horiz-adv-x="938" d="M901 913h-342v-765h116v-449h-148v301h-147v913h-342v149h863v-149z" />
<glyph unicode="&#x4ae;" d="M1133 1466l-476 -840v-626h-180v626l-480 840h200l290 -516q48 -85 76 -154q25 57 82 163l274 507h214z" />
<glyph unicode="&#x4af;" horiz-adv-x="1024" d="M1005 1062l-402 -1062v-407h-180v407l-403 1062h194l221 -615q46 -127 77 -246q29 109 78 246l221 615h194z" />
<glyph unicode="&#x4b0;" d="M1133 1466l-405 -711h341v-148h-412v-607h-180v607h-415v148h341l-406 711h200l290 -516q48 -85 76 -154q25 57 82 163l274 507h214z" />
<glyph unicode="&#x4b1;" horiz-adv-x="1024" d="M1005 1062l-402 -1062h322v-132h-322v-275h-180v275h-323v132h323l-403 1062h194l221 -615q46 -127 77 -246q29 109 78 246l221 615h194z" />
<glyph unicode="&#x4b2;" horiz-adv-x="1366" d="M1353 -407h-172v407h-68l-369 523q-25 36 -64 98q-52 -86 -70 -110l-368 -511h-233l567 764l-500 702h231l266 -376q84 -119 118 -180q45 73 116 167l295 389h211l-515 -691l430 -602h125v-580z" />
<glyph unicode="&#x4b3;" horiz-adv-x="1024" d="M1009 -301h-148v301h-73l-276 419l-279 -419h-218l388 552l-359 510h225l163 -249q42 -64 74 -119q35 52 81 117l179 251h215l-367 -500l292 -414h103v-449z" />
<glyph unicode="&#x4b4;" horiz-adv-x="1895" d="M1826 -407h-172v407h-1115v1293h-490v173h1173v-173h-489v-1120h764v1293h195v-1293h134v-580z" />
<glyph unicode="&#x4b5;" horiz-adv-x="1415" d="M1354 -301h-148v301h-826v913h-342v149h863v-149h-341v-765h498v914h180v-914h116v-449z" />
<glyph unicode="&#x4b6;" horiz-adv-x="1365" d="M1338 -407h-172v407h-156v591q-261 -97 -457 -97q-138 0 -254 62q-128 70 -172 191q-40 111 -40 288v431h194v-413q0 -391 298 -391q205 0 431 91v713h194v-1293h134v-580z" />
<glyph unicode="&#x4b7;" horiz-adv-x="1067" d="M1047 -301h-148v301h-148v428q-166 -52 -310 -52q-109 0 -203 55q-100 59 -136 157q-33 89 -33 196v278h180v-201q0 -116 9 -159q18 -84 81 -131q60 -44 148 -44q102 0 264 54v481h180v-914h116v-449z" />
<glyph unicode="&#x4b8;" horiz-adv-x="1365" d="M1204 0h-194v591q-162 -60 -300 -83v-279h-120v266q-22 -1 -37 -1q-138 0 -254 62q-128 70 -172 191q-40 111 -40 288v431h194v-413q0 -239 88.5 -315.5t209.5 -75.5h11v450h120v-441q145 20 300 82v713h194v-1466z" />
<glyph unicode="&#x4b9;" horiz-adv-x="1067" d="M931 0h-180v428q-110 -34 -210 -46v-214h-99v208h-21q-89 0 -183 55q-100 59 -136 157q-33 89 -33 196v278h180v-201q0 -116 9 -159q18 -84 81 -131q44 -33 103 -41v277h99v-277q87 10 210 51v481h180v-1062z" />
<glyph unicode="&#x4ba;" horiz-adv-x="1365" d="M1278 0h-194v413q0 184 -56 276q-71 115 -242 115q-205 0 -431 -91v-713h-194v1466h194v-591q261 97 457 97q139 0 254 -62q129 -69 173 -191q39 -109 39 -288v-431z" />
<glyph unicode="&#x4bb;" d="M135 0v1466h180v-526q126 146 318 146q118 0 205 -46.5t124.5 -128.5t37.5 -238v-673h-180v673q0 135 -58.5 196.5t-165.5 61.5q-80 0 -150.5 -41.5t-100.5 -112.5t-30 -196v-581h-180z" />
<glyph unicode="&#x4bc;" horiz-adv-x="1764" d="M1672 624h-1141q12 -221 129 -346q122 -132 340 -132q317 0 400 307l190 -50q-56 -209 -216 -320q-153 -107 -373 -107q-200 0 -359 98q-163 100 -245 279q-54 117 -69 271q-318 0 -318 267q0 73 19 141l153 -41q-14 -54 -14 -85q0 -75 58 -98q28 -12 97 -11 q12 281 157 471q170 224 517 224q340 0 516 -223q159 -202 159 -551v-94zM1471 797q-10 232 -124 374q-126 158 -350 158t-350 -158q-114 -142 -124 -374h948z" />
<glyph unicode="&#x4bd;" horiz-adv-x="1364" d="M1279 533q0 -16 -1 -48h-792q9 -156 85 -252q86 -109 236 -109q202 0 280 218l186 -23q-93 -343 -467 -343q-232 0 -366 140q-130 136 -139 369q-291 0 -291 235q0 63 19 141l153 -34q-14 -45 -14 -85q0 -74 51 -97q26 -12 88 -12q24 190 131 305q138 148 358 148 q234 0 364 -163q119 -150 119 -390zM1089 633q-12 134 -68 201q-86 104 -223 104q-130 0 -214 -88q-79 -85 -88 -217h593z" />
<glyph unicode="&#x4be;" horiz-adv-x="1764" d="M1672 624h-1141q12 -221 129 -346q122 -132 340 -132q317 0 400 307l190 -50q-51 -190 -191 -301q-136 -109 -334 -124v-285h-132v286q-159 14 -291 95q-277 170 -314 550q-318 0 -318 267q0 73 19 141l153 -41q-14 -54 -14 -85q0 -74 58 -98q29 -12 97 -11 q12 280 157 471q170 224 517 224q341 0 516 -223q159 -201 159 -551v-94zM1471 797q-10 232 -123 374q-127 158 -351 158t-351 -158q-113 -142 -123 -374h948z" />
<glyph unicode="&#x4bf;" horiz-adv-x="1364" d="M1279 533q0 -16 -1 -48h-792q9 -156 85 -252q86 -109 236 -109q202 0 280 218l186 -23q-85 -314 -406 -341v-285h-132v287q-203 20 -318 162q-108 133 -116 343q-291 0 -291 235q0 63 19 141l153 -34q-14 -45 -14 -85q0 -74 51 -97q26 -12 88 -12q24 190 131 305 q138 148 358 148q235 0 365 -163q118 -149 118 -390zM1089 633q-12 134 -68 201q-86 104 -223 104q-132 0 -214 -88q-79 -83 -88 -217h593z" />
<glyph unicode="&#x4c0;" horiz-adv-x="569" d="M191 0v1466h194v-1466h-194z" />
<glyph unicode="&#x4c1;" horiz-adv-x="1891" d="M1045 1466v-642q143 0 196.5 52.5t136.5 246.5q61 144 100.5 203.5t112.5 100t160 40.5q95 0 118 -2v-168q-9 0 -38 1q-32 1 -39 1q-93 0 -138 -45q-46 -45 -105 -192q-64 -159 -111 -216.5t-136 -95.5q144 -40 279 -262l302 -488h-240l-245 398q-98 158 -165 223 t-188 65v-686h-199v686q-96 0 -169.5 -50.5t-171.5 -217.5l-12 -20l-245 -398h-241l302 488q138 223 280 262q-79 32 -129 85.5t-119 226.5q-63 157 -108 197t-134 40l-78 -2v168q11 2 112 2q96 0 166.5 -39.5t110.5 -99t103 -205.5q84 -197 136.5 -247t196.5 -52v642h199z M1237 1826q-31 -259 -295 -259q-265 0 -296 259h123q28 -135 167 -135q151 0 178 135h123z" />
<glyph unicode="&#x4c2;" horiz-adv-x="1370" d="M777 1062v-459q86 0 121 33t102 192q63 151 113 193q49 41 156 41h66v-149l-49 1q-72 0 -92 -21q-21 -22 -64 -131q-40 -104 -74 -144t-106 -73q117 -31 228 -216l198 -329h-198l-193 329q-59 100 -103 131t-105 31v-491h-184v491q-60 0 -104 -30.5t-103 -131.5 l-193 -329h-198l197 329q112 185 229 216q-80 37 -112 80.5t-96 207.5q-22 55 -47 68q-26 13 -77 13q-13 0 -53 -1v149h25q104 0 146.5 -12.5t76 -53t87.5 -168.5q66 -157 100.5 -191t121.5 -34v459h184zM997 1464q-31 -259 -295 -259q-265 0 -296 259h123q28 -135 167 -135 q151 0 178 135h123z" />
<glyph unicode="&#x4c3;" horiz-adv-x="1367" d="M1278 255q0 -331 -169 -513q-161 -173 -438 -173q-189 0 -340 85.5t-170 205.5h194q17 -44 89 -80q91 -45 219 -45q198 0 309.5 133t111.5 370q0 179 -86 300q-106 148 -312 148h-331v-686h-194v1466h194v-642q144 0 214 82q37 43 111 217q55 130 81 172q54 88 132 132 q72 40 161 40q112 0 118 -2v-168q-13 0 -39 1t-39 1q-103 0 -160 -71q-32 -39 -83 -166q-74 -186 -129 -238q295 0 439 -184q117 -149 117 -385z" />
<glyph unicode="&#x4c4;" horiz-adv-x="1128" d="M1046 107q0 -227 -129 -379q-135 -159 -354 -159q-170 0 -289 79q-123 81 -140 212h180q44 -143 249 -143q141 0 221 118q71 103 71 256q0 165 -87.5 259t-245.5 94h-208v-444h-180v1062h180v-459q100 0 148 65q16 21 74 160q40 96 60 128q44 73 102 92q43 14 138 14h36 v-149l-50 1q-75 1 -106 -39q-10 -13 -49 -113q-42 -106 -95 -159q202 0 335 -131q139 -138 139 -365z" />
<glyph unicode="&#x4c5;" horiz-adv-x="1344" d="M1367 173l-188 -580h-172l138 407h-156v1293h-530v-755q0 -200 -9 -267q-21 -166 -103 -236q-70 -60 -175 -60q-64 0 -154 24l33 172q48 -20 82 -20q93 0 120 104q12 47 12 179v1032h918v-1293h184z" />
<glyph unicode="&#x4c6;" horiz-adv-x="1195" d="M1235 148l-208 -449h-148l148 301h-147v913h-477v-529q0 -168 -2 -186q-13 -109 -76 -161q-54 -44 -156 -44q-63 0 -145 8v150h79q97 0 112 48q8 25 8 163v700h836v-914h176z" />
<glyph unicode="&#x4c7;" horiz-adv-x="1479" d="M1314 325q0 -364 -174 -566q-165 -190 -443 -190q-199 0 -352 81q-157 83 -181 210h194q17 -46 104 -84q99 -41 227 -41q200 0 315.5 150.5t115.5 419.5v386h-762v-691h-194v1466h194v-602h762v602h194v-1141z" />
<glyph unicode="&#x4c8;" horiz-adv-x="1131" d="M995 98q0 -231 -112 -374q-121 -155 -338 -155q-168 0 -280 79t-129 212h180q44 -143 229 -143q270 0 270 378v376h-499v-471h-180v1062h180v-442h499v442h180v-964z" />
<glyph unicode="&#x4c9;" horiz-adv-x="1479" d="M1498 173l-188 -580h-172l138 407h-156v691h-762v-691h-194v1466h194v-602h762v602h194v-1293h184z" />
<glyph unicode="&#x4ca;" horiz-adv-x="1131" d="M1171 148l-208 -449h-148l148 301h-148v471h-499v-471h-180v1062h180v-442h499v442h180v-914h176z" />
<glyph unicode="&#x4cb;" horiz-adv-x="1365" d="M1204 0h-156v-407h-172v580h134v418q-261 -97 -457 -97q-138 0 -254 62q-128 70 -172 191q-40 111 -40 288v431h194v-413q0 -391 298 -391q205 0 431 91v713h194v-1466z" />
<glyph unicode="&#x4cc;" horiz-adv-x="1067" d="M931 0h-148v-301h-148v449h116v280q-166 -52 -310 -52q-109 0 -203 55q-100 59 -136 157q-33 89 -33 196v278h180v-201q0 -116 9 -159q18 -84 81 -131q60 -44 148 -44q102 0 264 54v481h180v-1062z" />
<glyph unicode="&#x4cd;" horiz-adv-x="1706" d="M1735 173l-188 -580h-172l138 407h-149v1227l-426 -1227h-175l-424 1248v-1248h-187v1466h292l347 -1038q43 -129 70 -217q28 91 78 235l351 1020h261v-1293h184z" />
<glyph unicode="&#x4ce;" horiz-adv-x="1408" d="M1444 148l-208 -449h-148l148 301h-148v855l-314 -855h-161l-297 896v-896h-176v1062h280l279 -850l310 850h259v-914h176z" />
<glyph unicode="&#x4cf;" horiz-adv-x="455" d="M131 0v1466h180v-1466h-180z" />
<glyph unicode="&#x4d0;" horiz-adv-x="1366" d="M-3 0l563 1466h209l600 -1466h-221l-171 444h-613l-161 -444h-206zM420 602h497l-153 406q-70 185 -104 304q-28 -141 -79 -280zM977 1825q-31 -259 -295 -259q-265 0 -296 259h123q28 -135 167 -135q151 0 178 135h123z" />
<glyph unicode="&#x4d1;" d="M828 131q-100 -85 -192.5 -120t-198.5 -35q-175 0 -269 85.5t-94 218.5q0 78 35.5 142.5t93 103.5t129.5 59q53 14 160 27q218 26 321 62q1 37 1 47q0 110 -51 155q-69 61 -205 61q-127 0 -187.5 -44.5t-89.5 -157.5l-176 24q24 113 79 182.5t159 107t241 37.5 q136 0 221 -32t125 -80.5t56 -122.5q9 -46 9 -166v-240q0 -251 11.5 -317.5t45.5 -127.5h-188q-28 56 -36 131zM813 533q-98 -40 -294 -68q-111 -16 -157 -36t-71 -58.5t-25 -85.5q0 -72 54.5 -120t159.5 -48q104 0 185 45.5t119 124.5q29 61 29 180v66zM837 1464 q-31 -259 -295 -259q-265 0 -296 259h123q28 -135 167 -135q151 0 178 135h123z" />
<glyph unicode="&#x4d2;" horiz-adv-x="1366" d="M-3 0l563 1466h209l600 -1466h-221l-171 444h-613l-161 -444h-206zM420 602h497l-153 406q-70 185 -104 304q-28 -141 -79 -280zM401 1632v205h188v-205h-188zM774 1632v205h188v-205h-188z" />
<glyph unicode="&#x4d3;" d="M828 131q-100 -85 -192.5 -120t-198.5 -35q-175 0 -269 85.5t-94 218.5q0 78 35.5 142.5t93 103.5t129.5 59q53 14 160 27q218 26 321 62q1 37 1 47q0 110 -51 155q-69 61 -205 61q-127 0 -187.5 -44.5t-89.5 -157.5l-176 24q24 113 79 182.5t159 107t241 37.5 q136 0 221 -32t125 -80.5t56 -122.5q9 -46 9 -166v-240q0 -251 11.5 -317.5t45.5 -127.5h-188q-28 56 -36 131zM813 533q-98 -40 -294 -68q-111 -16 -157 -36t-71 -58.5t-25 -85.5q0 -72 54.5 -120t159.5 -48q104 0 185 45.5t119 124.5q29 61 29 180v66zM261 1270v205h188 v-205h-188zM634 1270v205h188v-205h-188z" />
<glyph unicode="&#x4d4;" horiz-adv-x="2048" d="M1 0l705 1466h1203v-173h-737v-451h685v-172h-685v-497h764v-173h-959v423h-566l-200 -423h-210zM493 595h484v698h-145z" />
<glyph unicode="&#x4d5;" horiz-adv-x="1821" d="M1734 325q-50 -167 -170 -258t-298 -91q-127 0 -222.5 48t-172.5 150q-104 -102 -210.5 -150t-229.5 -48q-172 0 -267.5 88.5t-95.5 215.5q0 86 49.5 161.5t138 114.5t282.5 64q150 20 252 49q1 25 1 41q0 126 -52.5 176.5t-183.5 50.5q-87 0 -147 -21t-88.5 -59.5 t-47.5 -123.5l-175 21q28 117 80.5 185.5t150.5 107.5t229 39q167 0 269 -50q59 -29 99 -93q64 70 145 106.5t196 36.5q162 0 268 -78.5t155 -207.5t49 -254q0 -19 -2 -61h-767q2 -144 35.5 -209t107 -108.5t161.5 -43.5q103 0 174.5 59t98.5 166zM969 633h584 q-14 158 -90 231t-198 73q-126 0 -206.5 -80t-89.5 -224zM793 533q-79 -34 -322 -73q-109 -17 -153 -51q-59 -47 -59 -123q0 -71 53 -119.5t154 -48.5q115 0 200.5 57t111.5 142q15 52 15 216z" />
<glyph unicode="&#x4d6;" horiz-adv-x="1366" d="M162 0v1466h1060v-173h-866v-449h811v-172h-811v-499h900v-173h-1094zM997 1826q-31 -259 -295 -259q-265 0 -296 259h123q28 -135 167 -135q151 0 178 135h123z" />
<glyph unicode="&#x4d7;" d="M862 342l186 -23q-44 -163 -163 -253t-304 -90q-233 0 -369.5 143.5t-136.5 402.5q0 268 138 416t358 148q213 0 348 -145t135 -408q0 -16 -1 -48h-792q10 -175 99 -268t222 -93q99 0 169 52t111 166zM271 633h593q-12 134 -68 201q-86 104 -223 104q-124 0 -208.5 -83 t-93.5 -222zM857 1464q-31 -259 -295 -259q-265 0 -296 259h123q28 -135 167 -135q151 0 178 135h123z" />
<glyph unicode="&#x4da;" horiz-adv-x="1541" d="M1449 749q7 -333 -158 -550q-170 -224 -517 -224q-346 0 -516 224q-159 210 -159 550v94h1141q-12 220 -129 346q-124 132 -340 132q-317 0 -400 -307l-190 50q56 208 216 320q153 107 373 107q200 0 359 -98q163 -99 245 -279q71 -154 75 -365zM1248 670h-948 q11 -246 137 -389t337 -143t337 143t137 389zM481 1632v205h188v-205h-188zM854 1632v205h188v-205h-188z" />
<glyph unicode="&#x4db;" d="M1064 540q0 -246 -123 -399q-133 -165 -373 -165q-234 0 -364 163q-119 150 -119 390q0 16 1 48h792q-9 156 -85 252q-86 109 -236 109q-202 0 -280 -218l-186 23q93 343 467 343q245 0 379 -152q127 -145 127 -394zM868 429h-593q12 -134 68 -201q86 -104 223 -104 q131 0 214 88q79 84 88 217zM261 1270v205h188v-205h-188zM634 1270v205h188v-205h-188z" />
<glyph unicode="&#x4dc;" horiz-adv-x="1891" d="M1045 1466v-642q143 0 196.5 52.5t136.5 246.5q61 144 100.5 203.5t112.5 100t160 40.5q95 0 118 -2v-168q-9 0 -38 1q-32 1 -39 1q-93 0 -138 -45q-46 -45 -105 -192q-64 -159 -111 -216.5t-136 -95.5q144 -40 279 -262l302 -488h-240l-245 398q-98 158 -165 223 t-188 65v-686h-199v686q-96 0 -169.5 -50.5t-171.5 -217.5l-12 -20l-245 -398h-241l302 488q138 223 280 262q-79 32 -129 85.5t-119 226.5q-63 157 -108 197t-134 40l-78 -2v168q11 2 112 2q96 0 166.5 -39.5t110.5 -99t103 -205.5q84 -197 136.5 -247t196.5 -52v642h199z M661 1632v205h188v-205h-188zM1034 1632v205h188v-205h-188z" />
<glyph unicode="&#x4dd;" horiz-adv-x="1370" d="M777 1062v-459q86 0 121 33t102 192q63 151 113 193q49 41 156 41h66v-149l-49 1q-72 0 -92 -21q-21 -22 -64 -131q-40 -104 -74 -144t-106 -73q117 -31 228 -216l198 -329h-198l-193 329q-59 100 -103 131t-105 31v-491h-184v491q-60 0 -104 -30.5t-103 -131.5 l-193 -329h-198l197 329q112 185 229 216q-80 37 -112 80.5t-96 207.5q-22 55 -47 68q-26 13 -77 13q-13 0 -53 -1v149h25q104 0 146.5 -12.5t76 -53t87.5 -168.5q66 -157 100.5 -191t121.5 -34v459h184zM404 1270v205h188v-205h-188zM777 1270v205h188v-205h-188z" />
<glyph unicode="&#x4de;" horiz-adv-x="1237" d="M78 414l185 48q21 -107 112.5 -214t242.5 -107q154 0 243 79t89 191q0 121 -94 192.5t-256 71.5h-93v169q134 0 205 15.5t125.5 79t54.5 144.5q0 96 -74.5 167t-201.5 71q-111 0 -189.5 -55.5t-108.5 -147t-30 -136.5l-186 42q69 467 516 467q215 0 341 -119.5 t126 -279.5q0 -205 -194 -318q112 -31 187.5 -126.5t75.5 -228.5q0 -189 -146.5 -316.5t-388.5 -127.5q-416 0 -541 439zM361 1632v205h188v-205h-188zM734 1632v205h188v-205h-188z" />
<glyph unicode="&#x4df;" horiz-adv-x="939" d="M370 480v141q114 1 155.5 9t78.5 48t37 100q0 73 -48.5 116.5t-125.5 43.5q-152 0 -213 -179l-171 28q80 299 386 299q170 0 266.5 -93t96.5 -222q0 -130 -126 -207q80 -43 120 -109.5t40 -157.5q0 -143 -104 -232t-291 -89q-363 0 -421 323l169 36q23 -102 93.5 -158 t161.5 -56t151.5 51.5t60.5 131.5q0 62 -38 108t-81 57.5t-156 11.5q-9 0 -41 -1zM201 1270v205h188v-205h-188zM574 1270v205h188v-205h-188z" />
<glyph unicode="&#x4e0;" horiz-adv-x="1237" d="M1176 1293l-432 -432q180 -26 291 -135q119 -117 119 -297q0 -225 -167 -347q-146 -107 -368 -107q-416 0 -541 439l185 48q26 -134 122 -225q101 -96 233 -96q136 0 227 66q105 76 105 214q0 147 -112 217q-91 57 -238 57h-85v175l429 423h-818v173h1050v-173z" />
<glyph unicode="&#x4e1;" horiz-adv-x="1116" d="M1048 97q0 -223 -138 -374q-141 -154 -363 -154q-194 0 -323 111.5t-148 303.5l189 16q19 -125 87 -200q75 -83 195 -83q143 0 230 113q80 103 80 251q0 159 -97 248q-92 84 -246 84h-93v159l336 350q-149 -6 -203 -6h-433v146h868v-119l-369 -375q181 -13 300 -134 q128 -131 128 -337z" />
<glyph unicode="&#x4e2;" horiz-adv-x="1472" d="M161 1466h176v-1161l780 1161h195v-1466h-176v1158l-781 -1158h-194v1466zM427 1589v148h624v-148h-624z" />
<glyph unicode="&#x4e3;" horiz-adv-x="1144" d="M135 1062h180v-810l499 810h194v-1062h-180v805l-499 -805h-194v1062zM259 1227v148h624v-148h-624z" />
<glyph unicode="&#x4e4;" horiz-adv-x="1472" d="M161 1466h176v-1161l780 1161h195v-1466h-176v1158l-781 -1158h-194v1466zM459 1632v205h188v-205h-188zM832 1632v205h188v-205h-188z" />
<glyph unicode="&#x4e5;" horiz-adv-x="1144" d="M135 1062h180v-810l499 810h194v-1062h-180v805l-499 -805h-194v1062zM291 1270v205h188v-205h-188zM664 1270v205h188v-205h-188z" />
<glyph unicode="&#x4e6;" horiz-adv-x="1593" d="M99 714q0 365 196 571.5t506 206.5q203 0 366 -97t248.5 -270.5t85.5 -393.5q0 -223 -90 -399t-255 -266.5t-356 -90.5q-207 0 -370 100t-247 273t-84 366zM299 711q0 -265 142.5 -417.5t357.5 -152.5q219 0 360.5 154t141.5 437q0 179 -60.5 312.5t-177 207t-261.5 73.5 q-206 0 -354.5 -141.5t-148.5 -472.5zM521 1632v205h188v-205h-188zM894 1632v205h188v-205h-188z" />
<glyph unicode="&#x4e7;" d="M68 531q0 295 164 437q137 118 334 118q219 0 358 -143.5t139 -396.5q0 -205 -61.5 -322.5t-179 -182.5t-256.5 -65q-223 0 -360.5 143t-137.5 412zM253 531q0 -204 89 -305.5t224 -101.5q134 0 223 102t89 311q0 197 -89.5 298.5t-222.5 101.5q-135 0 -224 -101 t-89 -305zM281 1270v205h188v-205h-188zM654 1270v205h188v-205h-188z" />
<glyph unicode="&#x4e8;" horiz-adv-x="1593" d="M1498 731q0 -327 -185 -536q-194 -220 -516 -220q-207 0 -374 103q-174 106 -253 292q-74 175 -74 344q0 340 178 552q191 226 524 226q325 0 517 -221q183 -210 183 -540zM1294 819q-19 219 -136 350q-140 156 -359 156q-215 0 -359 -147q-118 -120 -139 -359h993z M1294 647h-996q15 -207 134 -346q136 -160 364 -160q219 0 353 147q126 136 145 359z" />
<glyph unicode="&#x4e9;" d="M1063 546q0 -372 -240 -505q-117 -65 -257 -65q-242 0 -375 159q-123 148 -123 396q0 295 164 437q137 118 334 118q235 0 369 -155q128 -147 128 -385zM872 633q-17 129 -83 203q-89 101 -223 101q-135 0 -224 -101q-66 -74 -83 -203h613zM877 485h-623q8 -154 81 -251 q84 -110 231 -110t230 111q72 96 81 250z" />
<glyph unicode="&#x4ea;" horiz-adv-x="1593" d="M1498 731q0 -327 -185 -536q-194 -220 -516 -220q-207 0 -374 103q-174 106 -253 292q-74 175 -74 344q0 340 178 552q191 226 524 226q325 0 517 -221q183 -210 183 -540zM1294 819q-19 219 -136 350q-140 156 -359 156q-215 0 -359 -147q-118 -120 -139 -359h993z M1294 647h-996q15 -207 134 -346q136 -160 364 -160q219 0 353 147q126 136 145 359zM521 1632v205h188v-205h-188zM894 1632v205h188v-205h-188z" />
<glyph unicode="&#x4eb;" d="M1063 546q0 -372 -240 -505q-117 -65 -257 -65q-242 0 -375 159q-123 148 -123 396q0 295 164 437q137 118 334 118q235 0 369 -155q128 -147 128 -385zM872 633q-17 129 -83 203q-89 101 -223 101q-135 0 -224 -101q-66 -74 -83 -203h613zM877 485h-623q8 -154 81 -251 q84 -110 231 -110t230 111q72 96 81 250zM281 1270v205h188v-205h-188zM654 1270v205h188v-205h-188z" />
<glyph unicode="&#x4ec;" horiz-adv-x="1472" d="M615 843v-173h545q-11 -247 -137 -389.5t-323 -142.5q-350 0 -439 372l-187 -49q127 -486 612 -486q347 0 516.5 223.5t158.5 550.5q0 200 -75.5 365t-231.5 271t-372 106q-228 0 -381.5 -113t-207.5 -314l190 -50q83 307 400 307q214 0 335.5 -129t133.5 -349h-537z M411 1632v205h188v-205h-188zM784 1632v205h188v-205h-188z" />
<glyph unicode="&#x4ed;" horiz-adv-x="1045" d="M404 618v-148h375q-17 -173 -89.5 -259.5t-201.5 -86.5q-228 0 -269 264l-176 -23q28 -175 145.5 -282t307.5 -107q226 -13 350 143.5t118 411.5q0 259 -129 407t-352 148q-178 0 -288 -94.5t-134 -243.5l175 -28q44 217 253 217q120 0 196.5 -88.5t93.5 -230.5h-375z M221 1270v205h188v-205h-188zM594 1270v205h188v-205h-188z" />
<glyph unicode="&#x4ee;" horiz-adv-x="1301" d="M10 1466h196l478 -898l418 898h193l-550 -1140q-103 -214 -169 -280t-189 -66q-75 0 -184 35v166q78 -45 165 -45q71 0 122.5 45.5t113.5 207.5zM349 1589v148h624v-148h-624z" />
<glyph unicode="&#x4ef;" horiz-adv-x="1024" d="M127 -409l-20 169q59 -16 103 -16q60 0 96 20t59 56q17 27 55 134q5 15 16 44l-403 1064h194l221 -615q43 -117 77 -246q31 124 74 242l227 619h180l-404 -1080q-65 -175 -101 -241q-48 -89 -110 -130.5t-148 -41.5q-52 0 -116 22zM209 1227v148h624v-148h-624z" />
<glyph unicode="&#x4f0;" horiz-adv-x="1301" d="M10 1466h196l478 -898l418 898h193l-550 -1140q-103 -214 -169 -280t-189 -66q-75 0 -184 35v166q78 -45 165 -45q71 0 122.5 45.5t113.5 207.5zM381 1632v205h188v-205h-188zM754 1632v205h188v-205h-188z" />
<glyph unicode="&#x4f1;" horiz-adv-x="1024" d="M127 -409l-20 169q59 -16 103 -16q60 0 96 20t59 56q17 27 55 134q5 15 16 44l-403 1064h194l221 -615q43 -117 77 -246q31 124 74 242l227 619h180l-404 -1080q-65 -175 -101 -241q-48 -89 -110 -130.5t-148 -41.5q-52 0 -116 22zM251 1270v205h188v-205h-188zM624 1270 v205h188v-205h-188z" />
<glyph unicode="&#x4f2;" horiz-adv-x="1301" d="M10 1466h196l478 -898l418 898h193l-550 -1140q-103 -214 -169 -280t-189 -66q-75 0 -184 35v166q78 -45 165 -45q71 0 122.5 45.5t113.5 207.5zM358 1556l121 280h234l-211 -280h-144zM705 1556l127 280h231l-207 -280h-151z" />
<glyph unicode="&#x4f3;" horiz-adv-x="1024" d="M127 -409l-20 169q59 -16 103 -16q60 0 96 20t59 56q17 27 55 134q5 15 16 44l-403 1064h194l221 -615q43 -117 77 -246q31 124 74 242l227 619h180l-404 -1080q-65 -175 -101 -241q-48 -89 -110 -130.5t-148 -41.5q-52 0 -116 22zM258 1194l121 280h234l-211 -280h-144z M605 1194l127 280h231l-207 -280h-151z" />
<glyph unicode="&#x4f4;" horiz-adv-x="1365" d="M1204 0h-194v591q-261 -97 -457 -97q-153 0 -270 71.5t-156.5 181.5t-39.5 288v431h194v-413q0 -240 87.5 -315.5t210.5 -75.5q205 0 431 91v713h194v-1466zM358 1632v205h188v-205h-188zM731 1632v205h188v-205h-188z" />
<glyph unicode="&#x4f5;" horiz-adv-x="1067" d="M69 1062h180v-201q0 -130 15.5 -188.5t74.5 -102t148 -43.5q102 0 264 54v481h180v-1062h-180v428q-166 -52 -310 -52q-121 0 -213.5 61.5t-125.5 150.5t-33 196v278zM221 1270v205h188v-205h-188zM594 1270v205h188v-205h-188z" />
<glyph unicode="&#x4f6;" horiz-adv-x="1109" d="M1109 1293h-754v-1120h134v-580h-172v407h-156v1466h948v-173z" />
<glyph unicode="&#x4f7;" horiz-adv-x="747" d="M747 913h-431v-765h116v-449h-148v301h-148v1062h611v-149z" />
<glyph unicode="&#x4f8;" horiz-adv-x="1813" d="M168 1466h194v-626h350q344 0 452.5 -127t108.5 -288q0 -170 -116 -297.5t-431 -127.5h-558v1466zM362 165h355q183 0 265.5 61.5t82.5 196.5q0 92 -50 154t-129 79t-264 17h-260v-508zM1449 1466h194v-1466h-194v1466zM612 1632v205h188v-205h-188zM985 1632v205h188 v-205h-188z" />
<glyph unicode="&#x4f9;" horiz-adv-x="1472" d="M1146 1062h180v-1062h-180v1062zM139 1062h180v-415h228q223 0 343.5 -86.5t120.5 -238.5q0 -133 -100.5 -227.5t-321.5 -94.5h-450v1062zM319 148h189q171 0 244 42t73 131q0 69 -54 123t-239 54h-213v-350zM447 1270v205h188v-205h-188zM820 1270v205h188v-205h-188z " />
<glyph unicode="&#x4fa;" horiz-adv-x="1109" d="M1109 1293h-754v-494h401v-132h-401v-512h93v-213q0 -195 -51 -273q-66 -100 -216 -100q-73 0 -141 19l34 153q54 -14 85 -14q77 0 99 78q10 35 10 141v54h-107v667h-164v132h164v667h948v-173z" />
<glyph unicode="&#x4fb;" horiz-adv-x="747" d="M747 913h-431v-267h231v-132h-231v-359h93v-213q0 -195 -51 -273q-66 -100 -216 -100q-73 0 -141 19l34 153q54 -14 85 -14q77 0 99 78q10 35 10 141v54h-93v514h-124v132h124v416h611v-149z" />
<glyph unicode="&#x4fc;" horiz-adv-x="1366" d="M1350 -140q0 -125 -72 -206q-76 -85 -205 -85q-75 0 -147 20l34 152q54 -14 91 -14q46 0 80 36.5t34 91.5q0 81 -85 201l-400 565l-438 -621h-233l567 764l-500 702h231l384 -556l411 556h211l-515 -691l434 -605q118 -164 118 -310z" />
<glyph unicode="&#x4fd;" horiz-adv-x="1024" d="M1020 -140q0 -126 -67 -206q-72 -85 -200 -85q-75 0 -147 20l34 152q54 -14 91 -14q46 0 80 36.5t34 91.5q0 67 -85 194l-248 370l-279 -419h-218l388 552l-359 510h225l237 -368l260 368h215l-367 -500l282 -398q124 -175 124 -304z" />
<glyph unicode="&#x4fe;" horiz-adv-x="1366" d="M1353 0h-240l-433 621l-438 -621h-233l524 706h-321v132h311l-447 628h231l384 -556l411 556h211l-468 -628h298v-132h-296z" />
<glyph unicode="&#x4ff;" horiz-adv-x="1024" d="M1009 0h-221l-276 419l-279 -419h-218l347 493h-318v132h308l-308 437h225l237 -368l260 368h215l-321 -437h321v-132h-319z" />
<glyph unicode="&#x500;" horiz-adv-x="1344" d="M1179 0h-557q-548 0 -548 426q0 250 206 357q110 57 355 57h350v626h194v-1466zM985 165v508h-260q-163 0 -211 -7q-128 -18 -183 -90q-48 -62 -48 -150q0 -150 103 -212q82 -49 244 -49h355z" />
<glyph unicode="&#x501;" d="M824 0v134q-101 -158 -297 -158q-127 0 -233.5 70t-165 195.5t-58.5 288.5q0 159 53 288.5t159 198.5t237 69q96 0 171 -40.5t122 -105.5v526h179v-1466h-167zM255 530q0 -204 86 -305t203 -101q118 0 200.5 96.5t82.5 294.5q0 218 -84 320t-207 102q-120 0 -200.5 -98 t-80.5 -309z" />
<glyph unicode="&#x502;" horiz-adv-x="1983" d="M1849 440q0 -217 -105 -337q-111 -127 -324 -127q-266 0 -375 183q-149 -159 -423 -159q-548 0 -548 426q0 250 206 357q110 57 355 57h350v626h194v-1033q0 -142 42 -213q57 -96 202 -96q247 0 247 323v393h179v-400zM985 451v222h-260q-163 0 -211 -7 q-128 -18 -183 -90q-48 -62 -48 -150q0 -150 103 -212q81 -49 244 -49q150 0 250 76q105 80 105 210z" />
<glyph unicode="&#x503;" horiz-adv-x="1795" d="M1661 440q0 -216 -105 -337q-112 -127 -324 -127q-262 0 -361 181q-105 -181 -344 -181q-131 0 -238 73q-103 71 -160 193q-59 127 -59 288q0 349 212 487q106 69 237 69q187 0 293 -146v526h179v-1034q0 -130 55 -212q65 -96 189 -96q73 0 135.5 42t88.5 110 q23 60 23 171v174h179v-181zM827 515q0 171 -59 281q-76 141 -232 141q-151 0 -224 -136q-57 -106 -57 -271q0 -160 63 -271q77 -135 226 -135q148 0 222 128q61 105 61 263z" />
<glyph unicode="&#x504;" horiz-adv-x="1958" d="M1824 440q0 -217 -105 -337q-111 -127 -324 -127q-445 0 -445 442q0 135 -112 202q-93 55 -238 55h-93v169q127 0 179 10q96 19 152 85q54 63 54 144q0 110 -85 177q-78 61 -191 61q-105 0 -184 -51q-82 -54 -114 -151q-30 -91 -30 -137l-186 42q69 467 516 467 q190 0 322 -103q145 -112 145 -296q0 -205 -194 -318q120 -33 191.5 -129t71.5 -221q0 -300 244 -300q247 0 247 323v397h179v-404z" />
<glyph unicode="&#x505;" horiz-adv-x="1670" d="M1536 440q0 -216 -105 -337q-112 -127 -324 -127q-232 0 -342 132q-79 96 -79 227q0 97 -113 128q-60 17 -203 17v141q106 1 125 4q69 10 109 53q37 40 37 100q0 76 -48.5 118t-125.5 42q-152 0 -213 -179l-171 28q80 299 386 299q152 0 253 -80q110 -88 110 -235 q0 -130 -126 -207q160 -40 160 -217q0 -81 42 -138q62 -85 202 -85q247 0 247 323v174h179v-181z" />
<glyph unicode="&#x506;" horiz-adv-x="1357" d="M1288 -407h-172v407h-156v413q0 135 -117 204q-97 58 -243 58h-93v169q127 0 179 10q96 19 152 85q54 63 54 144q0 110 -85 177q-78 61 -191 61q-105 0 -184 -51q-82 -54 -114 -151q-30 -91 -30 -137l-186 42q69 467 516 467q190 0 322 -103q145 -112 145 -296 q0 -205 -194 -318q120 -33 191.5 -131t71.5 -224v-246h134v-580z" />
<glyph unicode="&#x507;" horiz-adv-x="1043" d="M982 -301h-148v301h-147v303q0 121 -110 158q-57 19 -207 19v141q106 1 125 4q69 10 109 53q37 40 37 100q0 76 -48.5 118t-125.5 42q-152 0 -213 -179l-171 28q80 299 386 299q152 0 253 -80q110 -88 110 -235q0 -130 -126 -207q160 -86 160 -267v-149h116v-449z" />
<glyph unicode="&#x508;" horiz-adv-x="1987" d="M1853 440q0 -217 -105 -337q-111 -127 -324 -127q-246 0 -349 129q-86 107 -86 328v860h-530v-755q0 -200 -9 -267q-21 -166 -103 -236q-70 -60 -175 -60q-64 0 -154 24l33 172q48 -20 82 -20q93 0 120 104q12 47 12 179v1032h918v-1036q0 -142 42 -211q57 -95 202 -95 q247 0 247 323v393h179v-400z" />
<glyph unicode="&#x509;" horiz-adv-x="1863" d="M1729 440q0 -216 -105 -337q-112 -127 -324 -127q-124 0 -225 54q-110 59 -157 166q-38 86 -38 234v483h-477v-529q0 -168 -2 -186q-13 -109 -76 -161q-54 -44 -156 -44q-63 0 -145 8v150h79q97 0 112 48q8 25 8 163v700h836v-629q0 -131 55 -213q64 -96 189 -96 q73 0 135.5 42t88.5 110q23 60 23 171v174h179v-181z" />
<glyph unicode="&#x50a;" horiz-adv-x="2118" d="M1984 440q0 -217 -105 -337q-111 -127 -324 -127q-246 0 -349 129q-86 107 -86 328v258h-762v-691h-194v1466h194v-602h762v602h194v-1034q0 -142 42 -212q57 -96 202 -96q247 0 247 323v417h179v-424z" />
<glyph unicode="&#x50b;" horiz-adv-x="1799" d="M1665 440q0 -216 -105 -337q-112 -127 -324 -127q-124 0 -225 54q-110 59 -157 166q-39 88 -39 231v44h-499v-471h-180v1062h180v-442h499v442h180v-633q0 -159 73 -232t171 -73q73 0 135.5 42t88.5 110q23 60 23 171v174h179v-181z" />
<glyph unicode="&#x50c;" horiz-adv-x="1593" d="M1465 747q0 -772 -643 -772q-340 0 -530 208q-183 201 -183 543q0 349 197 557t537 208q488 0 600 -435l-175 -48q-93 317 -424 317q-264 0 -405 -168q-130 -156 -130 -419q0 -273 124 -425q132 -163 389 -163q238 0 360 157q93 118 93 268h-431v172h621z" />
<glyph unicode="&#x50d;" horiz-adv-x="1144" d="M1005 532q0 -556 -437 -556q-237 0 -368 160q-120 148 -120 391q0 249 118 398q128 161 366 161q359 0 424 -336l-175 -27q-50 215 -242 215q-306 0 -306 -406q0 -173 62 -278q77 -130 239 -130q115 0 189 77q70 74 70 182h-307v149h487z" />
<glyph unicode="&#x50e;" horiz-adv-x="1529" d="M1395 440q0 -217 -105 -337q-111 -127 -324 -127q-246 0 -349 129q-86 107 -86 328v860h-483v173h1162v-173h-485v-863q0 -142 42 -211q57 -95 202 -95q247 0 247 323v417h179v-424z" />
<glyph unicode="&#x50f;" horiz-adv-x="1363" d="M1229 440q0 -216 -105 -337q-112 -127 -324 -127q-124 0 -225 54q-110 59 -157 166q-38 86 -38 234v483h-342v149h863v-149h-342v-480q0 -131 55 -213q64 -96 189 -96q73 0 135.5 42t88.5 110q23 60 23 171v174h179v-181z" />
<glyph unicode="&#x510;" horiz-adv-x="1237" d="M1159 414q-125 -439 -541 -439q-217 0 -368 111q-167 124 -167 333q0 125 71.5 223.5t191.5 131.5q-194 113 -194 318q0 184 145 296q132 103 322 103q447 0 516 -467l-186 -42q0 78 -38.5 159.5t-99.5 124.5q-78 55 -190 55t-191 -62q-85 -67 -85 -176q0 -77 52.5 -142 t126.5 -81t206 -16v-169h-93q-144 0 -238 -58q-112 -70 -112 -206q0 -129 105 -204q93 -66 227 -66q132 0 233 96q96 91 122 225z" />
<glyph unicode="&#x511;" horiz-adv-x="939" d="M889 299q-58 -323 -421 -323q-167 0 -273 75q-122 86 -122 246q0 181 160 267q-126 77 -126 207q0 147 111 234q102 81 252 81q306 0 386 -299l-171 -28q-61 179 -213 179q-76 0 -125 -42.5t-49 -117.5q0 -52 33 -95t83 -53q42 -8 155 -9v-141q-32 1 -41 1 q-102 0 -130 -5q-65 -13 -107 -64q-38 -46 -38 -108q0 -83 66 -135q60 -48 146 -48q98 0 167 60q66 57 88 154z" />
<glyph unicode="&#x512;" horiz-adv-x="1344" d="M1183 -58q0 -174 -52 -261q-66 -112 -229 -112q-73 0 -141 19l34 153q54 -14 85 -14q77 0 99 77q10 35 10 145v1344h-530v-755q0 -200 -9 -267q-21 -166 -103 -236q-70 -60 -175 -60q-64 0 -154 24l33 172q48 -20 82 -20q93 0 120 104q12 47 12 179v1032h918v-1524z" />
</font>
</defs>
</svg>
